<svg  xmlns="http://www.w3.org/2000/svg" x="0px" y="0px"
	 viewBox="0 0 512 512" style="enable-background:new 0 0 512 512;" xml:space="preserve">
<style type="text/css">
	.st0{fill:#41B883;}
	.st1{fill:#35495E;}
	.st2{fill:none;stroke:#35495E;stroke-width:20;stroke-miterlimit:10;}
</style>
<g>
	<polygon class="st0" points="131.75,154.85 264.44,384.25 397.46,154.85 344.98,154.85 264.61,291.5 184.89,154.85 	"/>
	<polygon class="st1" points="184.89,154.85 234.08,154.85 264.61,207.99 295.8,154.85 344.98,154.85 264.61,291.5 	"/>
</g>
<g>
	<path class="st2" d="M263.14,52.43c-107.33,0-194.34,87.01-194.34,194.34c0,36.29,9.96,70.25,27.28,99.32c-0.35,1-0.7,2-1.05,3
		c-11.76,34.62-23.52,69.24-35.28,103.86l110.31-35.55c0.58,0.31,1.16,0.62,1.73,0.93c8.5,4.54,20.25,10,34.83,14.42
		c0,0,27.46,8.35,56.52,8.35c107.33,0,194.34-87.01,194.34-194.34S370.48,52.43,263.14,52.43z"/>
</g>
</svg>
