<svg xmlns="http://www.w3.org/2000/svg" viewBox="0 0 512 512"><circle cx="256" cy="256" r="246" fill="#6e6e6e"/><path fill="#fff" d="M409.553 246.413l-24.309-74.816-90.911 29.538V107h-78.666v95.588l-89.529-29.089-24.309 74.816 90.91 29.539-55.331 76.157 63.642 46.24 56.186-77.333 55.332 76.157 63.642-46.239-56.185-77.333z"/><path d="M201.042 410.252a9.954 9.954 0 01-5.87-1.911l-63.643-46.239c-4.468-3.246-5.458-9.5-2.212-13.968l47.242-65.022-77.82-25.285a10.003 10.003 0 01-6.421-12.601l24.309-74.816a10.003 10.003 0 0112.601-6.421l76.438 24.837V107c0-5.522 4.477-10 10-10h78.667c5.523 0 10 4.478 10 10v80.372l77.82-25.286a10.003 10.003 0 0112.601 6.421l24.31 74.816a9.998 9.998 0 01-6.421 12.601l-76.439 24.836 48.096 66.198a9.999 9.999 0 01-2.212 13.967l-63.643 46.239a9.998 9.998 0 01-13.968-2.212l-47.241-65.022-48.096 66.198a9.984 9.984 0 01-8.098 4.124zM151.375 351.8l47.462 34.483 50.308-69.243a10 10 0 0116.18 0l49.454 68.067 47.462-34.483-50.308-69.243a10 10 0 015-15.389l80.019-25.999-18.129-55.796-81.399 26.449a10.002 10.002 0 01-13.09-9.511V117h-58.667v85.589a10 10 0 01-13.09 9.511l-80.018-26-18.129 55.795 81.4 26.448a9.999 9.999 0 015 15.389L151.375 351.8zM430.284 439.612a9.97 9.97 0 01-7.204-3.063c-3.794-3.94-3.713-10.188.153-14.028a6.96 6.96 0 01.152-.15c3.978-3.831 10.308-3.712 14.14.267 3.794 3.94 3.713 10.188-.153 14.028a9.968 9.968 0 01-7.088 2.946z"/><path d="M256 512c-68.38 0-132.667-26.629-181.019-74.98C26.628 388.667 0 324.38 0 256S26.628 123.333 74.981 74.98C123.333 26.629 187.62 0 256 0s132.667 26.629 181.019 74.98C485.372 123.333 512 187.62 512 256c0 52.269-15.651 102.541-45.26 145.383-3.14 4.544-9.37 5.682-13.912 2.541-4.543-3.141-5.681-9.369-2.541-13.912C477.576 350.527 492 304.187 492 256c0-130.131-105.869-236-236-236S20 125.869 20 256s105.869 236 236 236c46.29 0 91.102-13.393 129.59-38.73 4.614-3.037 10.814-1.759 13.851 2.854 3.037 4.613 1.759 10.814-2.854 13.852C354.824 497.468 306.21 512 256 512z"/><path d="M192.16 74.03c-4.186 0-8.104-2.628-9.507-6.803-1.757-5.226 1.003-10.873 6.225-12.643l.136-.046c5.239-1.744 10.902 1.086 12.649 6.325s-1.085 10.902-6.325 12.649a10.002 10.002 0 01-3.178.518zM90.451 149.775a9.96 9.96 0 01-5.745-1.821c-4.517-3.178-5.603-9.416-2.426-13.933 18.448-26.229 43.001-48.291 71.004-63.804 4.83-2.677 10.917-.931 13.593 3.901 2.676 4.831.929 10.917-3.902 13.593-25.372 14.056-47.619 34.048-64.337 57.815a9.981 9.981 0 01-8.187 4.249z"/></svg>