<svg xmlns="http://www.w3.org/2000/svg" width="2500" height="2320" viewBox="0 0 40.177 37.283"><g fill="#218A31"><path d="M35.757 30.864c1.772.255 4.614.123 4.112 2.878-1.986 1.443-4.828 1.024-7.402 1.234-8.57.694-17.464.847-24.673 2.056H1.626c-.07-.658-1.057-.255-1.234-.822-.999-3.179 3.479-2.944 6.168-3.29 7.262-.934 10.289-1.591 15.626-3.7 1.164-.461 2.097-1.095 3.29-1.646 1.398-.646 3.072-.83 3.701-1.233 2.356-1.514 3.779-5.987 7.402-2.879.218 2.381-1.793 3.915-3.701 4.523-1.739.556-4.31.095-5.346.411-2.932.893-6.711 2.003-8.635 3.29 4.861.477 11.441-1.607 16.86-.822zM12.318 11.125c5.93-.366 26.721-6.139 23.85 2.467-.74 2.225-2.352 3.836-4.112 4.523-.021 1.254 1.48.987 1.233 2.467-4.018.999-9.89 2.862-14.804 3.29-4.141.361-5.913-1.069-8.635-1.646-.341-1.163.58-1.064.411-2.056-1.217-1.197-3.799-2.558-4.112-4.112-.724-3.606 1.184-4.211 3.701-6.168 2.693-2.093 6.769-4.474 10.691-4.523-2.841-.79-6.382-.251-9.458.411-3.074.664-6.133 2.802-7.811-.82.432-3.01 3.224-1.986 5.757-2.467 2.356-.448 5.156-1.423 8.224-1.645 2.574-.189 5.136.124 7.813 0 3.396-.156 6.551-.95 9.047-.411 1.069.23 2.714.58 2.878 2.056-1.135 1.501-2.973.966-4.523 1.233-1.439.247-3.318.366-4.935.823-1.871.526-3.833 2.035-5.757 2.467-1.435.321-3.142-.062-4.523.412-1.999.683-3.277 2.414-4.935 3.29v.409c-.596.255.041.498 0 0zM30 13.593c-4.137-.14-8.701.905-12.336 1.645-1.797.366-4.461-.284-4.935 2.056-.09.777.465.909.411 1.645 2.854.28 6.699-.09 9.869-.822 3.023-.696 6.354-1.777 6.991-4.524z"/><path d="M16.431 25.929c1.114.608-.563 1.518-1.234 2.056-1.131.9-2.471 1.213-3.701 2.057-2.492-.111-5.65.443-6.991-.822.115-.667-.391-.708-.411-1.234.058-.765.271-1.373.822-1.645 2.566-.712 8.426.838 11.515-.412z"/></g></svg>