<?xml version="1.0" ?><svg height="512" id="svg2" version="1.1" width="512" xmlns="http://www.w3.org/2000/svg" xmlns:cc="http://creativecommons.org/ns#" xmlns:dc="http://purl.org/dc/elements/1.1/" xmlns:inkscape="http://www.inkscape.org/namespaces/inkscape" xmlns:rdf="http://www.w3.org/1999/02/22-rdf-syntax-ns#" xmlns:sodipodi="http://sodipodi.sourceforge.net/DTD/sodipodi-0.dtd" xmlns:svg="http://www.w3.org/2000/svg"><defs id="defs4"><clipPath clipPathUnits="userSpaceOnUse" id="clipPath3847"><rect height="401.85031" id="rect3849" ry="24.940269" style="fill:#005cc8;fill-opacity:1;stroke:none" width="405.50885" x="192.91168" y="341.59683"/></clipPath><clipPath clipPathUnits="userSpaceOnUse" id="clipPath4206"><rect height="342.67416" id="rect4208" ry="21.83189" style="fill:#005ad2;fill-opacity:1;stroke:none" width="342.67416" x="275.56522" y="396.76877"/></clipPath><clipPath clipPathUnits="userSpaceOnUse" id="clipPath3001"><rect height="363.35269" id="rect3003" rx="136.19997" ry="143.45973" style="fill:#800080;fill-opacity:1;stroke:none" width="344.96527" x="271.56891" y="376.09024"/></clipPath></defs><g id="layer1" transform="translate(0,-540.36218)"><rect height="506.55707" id="rect3851" rx="200" ry="200" style="fill:#db534b;fill-opacity:1;stroke:none" width="506.55707" x="3.1982057" y="544.98157"/><g clip-path="url(#clipPath3001)" id="g4145" style="opacity:0.48961247;fill:#000000;fill-opacity:0.05882353" transform="matrix(1.4684292,0,0,1.3850481,-395.58152,33.17362)"><g id="g4147" style="fill:#000000;fill-opacity:0.05882353;stroke:none"><path d="m 561.53848,561.01605 c 0,61.06995 -50.79847,110.57692 -113.46155,110.57692 l 707.10677,707.10683 c 62.6631,0 113.4616,-49.507 113.4616,-110.577 z" id="path4149" style="fill:#000000;fill-opacity:0.05882353"/><path d="m 448.07693,671.59297 c -31.86024,0 -60.65337,-12.79797 -81.26213,-33.40672 l 707.1068,707.10675 c 20.6087,20.6088 49.4019,33.4068 81.2621,33.4068 z" id="path4151" style="fill:#000000;fill-opacity:0.05882353"/><path d="m 366.8148,638.18625 c -19.92477,-19.92478 -32.19941,-47.15048 -32.19941,-77.1702 l 707.10681,707.10675 c 0,30.0197 12.2746,57.2455 32.1994,77.1702 z" id="path4153" style="fill:#000000;fill-opacity:0.05882353"/><path d="m 334.61539,561.01605 c 0,-61.06994 50.79847,-110.57692 113.46154,-110.57692 l 707.10677,707.10677 c -62.6631,0 -113.4615,49.507 -113.4615,110.5769 z" id="path4155" style="fill:#000000;fill-opacity:0.05882353"/><path d="m 448.07693,450.43913 c 31.86024,0 60.65338,12.79797 81.26214,33.40672 l 707.10673,707.10675 c -20.6087,-20.6087 -49.4018,-33.4067 -81.2621,-33.4067 z" id="path4157" style="fill:#000000;fill-opacity:0.05882353"/><path d="m 529.33907,483.84585 c 19.92477,19.92478 32.19941,47.15049 32.19941,77.1702 l 707.10682,707.10675 c 0,-30.0197 -12.2747,-57.2454 -32.1995,-77.1702 z" id="path4159" style="fill:#000000;fill-opacity:0.05882353"/></g><path d="m 561.53848,561.01605 c 0,61.06995 -50.79847,110.57692 -113.46155,110.57692 -62.66307,0 -113.46154,-49.50697 -113.46154,-110.57692 0,-61.06994 50.79847,-110.57692 113.46154,-110.57692 62.66308,0 113.46155,49.50698 113.46155,110.57692 z" id="path4111" style="fill:#000000;fill-opacity:0.05882353;stroke:none"/></g><path d="m 126.45878,662.80178 h 264.70977 a 33.088722,33.088722 0 0 1 33.08871,33.08872 v 198.5323 a 33.088722,33.088722 0 0 1 -33.08871,33.08875 H 126.45878 c -18.36423,0 -33.088718,-14.88991 -33.088718,-33.08875 V 695.8905 c 0,-18.36423 14.724488,-33.08872 33.088718,-33.08872 M 258.81367,778.6123 391.16855,695.8905 H 126.45878 l 132.35489,82.7218 M 126.45878,894.4228 H 391.16855 V 735.10064 L 258.81367,817.657 126.45878,735.10064 V 894.4228 z" id="path3864" style="fill:#ffffff"/></g></svg>