<svg height="512" width="512" xmlns="http://www.w3.org/2000/svg"><defs><clipPath clipPathUnits="userSpaceOnUse" id="a"><rect height="363.353" rx="136.2" ry="143.46" width="344.965" x="271.569" y="376.09" fill="purple"/></clipPath></defs><g transform="translate(0 -540.362)"><rect height="506.557" rx="200" ry="200" width="506.557" x="3.198" y="544.982" fill="#db534b"/><g clip-path="url(#a)" transform="matrix(1.46843 0 0 1.38505 -395.582 33.174)" opacity=".49" fill-opacity=".059"><path d="M561.538 561.016c0 61.07-50.798 110.577-113.461 110.577l707.107 707.107c62.663 0 113.461-49.507 113.461-110.577z"/><path d="M448.077 671.593c-31.86 0-60.653-12.798-81.262-33.407l707.107 707.107c20.608 20.609 49.402 33.407 81.262 33.407z"/><path d="M366.815 638.186c-19.925-19.925-32.2-47.15-32.2-77.17l707.107 707.107c0 30.02 12.275 57.245 32.2 77.17zM334.615 561.016c0-61.07 50.799-110.577 113.462-110.577l707.107 707.107c-62.663 0-113.462 49.507-113.462 110.577z"/><path d="M448.077 450.44c31.86 0 60.653 12.797 81.262 33.406l707.107 707.107c-20.609-20.61-49.402-33.407-81.262-33.407z"/><path d="M529.34 483.846c19.924 19.925 32.198 47.15 32.198 77.17l707.107 707.107c0-30.02-12.274-57.246-32.2-77.17z"/><path d="M561.538 561.016c0 61.07-50.798 110.577-113.461 110.577s-113.462-49.507-113.462-110.577 50.799-110.577 113.462-110.577c62.663 0 113.461 49.507 113.461 110.577z"/></g><path d="M126.459 662.802h264.71a33.089 33.089 0 0133.088 33.088v198.533a33.089 33.089 0 01-33.088 33.089h-264.71c-18.364 0-33.089-14.89-33.089-33.09V695.89a32.974 32.974 0 0133.089-33.088m132.355 115.81l132.355-82.721h-264.71l132.355 82.721m-132.355 115.81h264.71V735.102l-132.355 82.556-132.355-82.556v159.322z" fill="#fff"/></g></svg>