<svg viewBox="0 0 24 24" xmlns="http://www.w3.org/2000/svg"><path d="M12 0a12 12 0 1012 12A12 12 0 0012 0zm6.37 15.84a2 2 0 01-1.47.66h-.35a2 2 0 01-1.86-1.34l-.76-2.28-1.09 2.46a2 2 0 01-1.79 1.16 2 2 0 01-1.88-1.26L7 9.68A.5.5 0 017.5 9h2a.5.5 0 01.47.34l1.09 3.28 1.09-2.46a2 2 0 013.65.18l.89 2.66a3.28 3.28 0 00.31-1.5C16.74 8.07 14.87 6 12 6a6 6 0 00-6 6.65 6.11 6.11 0 003.28 4.66 5.61 5.61 0 004.07.53.49.49 0 01.43.09.5.5 0 01.19.39v2a.5.5 0 01-.41.49A9 9 0 0112 21a8.86 8.86 0 01-6.25-2.89A8.55 8.55 0 013 12a9 9 0 019-9c4.49 0 7.7 3.4 8 8.47a6.59 6.59 0 01-1.63 4.37z" fill="#303c42"/></svg>