<?xml version="1.0" ?><svg viewBox="0 0 24 24" xmlns="http://www.w3.org/2000/svg"><title/><g id="Workplace"><path d="M12,0A12,12,0,1,0,24,12,12,12,0,0,0,12,0Zm6.37,15.84a2,2,0,0,1-1.47.66h-.35a2,2,0,0,1-1.86-1.34l-.76-2.28-1.09,2.46a2,2,0,0,1-1.79,1.16,2,2,0,0,1-1.88-1.26L7,9.68A.5.5,0,0,1,7.5,9h2a.5.5,0,0,1,.47.34l1.09,3.28,1.09-2.46a2,2,0,0,1,3.65.18L16.69,13A3.28,3.28,0,0,0,17,11.5C16.74,8.07,14.87,6,12,6a6,6,0,0,0-6,6.65,6.11,6.11,0,0,0,3.28,4.66,5.61,5.61,0,0,0,4.07.53.49.49,0,0,1,.43.09.5.5,0,0,1,.19.39v2a.5.5,0,0,1-.41.49A9,9,0,0,1,12,21a8.86,8.86,0,0,1-6.25-2.89A8.55,8.55,0,0,1,3,12a9,9,0,0,1,9-9c4.49,0,7.7,3.4,8,8.47A6.59,6.59,0,0,1,18.37,15.84Z" style="fill:#303c42"/></g></svg>