<svg height="512" width="512" xmlns="http://www.w3.org/2000/svg"><path d="M372.531 145.781v.031c-44.14.532-84.273 15.327-97.406 24.625l-.656.563-2.406 2.469v.062c-.012.013-.57.576-1.563 1.625-.01.011.01.02 0 .031-1.003 1.06-2.444 2.544-4.188 4.344-.01.007.011.024 0 .031a572.191 572.191 0 01-6.062 6.157 433.42 433.42 0 01-7.125 7 226.899 226.899 0 01-3.875 3.625 383.89 383.89 0 01-8.125 7.218c-.006.005-.025-.005-.031 0a578.856 578.856 0 01-9.844 8.313c-1.503 1.244-2.406 2-2.406 2-3.876 2.908-7.282 6.118-10.125 9.562a48.57 48.57 0 00-3.125 4.25 42.588 42.588 0 00-3.625 6.72c-1.973 4.633-3.027 9.537-3.031 14.593 0 1.698.113 3.39.375 5.062.025.166.096.335.125.5.218 1.282.482 2.553.843 3.813.064.22.12.437.188.656.088.288.217.59.312.875.177.528.3 1.04.5 1.563.005.013.058.018.063.031a42.477 42.477 0 002.156 4.75c.004.008-.004.023 0 .031.412.771.852 1.526 1.313 2.281a51.772 51.772 0 003.062 4.5c.009.013.022.02.031.032.55.715 1.128 1.398 1.719 2.093.01.012.021.02.031.032a59.023 59.023 0 001.844 2.062c.005.006-.005.025 0 .031.637.68 1.295 1.313 1.969 1.97.01.01.02.05.031.062a66.257 66.257 0 004.281 3.812c.75.611 1.502 1.167 2.281 1.75 0 0 1.312.963 3.47 2.563 5.392 4 16.182 12.114 25.655 19.75a368.813 368.813 0 015.438 4.468c5.21 4.365 10.772 9.342 15.688 13.844a833.022 833.022 0 0114.625 13.719c5.868 5.525 11.064 12.015 15.468 19.344v.031c.876 1.458 1.722 2.98 2.531 4.5.408.764.83 1.502 1.22 2.281v.031a105.29 105.29 0 013.25 7.188v.031c2.349 5.74 4.26 11.83 5.656 18.156.4 1.811.778 3.618 1.093 5.47.473 2.776.849 5.609 1.125 8.468.185 1.906.344 3.843.438 5.781.046.97.07 1.899.094 2.875v.031c.023.966.03 1.965.03 2.938 0 1.695-.024 3.358-.093 5.031v.031c0 .089-.028.193-.031.282-.136 3.088-.418 6.12-.781 9.125-.02.152-.013.316-.032.468v.032c-.03.232-.063.456-.094.687-.393 2.998-.889 5.977-1.5 8.875-.66 3.132-1.443 6.22-2.343 9.219-.899 3-1.907 5.93-3.031 8.781-2.816 7.126-6.297 13.74-10.375 19.75a92.928 92.928 0 01-5.188 6.906l-21.094 26.407V512H448c35.456 0 64-28.544 64-64V199.781l-.063-.062c-21.936-21.922-59.774-43.963-108.5-51.75-10.332-1.639-20.72-2.31-30.906-2.188z" fill="#0f8241"/><path d="M248.406 0c3.8 3.17 7.402 6.496 10.844 9.937.866.866 1.72 1.712 2.563 2.594 5.857 6.139 11.123 12.66 15.718 19.563v.031c1.964 2.95 3.822 5.95 5.531 9.031v.031c1.138 2.051 2.23 4.144 3.25 6.25a124.514 124.514 0 012.875 6.438c.131.315.247.622.375.937.754 1.858 1.464 3.73 2.125 5.625 0 .014.028.018.032.032a119.04 119.04 0 011.094 3.312v.031c.35 1.114.712 2.25 1.03 3.375v.032c.319 1.126.622 2.268.907 3.406.527 2.102.963 4.232 1.375 6.375.036.189.12.373.156.562.033.176.061.356.094.532.81 4.445 1.33 8.987 1.625 13.593 0 .078.058.141.063.22v.03c.148 2.424.218 4.878.218 7.344v.031c0 1.756-.044 3.497-.125 5.22v.03a111.386 111.386 0 01-.375 5.125c-.158 1.7-.362 3.365-.594 5.032v.031c-.23 1.655-.483 3.316-.78 4.937-.902 4.895-2.122 9.643-3.563 14.22-.96 3.051-2.03 6.031-3.188 8.937a136.349 136.349 0 01-3.719 8.468 147.364 147.364 0 01-4.125 8.032v.031c-2.166 3.89-4.487 7.624-6.843 11.156l.156-.062c16.137-11.446 73.205-31.24 128.313-22.469 48.727 7.757 86.563 29.818 108.5 51.75l.062.062V64c0-35.456-28.544-64-64-64H334.406v.094h-84.875L248.406 0z" fill="#ea1d25"/><path d="M92.186 0c-39 21.642-44.877 73.024-31.8 120.742a192.165 192.165 0 008.55 24.53c.042.099.09.196.132.295a179.64 179.64 0 001.94 4.34 171.06 171.06 0 006.807 13.285c.6 1.052 1.19 2.062 1.809 3.09.364.607.715 1.211 1.085 1.81.515.83 1.052 1.65 1.579 2.465.321.498.66.989.986 1.48.716 1.08 1.435 2.173 2.17 3.222.024.033.044.067.067.099a140.117 140.117 0 002.696 3.683c.925 1.23 1.876 2.437 2.828 3.617a125.55 125.55 0 005.854 6.773c.79.849 1.595 1.685 2.4 2.5l.658.657c.894.89 1.786 1.75 2.697 2.598.079.073.15.157.23.23.206.19.417.37.625.559.77.7 1.554 1.37 2.335 2.038.134.116.259.247.394.362.107.09.223.174.33.263.03.026.067.04.098.066a99.17 99.17 0 002.828 2.302c.91.708 1.806 1.405 2.73 2.071.148.107.312.19.46.296.147.105.28.225.428.329.347.244.703.485 1.052.723.413.282.834.55 1.25.822.232.153.458.31.69.46.392.253.79.48 1.184.724.263.163.525.333.79.493.49.298.984.602 1.48.888.827.478 1.662.937 2.498 1.381.67.355 1.333.686 2.006 1.02.383.189.767.376 1.151.558.349.165.703.335 1.053.494.47.214.941.421 1.414.624.218.094.439.172.658.263 1.184.496 2.353.989 3.551 1.414.043.016.088.018.132.033a68.508 68.508 0 001.644.56c.226.073.464.125.69.196.697.219 1.372.431 2.072.625s1.4.39 2.105.56a62.329 62.329 0 008.55 1.446c.717.07 1.419.12 2.138.164.719.045 1.449.081 2.17.099a59.395 59.395 0 008.254-.362c.153-.017.308-.047.46-.065.73-.09 1.441-.18 2.171-.296.392-.063.792-.127 1.184-.198.344-.062.675-.129 1.02-.197.73-.145 1.438-.32 2.17-.493.195-.046.397-.084.592-.132a62.854 62.854 0 003.814-1.085c9.188-2.88 17.093-6.385 23.81-10.49.012-.007.02-.024.032-.032.747-.457 1.452-.91 2.17-1.38a76.282 76.282 0 006.084-4.407c.012-.01.021-.023.033-.033a66.654 66.654 0 008.485-8.187c.005-.006-.005-.027 0-.033a62.923 62.923 0 002.86-3.519c.006-.007-.004-.025 0-.032.322-.431.645-.878.954-1.316.126-.178.271-.346.395-.526.422-.61.818-1.219 1.217-1.841.005-.007-.005-.025 0-.033.398-.622.809-1.24 1.184-1.874.005-.008-.005-.025 0-.033.212-.36.42-.722.624-1.085.163-.288.336-.565.494-.855a65.311 65.311 0 002.86-6.017c.006-.013.028-.02.034-.033a69.21 69.21 0 001.578-4.176c.003-.01-.003-.023 0-.033a73.85 73.85 0 001.348-4.307c.003-.01-.003-.023 0-.033a80.855 80.855 0 001.546-6.708c.002-.01-.002-.022 0-.033a91.969 91.969 0 001.02-7.004c.17-1.59.296-3.204.394-4.833.147-2.444.203-4.938.197-7.464a144.494 144.494 0 00-.394-10.292v-.033c-.39-5.249-1.054-10.651-1.94-16.178-.003-.01.001-.022 0-.033-.592-3.681-1.29-7.42-2.072-11.212-.002-.01.002-.023 0-.033a329.961 329.961 0 00-2.598-11.542 429.865 429.865 0 00-3.091-11.837c-.235-.852-.47-1.715-.724-2.565-.254-.85-.517-1.684-.79-2.532-.271-.847-.564-1.688-.854-2.531-.166-.481-.322-.968-.493-1.447-.13-.362-.263-.725-.395-1.085-.232-.633-.482-1.278-.724-1.907-.079-.207-.15-.42-.23-.625-.086-.223-.175-.436-.263-.658a142.643 142.643 0 00-6.05-13.284 150.254 150.254 0 00-1.645-3.09c-.12-.22-.24-.44-.362-.659a150.372 150.372 0 00-2.302-3.978c-.911-1.53-1.87-3.019-2.828-4.505a150.475 150.475 0 00-2.335-3.518c-.2-.293-.389-.597-.592-.888-.162-.234-.33-.458-.493-.69a147.831 147.831 0 00-2.565-3.552c-.735-.98-1.484-1.94-2.236-2.893-.317-.401-.634-.788-.954-1.184a138.887 138.887 0 00-2.894-3.486c-.121-.14-.24-.287-.362-.427-.545-.627-1.092-1.23-1.644-1.842-.572-.633-1.131-1.258-1.71-1.874-.096-.102-.2-.194-.296-.296-.14-.147-.288-.28-.427-.427-.537-.563-1.07-1.13-1.612-1.677-.371-.376-.744-.75-1.118-1.118-.32-.315-.632-.611-.953-.92a114.79 114.79 0 00-2.533-2.368c-.098-.09-.197-.174-.296-.263a108.384 108.384 0 00-3.19-2.762c-.023-.02-.041-.046-.065-.066-3.602-2.992-7.257-5.624-10.918-7.826h-71.23zM.009 171.971v187.984h.066c.057-.018.21-.09.394-.197.033-.019.06-.042.1-.066.04-.025.15-.102.197-.131.298-.19.713-.46 1.282-.855.856-.586 1.754-1.174 2.63-1.743.014-.008.02-.025.034-.033 1.78-1.153 3.599-2.27 5.459-3.354a153.067 153.067 0 018.583-4.636 180.687 180.687 0 019.043-4.209c2.047-.886 4.124-1.74 6.216-2.564a230.248 230.248 0 019.536-3.519 267.47 267.47 0 0112.957-4.077 303.123 303.123 0 016.544-1.809 337.03 337.03 0 0113.056-3.156c4.324-.96 8.61-1.846 12.825-2.63a421.812 421.812 0 0112.398-2.105c4.022-.626 7.936-1.19 11.707-1.677.234-.03.457-.036.69-.066 5.24-.668 10.19-1.238 14.766-1.677 1.792-.172 3.56-.318 5.229-.46 6.118-.52 11.354-.846 15.456-1.052 2.05-.104 3.822-.18 5.261-.23 2.879-.103 4.473-.132 4.473-.132s.04-.086.066-.197v-.033c.017-.138-.01-.321-.197-.526a103.086 103.086 0 01-1.974-1.94c-.63-.631-1.243-1.243-1.841-1.875-.01-.006.01-.027 0-.032-4.214-4.453-7.65-8.91-10.392-13.318-.01-.008.01-.024 0-.032-5.874-9.451-8.66-18.656-9.602-27.062v-.033a62.114 62.114 0 01-.296-3.288v-.033a63.323 63.323 0 01.164-9.338v-.033a65.28 65.28 0 01.329-2.86v-.033c.127-.933.3-1.84.46-2.73v-.032c.16-.89.34-1.754.527-2.598v-.033c2.453-11.091 6.938-18.118 6.938-18.118s-.023-.056-.033-.098v-.033c-.02-.06-.098-.123-.164-.197-.01-.005.01-.028 0-.033a.511.511 0 00-.132-.099 1.116 1.116 0 00-.526-.131 2.74 2.74 0 00-.427.033 190.865 190.865 0 01-13.122 1.545c-.36.03-.726.071-1.085.099-.033.002-.066-.002-.099 0-.288.022-.567.045-.855.065-2.455.176-4.862.292-7.235.362-.371.011-.748.025-1.118.033a162.98 162.98 0 01-8.254-.033c-1.493-.041-2.981-.082-4.44-.164-.762-.043-1.515-.11-2.268-.165-.614-.043-1.235-.08-1.842-.131-2.576-.216-5.1-.486-7.564-.822-2.565-.35-5.053-.779-7.498-1.25-.132-.025-.262-.04-.394-.066-2.297-.449-4.55-.965-6.742-1.512-.153-.038-.307-.06-.46-.099-.701-.177-1.381-.372-2.072-.559-.415-.112-.838-.213-1.25-.328a128.032 128.032 0 01-3.025-.888c-.153-.047-.308-.084-.46-.132-.533-.166-1.053-.354-1.579-.526-.57-.186-1.147-.367-1.71-.559a128.7 128.7 0 01-2.696-.953c-.144-.053-.285-.112-.428-.165-.21-.078-.415-.151-.625-.23-.768-.29-1.549-.587-2.302-.888-.555-.222-1.097-.462-1.644-.69-.474-.198-.946-.39-1.414-.592-.886-.382-1.767-.788-2.63-1.184-.85-.39-1.673-.782-2.5-1.184-.297-.144-.594-.281-.888-.427-.749-.371-1.505-.737-2.236-1.118-.144-.075-.284-.155-.428-.23-.766-.403-1.522-.804-2.269-1.217-.186-.103-.374-.192-.559-.296-.601-.337-1.187-.677-1.776-1.02-.166-.096-.328-.198-.493-.295-.242-.142-.484-.284-.723-.428a123.59 123.59 0 01-2.138-1.315c-.638-.398-1.253-.78-1.874-1.184-.067-.043-.131-.088-.198-.131-.387-.253-.77-.502-1.15-.756-.509-.34-1.016-.677-1.513-1.02-.605-.417-1.187-.86-1.776-1.282-.619-.443-1.24-.868-1.842-1.315-.283-.211-.576-.413-.855-.625-.572-.434-1.121-.879-1.677-1.315-.188-.148-.373-.28-.56-.428-.493-.392-.965-.79-1.446-1.184-.012-.009-.021-.023-.033-.032-.676-.554-1.322-1.121-1.973-1.677a126.446 126.446 0 01-3.75-3.321 126.262 126.262 0 01-2.926-2.795c-.242-.239-.486-.486-.723-.724-.638-.64-1.236-1.273-1.842-1.907-.438-.458-.894-.927-1.315-1.38-.836-.9-1.63-1.785-2.401-2.664-.122-.14-.241-.289-.362-.428-.624-.718-1.227-1.405-1.808-2.104-.298-.359-.602-.732-.888-1.085a122.028 122.028 0 01-2.335-2.96c-.387-.507-.756-.989-1.118-1.48-.375-.507-.737-1.024-1.085-1.512a111.57 111.57 0 01-1.086-1.545c-.172-.25-.36-.513-.526-.757-.54-.795-1.05-1.55-1.513-2.268-.114-.179-.218-.32-.328-.494-.369-.58-.67-1.09-.987-1.61-.095-.157-.173-.278-.263-.428-.192-.32-.355-.595-.526-.888-.116-.198-.222-.406-.33-.592a74.205 74.205 0 01-1.413-2.532c-.07-.134-.075-.12-.132-.23-.295-.574-.427-.888-.427-.888z" fill="#2f66b0"/><path d="M168.906 341.031c-1.47-.005-2.99.002-4.531.031-.066.001-.122 0-.188 0-.247.005-.532.026-.78.032-.486.011-.947.016-1.438.031-.91.028-1.788.054-2.719.094-1.532.065-3.102.12-4.688.218l-.468.032c-1.747.11-3.507.255-5.313.406-1.806.15-3.673.34-5.531.531-1.52.157-3.041.285-4.594.469-.344.04-.685.114-1.031.156a320.74 320.74 0 00-5.188.688c-.35.048-.711.075-1.062.125-1.801.255-3.576.522-5.406.812-4.201.67-8.33 1.426-12.313 2.219-2.656.529-5.241 1.05-7.781 1.625-3.808.863-7.5 1.8-11 2.75-3.502.951-6.83 1.921-9.969 2.937a161.629 161.629 0 00-8.812 3.125 115.48 115.48 0 00-5.125 2.157l-.813.343c-.723.278-1.443.582-2.156.875-.655.27-1.322.53-1.969.813-.058.025-.098.068-.156.094-.821.362-1.63.741-2.438 1.125-.705.335-1.399.68-2.093 1.031a93.246 93.246 0 00-3.157 1.656c-.388.216-.77.436-1.156.656-.592.34-1.198.68-1.781 1.032-.58.35-1.148.733-1.719 1.093a91.065 91.065 0 00-2.906 1.907 90.314 90.314 0 00-3.031 2.156c-.044.033-.082.06-.125.094-.382.287-.749.613-1.125.906-.878.684-1.745 1.35-2.594 2.062a87.62 87.62 0 00-7.75 7.375c-.122.132-.254.244-.375.375-.498.541-.986 1.104-1.469 1.657-.286.327-.594.638-.875.968-.11.131-.203.276-.312.407-.372.444-.763.892-1.125 1.343-.015.02-.017.044-.032.063a83.826 83.826 0 00-2.562 3.375 81.8 81.8 0 00-2.375 3.469 81.603 81.603 0 00-3.219 5.468 77.989 77.989 0 00-2.781 5.657c-4.202 9.536-6.531 19.947-6.531 30.843 0 32.86 21.075 62.19 51.593 75.625.309.004.629.032.938.032-.303 0-.604.004-.906 0-.013-.006-.018-.026-.031-.032a67.5 67.5 0 01-6.688-.437c.16.16.315.337.469.5h177.125c.005-.004-.005-.026 0-.031.007-.006.023.006.031 0 .026-.022.04-.043.063-.063 8.607-7.614 15.591-15.067 21.03-22.312.006-.007-.004-.024 0-.032 10.098-13.455 15.018-26.283 15.907-38.562v-.031c.067-.935.104-1.854.125-2.782v-.03c.04-1.823-.022-3.64-.156-5.438v-.157c-.01-.077-.025-.172-.031-.25a57.394 57.394 0 00-.657-5.25 62.044 62.044 0 00-1.219-5.468 65.822 65.822 0 00-1.687-5.344 73.58 73.58 0 00-2.156-5.313c-1.588-3.496-3.485-6.94-5.625-10.343v-.032c-.21-.332-.442-.667-.656-1a107.163 107.163 0 00-2.782-4.062c-2.4-3.366-5.018-6.69-7.875-9.969a162.181 162.181 0 00-4.437-4.906c-6.882-7.275-14.759-14.317-23.25-21.188-.006-.005-.025.005-.031 0-1.883-1.522-3.78-3.09-5.72-4.593-.005-.005-.024.005-.03 0-5.831-4.522-11.897-8.95-18.094-13.313-.007-.005-.024.005-.031 0a763.384 763.384 0 00-12.532-8.656c-.144-.097-.314-.17-.469-.25-.008-.004-.022.004-.03 0a6.025 6.025 0 00-.47-.219c-.01-.004-.02.004-.03 0-.082-.032-.14-.033-.22-.062-.565-.196-1.095-.357-1.406-.407-.18-.028-.312-.03-.312-.03l-.188-.063a112.868 112.868 0 00-7.031-.594c-1.252-.07-2.55-.119-3.875-.156-1.326-.038-2.7-.058-4.094-.063zM0 405.47v43.062c.018.014.045.018.063.031V405.47H0z" fill="#efb61c"/><path d="M64 0C28.544 0 0 28.544 0 64V171.97s.142.3.438.875c.056.111.054.116.124.25a71.55 71.55 0 001.407 2.531c.107.186.227.396.343.594.172.293.34.556.532.875.09.15.155.282.25.437.317.521.631 1.014 1 1.594.11.174.198.322.312.5.462.72.992 1.486 1.532 2.281.165.244.327.5.5.75.353.513.709.994 1.093 1.532.35.488.719 1.023 1.094 1.531.362.49.738.961 1.125 1.469.213.279.436.591.656.875.54.695 1.071 1.373 1.656 2.093.287.353.609.736.907 1.094.581.7 1.188 1.376 1.812 2.094.121.139.222.298.344.437.77.88 1.571 1.757 2.406 2.657.422.454.875.917 1.313 1.375.606.633 1.205 1.266 1.843 1.906.238.238.478.48.72.719.943.931 1.924 1.875 2.937 2.812 1.199 1.11 2.452 2.204 3.75 3.313.65.556 1.293 1.133 1.968 1.687.012.01.02.023.032.031.481.395.943.795 1.437 1.188.186.148.375.259.563.406.556.437 1.115.88 1.687 1.313.28.211.56.414.844.625.6.447 1.225.869 1.844 1.312.589.422 1.176.864 1.78 1.281.498.344.993.692 1.5 1.032.382.254.77.497 1.157.75.067.043.152.081.219.125.622.404 1.237.789 1.875 1.187.704.44 1.402.88 2.125 1.313.24.143.477.295.719.437.165.097.334.216.5.313.588.342 1.18.663 1.78 1l.563.312c.747.413 1.484.816 2.25 1.219.144.075.294.144.438.219.731.38 1.47.753 2.219 1.125.294.145.61.262.906.406.827.402 1.652.798 2.5 1.187.864.397 1.739.806 2.625 1.188.468.202.932.396 1.406.594.547.228 1.1.465 1.656.687.753.301 1.544.616 2.313.906.21.08.414.141.625.22.143.052.263.103.406.155.883.324 1.785.66 2.688.97.563.192 1.148.376 1.718.562.527.171 1.061.365 1.594.53.153.048.285.079.438.126 1.003.309 2.004.586 3.031.875.412.116.834.231 1.25.344.69.187 1.392.385 2.094.562.153.039.284.056.437.094a135 135 0 006.75 1.5c.132.026.274.037.406.062 2.445.471 4.936.9 7.5 1.25 2.464.337 4.987.597 7.563.813.607.05 1.23.112 1.844.156.753.054 1.487.113 2.25.156 1.458.082 2.944.115 4.437.157 2.69.074 5.445.095 8.25.03.37-.007.754-.02 1.125-.03 2.373-.07 4.795-.169 7.25-.344.287-.02.555-.04.844-.063.033-.002.06.002.094 0 .358-.027.733-.095 1.093-.125a190.73 190.73 0 0013.125-1.53c.155-.022.287-.036.407-.032.239.008.407.056.53.125a.464.464 0 01.126.094c.01.005-.01.026 0 .03.066.075.167.16.187.22v.03c.01.043.032.094.032.094s-4.484 7.034-6.938 18.125v.032a66.604 66.604 0 00-.531 2.593v.032c-.16.89-.342 1.786-.469 2.718v.032a66.19 66.19 0 00-.312 2.875v.03c-.268 2.946-.375 6.081-.188 9.345v.03c.063 1.082.189 2.171.313 3.282v.031c.942 8.406 3.72 17.612 9.593 27.063.01.008-.01.023 0 .03 2.742 4.41 6.193 8.86 10.407 13.313.01.006-.01.026 0 .032.598.631 1.213 1.243 1.843 1.875.642.642 1.293 1.295 1.97 1.937.186.205.204.394.187.531v.032a1.01 1.01 0 01-.063.187s-1.59.053-4.469.156c-1.439.052-3.23.116-5.28.219-4.103.207-9.32.542-15.438 1.063-1.67.142-3.427.265-5.22.437-4.574.44-9.54 1.02-14.78 1.688-.233.03-.454.032-.688.062-3.77.486-7.697 1.062-11.719 1.688-4.033.627-8.16 1.309-12.375 2.093-4.214.785-8.52 1.665-12.843 2.625-4.324.96-8.702 2.004-13.063 3.157a302.11 302.11 0 00-6.531 1.812 268.102 268.102 0 00-12.969 4.094 229.773 229.773 0 00-9.531 3.5 204.713 204.713 0 00-6.219 2.562 180.357 180.357 0 00-9.031 4.219 153.26 153.26 0 00-8.594 4.625c-1.86 1.084-3.658 2.221-5.437 3.375-.013.008-.019.023-.032.031-.876.57-1.8 1.164-2.656 1.75-.568.395-.982.654-1.281.844-.047.03-.147.1-.188.125-.039.023-.06.043-.093.062-.184.107-.35.201-.407.22-.004 0-.03-.002-.03 0H0v45.5h.063v43.093c-.018-.014-.045-.017-.063-.031.003.313.024.625.031.937.017.738.022 1.487.063 2.219.054.966.122 1.921.219 2.875.007.073.023.146.03.219a64.86 64.86 0 00.376 3 63.83 63.83 0 00.562 3.062c.132.65.287 1.295.438 1.938.08.34.133.692.218 1.031.019.073.044.145.063.219.23.902.481 1.801.75 2.687.038.125.086.25.125.375.303.979.62 1.95.969 2.906.093.256.216.496.312.75.221.584.42 1.175.656 1.75.296.718.617 1.422.938 2.125.085.187.163.377.25.563.343.734.693 1.47 1.062 2.187.088.17.193.331.282.5.34.646.67 1.275 1.031 1.907.133.232.27.457.406.687.46.78.947 1.554 1.438 2.313.33.51.655 1.03 1 1.531.474.69.968 1.36 1.468 2.031.432.577.863 1.157 1.313 1.719a63.92 63.92 0 003.438 3.906c.659.697 1.31 1.396 2 2.063.02.02.04.042.062.062.69.666 1.405 1.303 2.125 1.938.703.62 1.426 1.255 2.156 1.843.099.08.214.14.313.22.693.55 1.377 1.101 2.093 1.624a63.956 63.956 0 0021.282 10.125c1.945.514 3.923.95 5.937 1.281 2.015.332 4.082.547 6.156.688-.1-.109-.208-.209-.312-.313 2.2.25 4.427.407 6.687.438-30.518-13.435-51.593-42.766-51.593-75.625 0-10.897 2.33-21.308 6.531-30.844a79.45 79.45 0 012.781-5.656c1-1.851 2.076-3.698 3.219-5.469a81.809 81.809 0 012.375-3.469 83.847 83.847 0 012.562-3.375c.015-.018.017-.043.032-.062.362-.452.753-.9 1.125-1.344.11-.13.202-.276.312-.406.28-.331.59-.642.875-.969.483-.552.971-1.115 1.469-1.656.121-.132.253-.244.375-.375a87.619 87.619 0 017.75-7.375c.848-.713 1.716-1.379 2.594-2.063.376-.293.743-.618 1.125-.906l.125-.093a90.3 90.3 0 013.03-2.157 91.065 91.065 0 012.907-1.906c.57-.36 1.14-.744 1.719-1.094.582-.35 1.19-.692 1.781-1.031.385-.22.768-.44 1.156-.656a93.228 93.228 0 013.157-1.656 93.936 93.936 0 012.093-1.032 94.719 94.719 0 012.438-1.125c.058-.025.098-.068.156-.093.647-.284 1.314-.543 1.969-.813.713-.294 1.433-.598 2.156-.875l.813-.344a115.492 115.492 0 015.125-2.156 161.646 161.646 0 018.812-3.125c3.139-1.016 6.467-1.986 9.969-2.937 3.5-.95 7.191-1.888 11-2.75 2.54-.576 5.125-1.097 7.781-1.625 3.984-.793 8.112-1.55 12.313-2.22 1.83-.29 3.605-.556 5.406-.812.35-.05.713-.076 1.062-.125 1.746-.241 3.475-.479 5.188-.687.346-.042.687-.116 1.031-.156 1.553-.184 3.073-.313 4.594-.47 1.858-.19 3.725-.38 5.531-.53 1.806-.151 3.565-.295 5.313-.407.157-.01.312-.022.468-.03 1.586-.1 3.156-.154 4.688-.22.93-.04 1.809-.066 2.719-.093.491-.015.952-.02 1.437-.032.249-.006.534-.026.781-.03.066-.002.122 0 .188 0a197.165 197.165 0 018.625.03c1.325.038 2.623.088 3.875.157 2.505.138 4.844.335 7.031.594l.188.062s.133.003.312.031c.31.05.841.21 1.406.407.08.028.138.03.22.062.01.004.02-.004.03 0 .157.064.315.14.47.219.008.004.022-.004.03 0 .154.08.325.153.47.25a763.446 763.446 0 0112.53 8.656c.007.005.025-.005.032 0 6.197 4.362 12.263 8.79 18.093 13.313.007.005.026-.005.031 0 1.94 1.503 3.837 3.07 5.72 4.593.006.005.025-.005.03 0 8.492 6.87 16.369 13.913 23.25 21.188 1.53 1.618 3.01 3.267 4.438 4.906a130.282 130.282 0 017.875 9.969 107.227 107.227 0 012.781 4.062c.215.332.447.667.656 1v.032c2.14 3.403 4.038 6.846 5.625 10.343a73.574 73.574 0 012.157 5.313 65.828 65.828 0 011.687 5.344c.486 1.8.9 3.642 1.219 5.468.305 1.75.512 3.477.656 5.25.006.077.021.173.031.25v.157a56.53 56.53 0 01.157 5.437v.031c-.021.928-.058 1.847-.125 2.782v.03c-.89 12.28-5.81 25.108-15.907 38.563-.005.01.005.025 0 .032-5.44 7.245-12.423 14.697-21.03 22.312-.024.02-.038.042-.063.063-.007.01-.025-.01-.032 0-.005 0 .005.027 0 .03h44.438v-.03l21.094-26.407a92.923 92.923 0 005.187-6.906c4.078-6.01 7.56-12.624 10.375-19.75a109.624 109.624 0 003.031-8.781c.9-3 1.684-6.087 2.344-9.219a117.31 117.31 0 001.5-8.875c.03-.231.064-.456.094-.687v-.032c.019-.152.012-.316.031-.468.364-3.005.646-6.037.781-9.125.003-.088.032-.193.032-.282v-.031c.069-1.674.093-3.336.093-5.031 0-.973-.008-1.972-.031-2.938v-.031c-.024-.977-.047-1.906-.094-2.875a120.444 120.444 0 00-.437-5.781c-.277-2.86-.652-5.692-1.125-8.469a114.73 114.73 0 00-1.094-5.469 111.312 111.312 0 00-5.656-18.156v-.031a105.29 105.29 0 00-3.25-7.188v-.03c-.39-.78-.812-1.518-1.219-2.282-.81-1.52-1.655-3.042-2.531-4.5v-.031c-4.404-7.329-9.6-13.82-15.469-19.344 0 0-6.432-6.216-14.625-13.719-4.916-4.502-10.478-9.479-15.687-13.844a368.813 368.813 0 00-5.438-4.468c-9.474-7.636-20.263-15.75-25.656-19.75-2.157-1.6-3.469-2.563-3.469-2.563-.78-.583-1.532-1.139-2.281-1.75a66.257 66.257 0 01-4.281-3.812c-.011-.011-.02-.052-.032-.063-.674-.657-1.332-1.289-1.968-1.969-.005-.006.005-.025 0-.03a59.023 59.023 0 01-1.844-2.063c-.01-.012-.02-.02-.031-.031a55.041 55.041 0 01-1.72-2.094c-.008-.012-.021-.02-.03-.031a51.772 51.772 0 01-3.063-4.5c-.46-.756-.9-1.51-1.312-2.282-.004-.009.004-.023 0-.03a42.477 42.477 0 01-2.157-4.75c-.005-.014-.057-.02-.062-.032-.2-.523-.324-1.035-.5-1.563-.095-.286-.224-.587-.313-.875-.067-.219-.124-.436-.187-.656a35.307 35.307 0 01-.844-3.812c-.028-.165-.1-.335-.125-.5a32.785 32.785 0 01-.375-5.063c.005-5.055 1.059-9.96 3.031-14.594a42.588 42.588 0 013.625-6.718 48.57 48.57 0 013.125-4.25c2.844-3.445 6.25-6.655 10.125-9.563 0 0 .903-.756 2.407-2 2.253-1.86 5.874-4.88 9.843-8.312.006-.005.026.005.032 0a383.89 383.89 0 008.125-7.22 226.899 226.899 0 003.875-3.624 433.42 433.42 0 007.125-7 572.191 572.191 0 006.062-6.156c.01-.007-.01-.025 0-.032 1.743-1.8 3.185-3.284 4.188-4.343.01-.011-.01-.02 0-.031.992-1.05 1.55-1.613 1.562-1.625v-.063l2.406-2.469.594-.5-.094.031c2.357-3.532 4.677-7.265 6.844-11.156v-.031c1.447-2.6 2.806-5.277 4.125-8.031a136.349 136.349 0 003.719-8.469 127.983 127.983 0 003.187-8.937c1.442-4.577 2.662-9.324 3.563-14.22.298-1.62.55-3.281.781-4.937v-.03c.232-1.667.435-3.332.594-5.032.159-1.7.293-3.392.375-5.125v-.031c.081-1.723.124-3.464.125-5.22v-.03c0-2.466-.07-4.92-.219-7.344v-.031c-.004-.078-.062-.141-.062-.219-.295-4.607-.815-9.149-1.625-13.594-.033-.176-.061-.356-.094-.531-.036-.189-.12-.374-.156-.563-.412-2.142-.848-4.272-1.375-6.375-.285-1.137-.588-2.28-.906-3.406v-.031c-.319-1.126-.68-2.262-1.032-3.375v-.031c-.35-1.11-.711-2.215-1.093-3.313-.004-.013-.032-.018-.032-.03a120.38 120.38 0 00-2.125-5.626c-.128-.316-.244-.623-.375-.937a124.51 124.51 0 00-2.875-6.438c-1.02-2.106-2.112-4.199-3.25-6.25v-.031c-1.71-3.08-3.567-6.08-5.53-9.031v-.032c-4.596-6.902-9.862-13.424-15.72-19.562-.842-.883-1.696-1.728-2.562-2.594A163.033 163.033 0 00248.406.001h-85c3.661 2.202 7.336 4.82 10.938 7.812.023.02.038.074.062.094 1.066.887 2.134 1.801 3.188 2.75.098.089.182.16.28.25.854.774 1.689 1.562 2.532 2.375.321.31.65.623.969.937.374.369.722.719 1.094 1.094.542.548 1.088 1.125 1.625 1.688.14.146.298.29.437.437.096.102.185.179.281.281.579.617 1.147 1.242 1.72 1.875.551.612 1.11 1.217 1.655 1.844.122.14.223.297.344.438.982 1.137 1.95 2.283 2.906 3.468.32.396.62.787.938 1.188a145.86 145.86 0 012.25 2.906 146.524 146.524 0 012.562 3.531c.164.233.338.454.5.688.203.291.393.613.594.906a148.584 148.584 0 012.313 3.5c.958 1.486 1.932 3.003 2.843 4.531a149.177 149.177 0 012.282 3.97c.121.218.254.435.375.655a150.95 150.95 0 011.656 3.094c.288.556.562 1.128.844 1.688a142.289 142.289 0 015.187 11.593c.088.222.195.434.281.657.08.206.14.418.22.625.24.63.486 1.273.718 1.906.132.36.277.732.406 1.094.171.479.335.957.5 1.437.29.844.572 1.684.844 2.531.272.848.527 1.68.781 2.532.253.849.485 1.71.719 2.562a430.377 430.377 0 013.094 11.844c.95 3.902 1.81 7.729 2.593 11.531.002.01-.002.02 0 .031.782 3.792 1.503 7.537 2.094 11.22.002.01-.002.02 0 .03.887 5.527 1.547 10.94 1.938 16.188v.031c.258 3.494.367 6.923.375 10.281.006 2.527-.04 5.025-.188 7.469-.098 1.63-.205 3.253-.375 4.844a91.86 91.86 0 01-1.031 7c-.002.01.002.02 0 .031a81.152 81.152 0 01-1.563 6.719c-.003.01.003.02 0 .03a73.98 73.98 0 01-1.343 4.313c-.003.01.003.022 0 .032a68.48 68.48 0 01-1.563 4.156c-.005.013-.026.018-.031.031a65.673 65.673 0 01-2.875 6.031c-.158.29-.338.556-.5.844-.205.363-.413.734-.625 1.094-.005.008.005.023 0 .031a62.181 62.181 0 01-1.156 1.875c-.005.008.005.024 0 .031a61.859 61.859 0 01-1.22 1.844c-.123.18-.28.353-.405.531-.31.438-.647.882-.97 1.313-.004.007.006.024 0 .03a62.222 62.222 0 01-2.843 3.5c-.005.007.005.026 0 .032a66.802 66.802 0 01-8.5 8.188c-.012.01-.02.052-.031.062-1.894 1.53-3.92 3-6.063 4.406-.718.472-1.44.918-2.187 1.375-.013.008-.018.024-.031.032-6.717 4.104-14.626 7.588-23.813 10.468-.733.23-1.455.455-2.187.657-.537.147-1.089.305-1.625.437-.196.048-.399.079-.594.125-.732.173-1.425.355-2.156.5-.345.068-.687.125-1.032.188-.391.07-.796.156-1.187.218-.73.117-1.428.192-2.156.282-.153.018-.316.044-.469.062a59.354 59.354 0 01-10.406.281c-.72-.044-1.44-.086-2.157-.156-2.865-.28-5.715-.789-8.53-1.469a66.097 66.097 0 01-2.126-.562c-.7-.194-1.366-.407-2.062-.625-.227-.071-.461-.114-.688-.188-.3-.097-.606-.179-.906-.28-.252-.086-.499-.193-.75-.282-.044-.015-.082-.016-.125-.031-1.198-.426-2.378-.912-3.563-1.407-.218-.091-.438-.187-.656-.28a72.702 72.702 0 01-1.406-.626c-.35-.159-.714-.304-1.063-.469-.384-.182-.742-.373-1.125-.562a78.482 78.482 0 01-4.53-2.406 81.67 81.67 0 01-1.47-.875c-.264-.16-.518-.337-.78-.5-.395-.245-.797-.467-1.188-.72-.233-.149-.456-.315-.688-.468-.415-.273-.837-.53-1.25-.812-.349-.238-.715-.506-1.062-.75-.148-.104-.29-.208-.438-.313l-.437-.312a94.2 94.2 0 01-2.75-2.063c-.951-.74-1.877-1.528-2.813-2.312-.03-.026-.064-.037-.093-.063-.107-.09-.238-.16-.344-.25-.135-.114-.272-.26-.406-.375-.781-.669-1.544-1.331-2.313-2.031-.207-.189-.418-.372-.625-.563-.08-.073-.171-.145-.25-.218-.91-.847-1.794-1.705-2.687-2.594a118.05 118.05 0 01-3.063-3.156c-2.006-2.152-3.94-4.422-5.844-6.782a136.14 136.14 0 01-2.843-3.625c-.911-1.21-1.805-2.43-2.688-3.687-.023-.032-.04-.062-.062-.094-.736-1.049-1.44-2.138-2.157-3.219-.326-.49-.678-.97-1-1.468a153.845 153.845 0 01-1.562-2.469c-.37-.598-.73-1.206-1.094-1.813a157.258 157.258 0 01-1.812-3.093A171.026 171.026 0 0171 149.906c-.66-1.434-1.31-2.877-1.937-4.343-.043-.1-.083-.182-.125-.282a192.216 192.216 0 01-8.563-24.53C47.299 73.032 53.187 21.641 92.188 0H64zm184.406 0l1.125.094h84.875V0h-86zM65.937 511.938c.013.01.019.025.032.031h.906c-.31 0-.63-.027-.938-.031z" fill="#fff"/></svg>