<?xml version="1.0" ?><svg enable-background="new 0 0 515.91 728.5" height="512" id="Layer_1" version="1.1" viewBox="0 0 512.00003 512" width="512" xml:space="preserve" xmlns="http://www.w3.org/2000/svg" xmlns:cc="http://creativecommons.org/ns#" xmlns:dc="http://purl.org/dc/elements/1.1/" xmlns:inkscape="http://www.inkscape.org/namespaces/inkscape" xmlns:rdf="http://www.w3.org/1999/02/22-rdf-syntax-ns#" xmlns:sodipodi="http://sodipodi.sourceforge.net/DTD/sodipodi-0.dtd" xmlns:svg="http://www.w3.org/2000/svg"><defs id="defs7"/><g id="g4510"><path d="M 372.53125 145.78125 L 372.53125 145.8125 C 328.39055 146.3436 288.25807 161.13899 275.125 170.4375 L 274.46875 171 L 272.0625 173.46875 L 272.0625 173.53125 C 272.0509 173.54375 271.49266 174.10739 270.5 175.15625 C 270.4895 175.16715 270.5105 175.1766 270.5 175.1875 C 269.49724 176.24675 268.05557 177.73065 266.3125 179.53125 C 266.302 179.53825 266.323 179.5555 266.3125 179.5625 C 264.56563 181.3669 262.4841 183.48137 260.25 185.71875 C 258.01026 187.96281 255.59925 190.35182 253.125 192.71875 C 251.89166 193.9033 250.5881 195.11783 249.25 196.34375 C 246.5738 198.79561 243.77636 201.26991 241.125 203.5625 C 241.119 203.5675 241.09975 203.5575 241.09375 203.5625 C 237.12446 206.99434 233.50291 210.01537 231.25 211.875 C 229.74655 213.11919 228.84375 213.875 228.84375 213.875 C 224.96826 216.78265 221.56249 219.99286 218.71875 223.4375 C 217.58178 224.81637 216.54735 226.2354 215.59375 227.6875 C 214.16335 229.86567 212.95736 232.08434 211.96875 234.40625 C 209.99581 239.04002 208.94207 243.94434 208.9375 249 C 208.9375 250.69762 209.05121 252.38956 209.3125 254.0625 C 209.3382 254.22784 209.4094 254.39746 209.4375 254.5625 C 209.65571 255.84354 209.9202 257.11521 210.28125 258.375 C 210.34465 258.59506 210.40125 258.81193 210.46875 259.03125 C 210.55695 259.31871 210.68592 259.62012 210.78125 259.90625 C 210.95756 260.43376 211.08119 260.94614 211.28125 261.46875 C 211.28625 261.48185 211.33885 261.487 211.34375 261.5 C 211.95821 263.10006 212.67515 264.70356 213.5 266.25 C 213.504 266.258 213.496 266.27265 213.5 266.28125 C 213.91191 267.05235 214.35172 267.80693 214.8125 268.5625 C 215.73634 270.07783 216.76864 271.61826 217.875 273.0625 C 217.884 273.0746 217.89705 273.08165 217.90625 273.09375 C 218.45612 273.80881 219.03375 274.49208 219.625 275.1875 C 219.6355 275.1994 219.64625 275.20695 219.65625 275.21875 C 220.24836 275.91405 220.86877 276.60705 221.5 277.28125 C 221.505 277.28725 221.495 277.3065 221.5 277.3125 C 222.13677 277.99209 222.79452 278.62456 223.46875 279.28125 C 223.47985 279.29205 223.489 279.33295 223.5 279.34375 C 224.85 280.65673 226.29537 281.94376 227.78125 283.15625 C 228.53022 283.76742 229.28253 284.32283 230.0625 284.90625 C 230.0625 284.90625 231.37415 285.86859 233.53125 287.46875 C 238.924 291.46917 249.71379 299.58293 259.1875 307.21875 C 261.08222 308.74591 262.88939 310.23317 264.625 311.6875 C 269.83445 316.05211 275.39655 321.02945 280.3125 325.53125 C 288.50573 333.03425 294.9375 339.25 294.9375 339.25 C 300.80645 344.77469 306.00204 351.26524 310.40625 358.59375 L 310.40625 358.625 C 311.282 360.08304 312.12774 361.60545 312.9375 363.125 C 313.34465 363.88895 313.76626 364.62737 314.15625 365.40625 L 314.15625 365.4375 C 315.32108 367.76587 316.40074 370.1707 317.40625 372.625 L 317.40625 372.65625 C 319.75599 378.39621 321.66606 384.48531 323.0625 390.8125 C 323.46217 392.62321 323.84065 394.42991 324.15625 396.28125 C 324.62948 399.05828 325.0048 401.89087 325.28125 404.75 C 325.46562 406.6561 325.6252 408.59281 325.71875 410.53125 C 325.76505 411.50047 325.7883 412.42956 325.8125 413.40625 C 325.81282 413.41715 325.81229 413.4266 325.8125 413.4375 C 325.8356 414.40341 325.84375 415.4022 325.84375 416.375 C 325.84375 418.07025 325.8194 419.73266 325.75 421.40625 C 325.74948 421.41705 325.75043 421.4267 325.75 421.4375 C 325.75 421.5259 325.72185 421.63039 325.71875 421.71875 C 325.583 424.80739 325.3014 427.83955 324.9375 430.84375 C 324.9186 430.996 324.92515 431.16049 324.90625 431.3125 L 324.90625 431.34375 C 324.87675 431.57573 324.843 431.79982 324.8125 432.03125 C 324.41851 435.02898 323.92317 438.00824 323.3125 440.90625 C 322.65259 444.03843 321.8686 447.12538 320.96875 450.125 C 320.07037 453.12474 319.06202 456.05579 317.9375 458.90625 C 315.12241 466.03213 311.6407 472.64602 307.5625 478.65625 C 305.93192 481.06039 304.18438 483.36614 302.375 485.5625 L 281.28125 511.96875 L 281.28125 512 L 448 512 C 483.456 512 512 483.456 512 448 L 512 445.09375 L 512 405.46875 L 512 199.78125 L 511.9375 199.71875 C 490.00137 177.79678 452.16341 155.75616 403.4375 147.96875 C 393.10488 146.32999 382.71759 145.65869 372.53125 145.78125 z " id="rect4443" style="fill:#0f8241;fill-opacity:1;fill-rule:nonzero;stroke:none" transform="translate(0,-1.5e-5)"/><path d="M 248.40625 0 C 252.2059 3.1695198 255.80828 6.4957332 259.25 9.9375 C 260.11628 10.803506 260.97022 11.64854 261.8125 12.53125 C 267.66987 18.669611 272.93636 25.19153 277.53125 32.09375 L 277.53125 32.125 C 279.49479 35.075808 281.3531 38.075698 283.0625 41.15625 L 283.0625 41.1875 C 284.19997 43.23833 285.2929 45.331359 286.3125 47.4375 C 287.18099 49.231327 288.00095 51.073501 288.78125 52.90625 C 288.91774 53.227091 289.05375 53.552985 289.1875 53.875 C 289.31841 54.189842 289.43422 54.496542 289.5625 54.8125 C 290.31628 56.669721 291.02643 58.542357 291.6875 60.4375 C 291.6875 60.45075 291.71455 60.4555 291.71875 60.46875 C 292.10075 61.566361 292.46228 62.671202 292.8125 63.78125 L 292.8125 63.8125 C 293.16335 64.925874 293.52542 66.061833 293.84375 67.1875 L 293.84375 67.21875 C 294.16187 68.344539 294.46492 69.487133 294.75 70.625 C 295.2769 72.72748 295.71322 74.85741 296.125 77 C 296.1608 77.188695 296.24551 77.373498 296.28125 77.5625 C 296.31385 77.737993 296.3424 77.917994 296.375 78.09375 C 297.18561 82.538992 297.70556 87.080598 298 91.6875 C 298 91.76526 298.0583 91.828407 298.0625 91.90625 C 298.06324 91.91719 298.06187 91.92666 298.0625 91.9375 C 298.2113 94.361335 298.28125 96.815201 298.28125 99.28125 L 298.28125 99.3125 C 298.28073 101.06761 298.23729 102.80854 298.15625 104.53125 C 298.15573 104.54205 298.15678 104.5518 298.15625 104.5625 C 298.07415 106.29582 297.94015 107.98758 297.78125 109.6875 C 297.62256 111.38761 297.41912 113.05246 297.1875 114.71875 L 297.1875 114.75 C 296.95683 116.40533 296.70449 118.06607 296.40625 119.6875 C 295.50483 124.58244 294.28502 129.3298 292.84375 133.90625 C 291.8834 136.95805 290.81339 139.93849 289.65625 142.84375 C 288.49858 145.74819 287.25755 148.55858 285.9375 151.3125 C 284.6182 154.06714 283.25966 156.74383 281.8125 159.34375 L 281.8125 159.375 C 279.64575 163.26583 277.32502 166.99853 274.96875 170.53125 L 275.125 170.46875 C 291.26174 159.02335 348.33026 139.2297 403.4375 148 C 452.16458 155.75714 490.00137 177.81831 511.9375 199.75 L 512 199.8125 L 512 106.53125 L 512 66.90625 L 512 64 C 512 28.544002 483.456 -7.0792326e-017 448 0 L 334.40625 0 L 334.40625 0.09375 L 249.53125 0.09375 L 248.40625 0 z " id="path11-8" style="fill:#ea1d25" transform="translate(0,-1.5e-5)"/><path d="M 92.186,1.5e-4 C 53.1851,21.642065 47.3095,73.024441 60.3859,120.74153 c 2.3491,8.5649 5.2355,16.75447 8.5502,24.52971 0.042,0.0996 0.089,0.19648 0.1315,0.29593 0.6281,1.46632 1.2806,2.90637 1.9402,4.34038 2.1136,4.59506 4.3901,9.04907 6.8073,13.28418 0.6005,1.05217 1.1906,2.06258 1.8087,3.09088 0.3645,0.6064 0.7147,1.21057 1.0852,1.80849 0.5154,0.83169 1.0518,1.65116 1.5785,2.46612 0.3217,0.49771 0.6607,0.98832 0.9866,1.47967 0.7163,1.08014 1.4344,2.17358 2.1704,3.2224 0.023,0.0323 0.043,0.0664 0.066,0.0986 0.8834,1.2567 1.7858,2.47253 2.6966,3.68275 0.9251,1.22945 1.8758,2.43707 2.8281,3.61698 1.9045,2.35981 3.8473,4.62153 5.8536,6.77362 0.7909,0.84836 1.5949,1.68429 2.4006,2.499 0.2162,0.21865 0.4404,0.44145 0.6577,0.65763 0.8937,0.88922 1.7857,1.75071 2.6966,2.59765 0.079,0.0734 0.151,0.15706 0.2302,0.23018 0.2065,0.19087 0.4174,0.37032 0.6248,0.55898 0.7694,0.69995 1.554,1.36945 2.3349,2.03867 0.1348,0.11554 0.2594,0.24708 0.3946,0.36169 0.1063,0.0901 0.2224,0.17357 0.3289,0.26306 0.03,0.0255 0.068,0.0404 0.099,0.0658 0.9354,0.78476 1.8771,1.56188 2.8281,2.30171 0.9099,0.70792 1.806,1.40569 2.7295,2.07154 0.1481,0.10674 0.3119,0.1903 0.4604,0.29594 0.1473,0.10491 0.2798,0.22497 0.4275,0.32882 0.3473,0.24411 0.7031,0.48531 1.0523,0.72339 0.4131,0.28178 0.834,0.54878 1.2496,0.82204 0.232,0.15241 0.458,0.31059 0.6906,0.46034 0.3917,0.25224 0.7901,0.47879 1.1839,0.7234 0.2632,0.1634 0.5252,0.33324 0.7893,0.49322 0.4915,0.29787 0.9851,0.60192 1.4798,0.88781 0.8275,0.47796 1.6633,0.93703 2.4993,1.38103 0.6687,0.35518 1.3321,0.68623 2.006,1.01933 0.383,0.18945 0.7663,0.37675 1.151,0.55898 0.3483,0.16495 0.7027,0.33424 1.0523,0.49323 0.4702,0.21391 0.9416,0.4217 1.4141,0.62475 0.2181,0.0937 0.439,0.17168 0.6577,0.26305 1.1846,0.49507 2.3537,0.98828 3.5516,1.41391 0.043,0.0154 0.088,0.0176 0.1315,0.0328 0.2511,0.0887 0.5048,0.17749 0.7564,0.26306 0.3001,0.10217 0.587,0.19817 0.8879,0.29593 0.2263,0.0735 0.4638,0.12629 0.6906,0.19729 0.6964,0.21806 1.3714,0.43062 2.0718,0.62475 0.7003,0.19413 1.4006,0.38909 2.1046,0.55899 2.8159,0.6796 5.6844,1.16712 8.5502,1.44679 0.7164,0.07 1.4185,0.12025 2.1375,0.16441 0.7191,0.0442 1.4491,0.0806 2.1705,0.0986 2.7342,0.0686 5.4932,-0.0452 8.25418,-0.3617 0.15265,-0.0176 0.30768,-0.047 0.46039,-0.0658 0.72875,-0.0892 1.44038,-0.17911 2.17043,-0.29593 0.39143,-0.0626 0.79212,-0.12666 1.18387,-0.19729 0.34412,-0.0621 0.67511,-0.12906 1.01945,-0.19729 0.73114,-0.14472 1.43842,-0.3203 2.17043,-0.49323 0.19518,-0.0461 0.3967,-0.0834 0.59193,-0.13151 0.5365,-0.13228 1.07454,-0.27985 1.61138,-0.42747 0.73268,-0.20145 1.47019,-0.42736 2.20332,-0.65763 9.1871,-2.88031 17.09228,-6.38511 23.80896,-10.48925 0.0129,-0.008 0.0199,-0.0249 0.0328,-0.0328 0.74721,-0.45711 1.45194,-0.90958 2.17043,-1.38103 2.14212,-1.40559 4.19036,-2.87609 6.08378,-4.40614 0.012,-0.01 0.0209,-0.0232 0.0328,-0.0328 3.16609,-2.56178 5.97727,-5.29382 8.4844,-8.18752 0.005,-0.006 -0.005,-0.0265 0,-0.0328 0.99867,-1.15355 1.96182,-2.31439 2.86102,-3.51834 0.005,-0.007 -0.005,-0.0257 0,-0.0328 0.3217,-0.4311 0.64446,-0.87782 0.95368,-1.31527 0.12605,-0.1786 0.27064,-0.34645 0.39462,-0.5261 0.42206,-0.61048 0.81831,-1.21887 1.21676,-1.84137 0.005,-0.007 -0.005,-0.025 0,-0.0328 0.39811,-0.62259 0.80901,-1.23981 1.18387,-1.87426 0.005,-0.008 -0.005,-0.0246 0,-0.0328 0.2121,-0.35934 0.42008,-0.72199 0.62482,-1.08509 0.16215,-0.28807 0.33571,-0.56451 0.49328,-0.85492 1.06068,-1.95126 2.0021,-3.96242 2.86102,-6.01734 0.005,-0.013 0.0275,-0.0199 0.0328,-0.0328 0.57151,-1.36976 1.09286,-2.76183 1.5785,-4.17597 0.003,-0.01 -0.003,-0.023 0,-0.0328 0.48505,-1.41443 0.94614,-2.84999 1.3483,-4.3075 0.003,-0.0105 -0.003,-0.0227 0,-0.0328 0.60377,-2.19169 1.12081,-4.42251 1.54561,-6.70785 0.002,-0.0105 -0.002,-0.0224 0,-0.0328 0.42594,-2.29628 0.76393,-4.61752 1.01944,-7.00379 0.1702,-1.59098 0.2964,-3.20429 0.39462,-4.8336 0.14734,-2.44397 0.20346,-4.93768 0.19731,-7.46414 -0.008,-3.35782 -0.13644,-6.79764 -0.39462,-10.29195 -8e-4,-0.0107 8e-4,-0.0222 0,-0.0328 -0.39023,-5.24877 -1.05343,-10.65121 -1.94023,-16.17777 -0.002,-0.0105 0.002,-0.0223 0,-0.0328 -0.5913,-3.68171 -1.29011,-7.42094 -2.07178,-11.21264 -0.002,-0.0105 0.002,-0.0225 0,-0.0328 -0.78379,-3.802436 -1.6467,-7.638992 -2.59793,-11.541459 -0.9513,-3.902526 -1.99664,-7.845558 -3.09122,-11.83739 -0.23404,-0.852198 -0.47041,-1.715438 -0.72348,-2.564768 -0.25357,-0.850958 -0.5171,-1.684342 -0.78925,-2.531887 -0.27214,-0.847544 -0.5648,-1.688295 -0.85501,-2.531886 -0.16534,-0.480586 -0.32222,-0.967626 -0.49328,-1.446792 -0.12911,-0.361548 -0.2623,-0.724405 -0.39463,-1.085094 -0.23204,-0.632608 -0.4817,-1.27735 -0.72347,-1.907135 -0.0793,-0.206289 -0.14993,-0.418783 -0.2302,-0.624752 -0.0866,-0.222416 -0.17527,-0.435598 -0.26308,-0.657632 -1.55874,-3.941117 -3.29034,-7.816821 -5.19588,-11.60722 -0.28152,-0.559992 -0.5666,-1.120977 -0.85502,-1.676963 -0.53599,-1.032427 -1.08532,-2.073187 -1.64427,-3.090874 -0.12073,-0.219976 -0.23996,-0.438379 -0.36173,-0.657633 -0.74592,-1.342995 -1.51853,-2.664366 -2.30197,-3.978679 -0.91135,-1.528883 -1.86975,-3.018732 -2.82814,-4.504785 -0.76507,-1.18628 -1.54214,-2.361825 -2.33486,-3.518335 -0.20101,-0.293082 -0.38922,-0.596723 -0.59193,-0.887804 -0.1625,-0.233501 -0.32971,-0.458322 -0.49328,-0.690515 -0.84442,-1.198646 -1.69353,-2.388943 -2.56506,-3.551217 -0.7349,-0.980068 -1.48357,-1.941044 -2.2362,-2.893584 -0.31686,-0.400942 -0.63385,-0.787864 -0.95367,-1.183739 -0.95699,-1.185134 -1.91228,-2.347755 -2.89391,-3.485454 -0.12129,-0.140494 -0.2401,-0.287718 -0.36174,-0.427462 -0.54551,-0.627052 -1.09197,-1.229726 -1.64426,-1.841372 -0.57178,-0.633289 -1.13153,-1.258026 -1.71004,-1.874253 -0.0962,-0.102475 -0.19959,-0.19394 -0.29596,-0.295935 -0.13927,-0.147392 -0.28788,-0.28108 -0.42751,-0.427461 -0.53688,-0.562857 -1.06938,-1.129357 -1.61138,-1.676964 -0.3717,-0.375521 -0.74418,-0.7498 -1.1181,-1.117976 -0.31971,-0.314856 -0.63242,-0.611301 -0.95368,-0.920686 -0.84341,-0.812459 -1.6792,-1.593854 -2.53217,-2.367478 -0.0988,-0.08958 -0.19707,-0.174006 -0.29596,-0.263053 -1.0539,-0.948937 -2.12426,-1.875409 -3.18988,-2.762058 -0.0238,-0.0198 -0.042,-0.04599 -0.0658,-0.06576 C 170.73181,4.834724 167.07682,2.20266 163.4158,6.1e-4 l -71.2295,0 z" id="path15" style="fill:#2f66b0"/><path d="m 0.0085,171.97113 0,187.98434 c 0,0.001 0.028,-1.7e-4 0.033,0 0,-9.5e-4 0.029,0.001 0.033,0 0.057,-0.0181 0.2108,-0.0904 0.3947,-0.19729 0.033,-0.0191 0.06,-0.0425 0.099,-0.0658 0.041,-0.0249 0.1506,-0.10217 0.1973,-0.13153 0.2988,-0.18991 0.7139,-0.45998 1.2825,-0.85492 0.8557,-0.58632 1.754,-1.17385 2.6308,-1.74273 0.013,-0.008 0.02,-0.0247 0.033,-0.0328 1.7796,-1.1537 3.599,-2.27035 5.4589,-3.35393 2.79,-1.62536 5.6376,-3.16255 8.5831,-4.63631 2.9455,-1.47376 5.9726,-2.87927 9.0434,-4.20885 2.0472,-0.88638 4.1237,-1.73971 6.2154,-2.56476 3.1374,-1.23757 6.3244,-2.4126 9.5367,-3.51834 4.283,-1.47433 8.6036,-2.82199 12.9568,-4.07732 2.1766,-0.62767 4.3635,-1.23228 6.5442,-1.80849 4.3613,-1.15244 8.7316,-2.19683 13.0555,-3.15664 4.3238,-0.95981 8.6107,-1.84578 12.8252,-2.63053 4.2145,-0.78475 8.3644,-1.47716 12.3978,-2.10443 4.0221,-0.62551 7.9364,-1.19061 11.7071,-1.67696 0.2343,-0.0302 0.4575,-0.0361 0.6906,-0.0658 5.2403,-0.66789 10.1904,-1.2376 14.7655,-1.67697 1.7921,-0.17198 3.5596,-0.31836 5.2288,-0.46034 6.1186,-0.52049 11.3542,-0.84535 15.4561,-1.05221 2.051,-0.10344 3.8225,-0.1788 5.2616,-0.23018 2.8782,-0.1028 4.4724,-0.13152 4.4724,-0.13152 0,0 0.04,-0.086 0.066,-0.19729 0,-0.008 -7e-4,-0.0236 0,-0.0328 0.017,-0.13775 -0.01,-0.32118 -0.1973,-0.52611 -0.6759,-0.64167 -1.3317,-1.29754 -1.9731,-1.94001 -0.6304,-0.63111 -1.2437,-1.24271 -1.8416,-1.87426 -0.01,-0.006 0.01,-0.027 0,-0.0328 -4.2134,-4.45284 -7.6497,-8.9087 -10.3917,-13.31706 -0.01,-0.008 0.01,-0.0249 0,-0.0328 -5.8737,-9.45076 -8.6607,-18.65577 -9.6026,-27.06159 -10e-4,-0.0111 0,-0.0219 0,-0.0328 -0.1238,-1.11089 -0.2335,-2.20688 -0.2959,-3.28816 -7e-4,-0.0111 6e-4,-0.0219 0,-0.0328 -0.1868,-3.26329 -0.1028,-6.39362 0.1644,-9.33839 0.001,-0.011 -0.001,-0.0219 0,-0.0328 0.089,-0.97366 0.2019,-1.92722 0.3289,-2.8607 0,-0.0109 0,-0.022 0,-0.0328 0.1272,-0.93267 0.3008,-1.83932 0.4604,-2.72917 0,-0.0108 0,-0.0221 0,-0.0328 0.1597,-0.88896 0.3399,-1.75414 0.5261,-2.59765 0,-0.0106 0,-0.0222 0,-0.0328 2.4537,-11.09165 6.9388,-18.11779 6.9388,-18.11779 0,0 -0.023,-0.0565 -0.033,-0.0986 0,-0.006 0,-0.0263 0,-0.0328 -0.02,-0.0599 -0.098,-0.12322 -0.1644,-0.19729 -0.01,-0.005 0.01,-0.0279 0,-0.0328 -0.041,-0.0405 -0.069,-0.064 -0.1316,-0.0986 -0.1244,-0.0693 -0.2872,-0.12393 -0.5262,-0.13153 -0.1194,-0.004 -0.2724,0.0117 -0.4275,0.0328 -4.5034,0.6888 -8.866,1.19284 -13.1212,1.54544 -0.3602,0.0299 -0.7267,0.0711 -1.0852,0.0986 -0.033,0.002 -0.066,-0.002 -0.099,0 -0.2885,0.022 -0.5677,0.0453 -0.855,0.0658 -2.4554,0.17542 -4.8621,0.29143 -7.2348,0.36169 -0.3716,0.0111 -0.7485,0.0244 -1.1181,0.0328 -2.8048,0.0645 -5.5644,0.0416 -8.2542,-0.0328 -1.4931,-0.0414 -2.9815,-0.0824 -4.4395,-0.1644 -0.7626,-0.043 -1.5161,-0.11063 -2.2691,-0.16441 -0.6135,-0.0438 -1.2344,-0.0808 -1.8416,-0.13153 -2.5759,-0.21557 -5.1,-0.4857 -7.5636,-0.82204 -2.5649,-0.35018 -5.0529,-0.77862 -7.4979,-1.2495 -0.132,-0.0254 -0.2629,-0.04 -0.3946,-0.0658 -2.2972,-0.44936 -4.549,-0.96551 -6.7415,-1.51255 -0.1533,-0.0383 -0.3076,-0.06 -0.4604,-0.0986 -0.7012,-0.17761 -1.3811,-0.37198 -2.0717,-0.55899 -0.4156,-0.11255 -0.838,-0.21296 -1.2497,-0.32882 -1.0266,-0.28889 -2.0226,-0.57892 -3.0254,-0.8878 -0.153,-0.0471 -0.308,-0.084 -0.4604,-0.13153 -0.5329,-0.16629 -1.0524,-0.35439 -1.5785,-0.5261 -0.5707,-0.18613 -1.1472,-0.36666 -1.7101,-0.55899 -0.9026,-0.30863 -1.8141,-0.62961 -2.6965,-0.95357 -0.1436,-0.0527 -0.2846,-0.11131 -0.4276,-0.16441 -0.2105,-0.0782 -0.4154,-0.15118 -0.6248,-0.23017 -0.7685,-0.28997 -1.5489,-0.58679 -2.3019,-0.8878 -0.5557,-0.22224 -1.097,-0.46251 -1.6443,-0.69052 -0.4743,-0.19753 -0.946,-0.39016 -1.4141,-0.59187 -0.8863,-0.38197 -1.7668,-0.78749 -2.6308,-1.18374 -0.8484,-0.38906 -1.6722,-0.78181 -2.4993,-1.18374 -0.2968,-0.14419 -0.5938,-0.28168 -0.8879,-0.42746 -0.7487,-0.37125 -1.5051,-0.73696 -2.2362,-1.11797 -0.1441,-0.0751 -0.2841,-0.1547 -0.4275,-0.23017 -0.7661,-0.40307 -1.5223,-0.80365 -2.2691,-1.21663 -0.1864,-0.10301 -0.3739,-0.1923 -0.559,-0.29593 -0.6015,-0.33663 -1.187,-0.67678 -1.7758,-1.01933 -0.166,-0.0965 -0.3284,-0.19897 -0.4933,-0.29594 -0.242,-0.14224 -0.4837,-0.28427 -0.7235,-0.42746 -0.7231,-0.43177 -1.4338,-0.87548 -2.1375,-1.31526 -0.6376,-0.39837 -1.2528,-0.77944 -1.8745,-1.18374 -0.067,-0.0435 -0.1307,-0.0881 -0.1973,-0.13153 -0.3869,-0.25268 -0.7702,-0.5015 -1.151,-0.75628 -0.508,-0.33982 -1.0155,-0.67607 -1.5127,-1.01933 -0.6049,-0.41759 -1.1869,-0.86029 -1.7758,-1.28238 -0.6184,-0.4432 -1.2406,-0.86781 -1.8416,-1.31527 -0.2832,-0.21083 -0.5757,-0.41308 -0.855,-0.62475 -0.5722,-0.43357 -1.1211,-0.87871 -1.6772,-1.31526 -0.1877,-0.1473 -0.3731,-0.27987 -0.559,-0.42746 -0.4943,-0.39245 -0.9656,-0.78956 -1.447,-1.18374 -0.012,-0.009 -0.021,-0.0232 -0.033,-0.0328 -0.6758,-0.55373 -1.3224,-1.12097 -1.9731,-1.67697 -1.2975,-1.10855 -2.5498,-2.21123 -3.749,-3.32104 -1.0128,-0.9374 -1.9827,-1.86346 -2.9267,-2.79494 -0.2417,-0.23839 -0.4864,-0.48566 -0.7235,-0.7234 -0.638,-0.63962 -1.2356,-1.27356 -1.8416,-1.90713 -0.4381,-0.45787 -0.8939,-0.92723 -1.3154,-1.38103 -0.8353,-0.89973 -1.6297,-1.78425 -2.4006,-2.66342 -0.1224,-0.13952 -0.241,-0.28853 -0.3618,-0.42746 -0.6239,-0.71777 -1.2273,-1.40476 -1.8087,-2.10442 -0.2978,-0.3584 -0.6011,-0.73211 -0.8879,-1.0851 -0.5855,-0.72074 -1.1371,-1.40904 -1.6771,-2.10442 -0.2203,-0.2836 -0.445,-0.57598 -0.6577,-0.85492 -0.3871,-0.50743 -0.7556,-0.98886 -1.1181,-1.47968 -0.375,-0.50773 -0.7363,-1.0243 -1.0852,-1.51255 -0.3846,-0.53783 -0.7318,-1.03336 -1.0853,-1.54544 -0.1727,-0.25031 -0.3607,-0.51253 -0.5261,-0.75628 -0.5395,-0.79506 -1.0506,-1.54964 -1.5128,-2.26883 -0.1146,-0.17838 -0.2188,-0.31986 -0.3288,-0.49323 -0.3684,-0.58008 -0.6698,-1.09023 -0.9866,-1.6112 -0.095,-0.15591 -0.1727,-0.27711 -0.263,-0.42746 -0.1919,-0.31919 -0.3546,-0.59456 -0.5262,-0.8878 -0.1161,-0.19833 -0.2219,-0.4059 -0.3289,-0.59187 -0.6286,-1.09292 -1.0924,-1.91284 -1.414,-2.53189 -0.07,-0.13439 -0.075,-0.11916 -0.1316,-0.23017 -0.2956,-0.57441 -0.4275,-0.8878 -0.4275,-0.8878 z" id="path7" style="fill:#2f66b0"/><path d="M 168.90625 341.03125 C 167.43605 341.02625 165.9162 341.0327 164.375 341.0625 C 164.3094 341.0635 164.25315 341.0615 164.1875 341.0625 C 163.94035 341.0675 163.65513 341.08785 163.40625 341.09375 C 162.92111 341.10545 162.46033 341.1099 161.96875 341.125 C 161.0591 341.1529 160.18096 341.17895 159.25 341.21875 C 157.71839 341.28445 156.1481 341.33918 154.5625 341.4375 C 154.406 341.4465 154.25075 341.45885 154.09375 341.46875 C 152.34655 341.57993 150.58715 341.72408 148.78125 341.875 C 146.97535 342.02591 145.1084 342.21517 143.25 342.40625 C 141.7291 342.56262 140.20865 342.69146 138.65625 342.875 C 138.31165 342.9157 137.971 342.98913 137.625 343.03125 C 135.9121 343.23975 134.1834 343.47717 132.4375 343.71875 C 132.0878 343.76715 131.7259 343.79413 131.375 343.84375 C 129.5739 344.09894 127.79895 344.36574 125.96875 344.65625 C 121.76785 345.32509 117.63985 346.08248 113.65625 346.875 C 110.99975 347.40387 108.415 347.92408 105.875 348.5 C 102.0665 349.3628 98.3751 350.30007 94.875 351.25 C 91.373 352.2012 88.04495 353.17126 84.90625 354.1875 C 81.76765 355.20374 78.81385 356.2535 76.09375 357.3125 C 74.29155 358.01444 72.56705 358.75583 70.96875 359.46875 L 70.15625 359.8125 C 69.43345 360.08991 68.7131 360.39376 68 360.6875 C 67.3451 360.95727 66.67775 361.21666 66.03125 361.5 C 65.97325 361.5255 65.933 361.56825 65.875 361.59375 C 65.0536 361.95562 64.245 362.33537 63.4375 362.71875 C 62.7322 363.05366 62.03805 363.39897 61.34375 363.75 C 60.27755 364.28899 59.2268 364.83008 58.1875 365.40625 C 57.7988 365.62175 57.41605 365.84188 57.03125 366.0625 C 56.43945 366.40167 55.8325 366.74267 55.25 367.09375 C 54.6703 367.4431 54.10155 367.82655 53.53125 368.1875 C 52.54675 368.81132 51.5806 369.436 50.625 370.09375 C 49.5984 370.80028 48.58565 371.50547 47.59375 372.25 C 47.54975 372.2829 47.51225 372.31065 47.46875 372.34375 C 47.08695 372.6314 46.72025 372.95683 46.34375 373.25 C 45.46575 373.9336 44.5985 374.59953 43.75 375.3125 C 41.0024 377.62112 38.4186 380.09035 36 382.6875 C 35.8777 382.81862 35.7464 382.93067 35.625 383.0625 C 35.1275 383.6033 34.63865 384.16639 34.15625 384.71875 C 33.87045 385.04573 33.56175 385.35652 33.28125 385.6875 C 33.17075 385.81797 33.07845 385.96266 32.96875 386.09375 C 32.59665 386.53832 32.20625 386.98597 31.84375 387.4375 C 31.82875 387.4561 31.8275 387.4813 31.8125 387.5 C 30.9301 388.60242 30.0731 389.73258 29.25 390.875 C 28.4268 392.01743 27.637 393.16321 26.875 394.34375 C 25.7321 396.11457 24.65555 397.96126 23.65625 399.8125 C 23.32305 400.42958 23.0042 401.03071 22.6875 401.65625 C 22.0541 402.90734 21.441 404.18523 20.875 405.46875 C 16.6734 415.00453 14.34375 425.41557 14.34375 436.3125 C 14.34375 469.17133 35.419106 498.50205 65.9375 511.9375 C 66.246 511.9415 66.5655 511.96875 66.875 511.96875 C 66.5722 511.96875 66.27055 511.97275 65.96875 511.96875 C 65.95575 511.96275 65.9505 511.9433 65.9375 511.9375 C 63.677282 511.90683 61.450682 511.74918 59.25 511.5 C 59.410723 511.66091 59.565347 511.8372 59.71875 512 L 66.875 512 L 177.59375 512 L 236.84375 512 C 236.84875 511.996 236.83875 511.97405 236.84375 511.96875 C 236.85075 511.96275 236.8674 511.97475 236.875 511.96875 C 236.9008 511.94735 236.9141 511.92625 236.9375 511.90625 C 245.54522 504.29165 252.52931 496.83901 257.96875 489.59375 C 257.97375 489.58675 257.96375 489.5696 257.96875 489.5625 C 268.06601 476.10681 272.98621 463.27939 273.875 451 C 273.87574 450.9891 273.87416 450.97965 273.875 450.96875 C 273.9424 450.0344 273.97927 449.11544 274 448.1875 C 274.0001 448.1766 273.99979 448.16705 274 448.15625 C 274.04 446.33384 273.97773 444.51673 273.84375 442.71875 L 273.84375 442.5625 C 273.83325 442.4851 273.8188 442.3899 273.8125 442.3125 C 273.66855 440.53939 273.46121 438.81225 273.15625 437.0625 C 272.83802 435.23636 272.42304 433.39489 271.9375 431.59375 C 271.45184 429.7926 270.89476 428.02662 270.25 426.25 C 269.60524 424.47338 268.88952 422.69006 268.09375 420.9375 C 266.506 417.4406 264.60898 413.99761 262.46875 410.59375 L 262.46875 410.5625 C 262.25923 410.22954 262.02686 409.89459 261.8125 409.5625 C 260.92833 408.19324 259.99676 406.85459 259.03125 405.5 C 256.63159 402.13373 254.01294 398.80961 251.15625 395.53125 C 249.7279 393.89207 248.24914 392.2429 246.71875 390.625 C 239.83733 383.35015 231.96009 376.30777 223.46875 369.4375 C 223.46275 369.4325 223.444 369.4425 223.4375 369.4375 C 221.55547 367.915 219.65757 366.34764 217.71875 364.84375 C 217.71275 364.83875 217.6943 364.84875 217.6875 364.84375 C 211.85692 360.32175 205.7913 355.89336 199.59375 351.53125 C 199.58675 351.52625 199.5697 351.53625 199.5625 351.53125 C 195.4257 348.61987 191.24988 345.7198 187.03125 342.875 C 186.88745 342.7783 186.71651 342.705 186.5625 342.625 C 186.5545 342.621 186.54015 342.629 186.53125 342.625 C 186.37736 342.5461 186.21888 342.46997 186.0625 342.40625 C 186.052 342.40225 186.04155 342.41025 186.03125 342.40625 C 185.95045 342.37375 185.89239 342.37255 185.8125 342.34375 C 185.24732 342.14766 184.71674 341.98713 184.40625 341.9375 C 184.22666 341.9088 184.09375 341.90625 184.09375 341.90625 L 183.90625 341.84375 C 181.7186 341.58475 179.37968 341.38832 176.875 341.25 C 175.62266 341.1809 174.32552 341.13127 173 341.09375 C 171.67447 341.05625 170.3009 341.03625 168.90625 341.03125 z M 0 405.46875 L 0 448.53125 C 0.017822278 448.54518 0.044695529 448.54852 0.0625 448.5625 L 0.0625 405.46875 L 0 405.46875 z " id="path9" style="fill:#efb61c" transform="translate(0,-1.5e-5)"/><path d="m 64,2.25e-4 c -35.456,0 -64,28.544 -64,64 L 0,171.96897 c 0,0 0.1419,0.30059 0.4375,0.875 0.0566,0.11101 0.055,0.11561 0.125,0.25 0.3216,0.61905 0.77765,1.43833 1.40625,2.53125 0.107,0.18597 0.22765,0.39542 0.34375,0.59375 0.1716,0.29324 0.33935,0.55581 0.53125,0.875 0.0903,0.15035 0.155,0.28159 0.25,0.4375 0.3168,0.52097 0.6316,1.01367 1,1.59375 0.11,0.17337 0.1979,0.32162 0.3125,0.5 0.4622,0.71919 0.99175,1.48619 1.53125,2.28125 0.1654,0.24375 0.3273,0.49969 0.5,0.75 0.3535,0.51208 0.70915,0.99342 1.09375,1.53125 0.3489,0.48825 0.71875,1.02352 1.09375,1.53125 0.3625,0.49082 0.7379,0.96132 1.125,1.46875 0.2127,0.27894 0.43595,0.5914 0.65625,0.875 0.54,0.69538 1.07075,1.37301 1.65625,2.09375 0.2868,0.35299 0.60845,0.73535 0.90625,1.09375 0.5814,0.69966 1.1886,1.37598 1.8125,2.09375 0.1208,0.13893 0.22135,0.29798 0.34375,0.4375 0.7709,0.87917 1.57095,1.75652 2.40625,2.65625 0.4215,0.4538 0.8744,0.91713 1.3125,1.375 0.606,0.63357 1.20575,1.26663 1.84375,1.90625 0.2371,0.23774 0.47705,0.48036 0.71875,0.71875 0.944,0.93148 1.9247,1.8751 2.9375,2.8125 1.1992,1.10981 2.4525,2.20395 3.75,3.3125 0.6507,0.556 1.29295,1.13377 1.96875,1.6875 0.012,0.01 0.0192,0.0223 0.0312,0.0312 0.4814,0.39418 0.9432,0.79505 1.4375,1.1875 0.1859,0.14759 0.3748,0.25895 0.5625,0.40625 0.5561,0.43655 1.1153,0.87893 1.6875,1.3125 0.2793,0.21167 0.56055,0.41417 0.84375,0.625 0.601,0.44746 1.22535,0.8693 1.84375,1.3125 0.5889,0.42209 1.17635,0.86366 1.78125,1.28125 0.4972,0.34326 0.992,0.69143 1.5,1.03125 0.3808,0.25478 0.76935,0.49732 1.15625,0.75 0.0666,0.0434 0.15175,0.0815 0.21875,0.125 0.6217,0.4043 1.2374,0.78913 1.875,1.1875 0.7037,0.43978 1.4019,0.88073 2.125,1.3125 0.2398,0.14319 0.47675,0.29526 0.71875,0.4375 0.1649,0.097 0.334,0.216 0.5,0.3125 0.5888,0.34255 1.17975,0.66337 1.78125,1 0.1851,0.10363 0.3761,0.20949 0.5625,0.3125 0.7468,0.41298 1.4839,0.81568 2.25,1.21875 0.1434,0.0755 0.2934,0.14365 0.4375,0.21875 0.7311,0.38101 1.47005,0.75375 2.21875,1.125 0.2941,0.14578 0.60945,0.26206 0.90625,0.40625 0.8271,0.40193 1.6516,0.79844 2.5,1.1875 0.864,0.39625 1.7387,0.80553 2.625,1.1875 0.4681,0.20171 0.93195,0.39622 1.40625,0.59375 0.5473,0.22801 1.10055,0.46526 1.65625,0.6875 0.753,0.30101 1.544,0.61628 2.3125,0.90625 0.2094,0.079 0.4145,0.14055 0.625,0.21875 0.143,0.0531 0.26265,0.10355 0.40625,0.15625 0.8824,0.32396 1.7849,0.66012 2.6875,0.96875 0.5629,0.19233 1.14805,0.37637 1.71875,0.5625 0.5261,0.17171 1.06085,0.36496 1.59375,0.53125 0.1524,0.0475 0.2845,0.0779 0.4375,0.125 1.0028,0.30888 2.00465,0.58611 3.03125,0.875 0.4117,0.11586 0.8344,0.2312 1.25,0.34375 0.6906,0.18701 1.39255,0.38489 2.09375,0.5625 0.1528,0.0386 0.2842,0.0555 0.4375,0.0937 2.1925,0.54704 4.4528,1.05064 6.75,1.5 0.1317,0.0258 0.27425,0.0371 0.40625,0.0625 2.445,0.47088 4.9351,0.89982 7.5,1.25 2.4636,0.33634 4.9866,0.59693 7.5625,0.8125 0.6072,0.0507 1.23025,0.11245 1.84375,0.15625 0.753,0.0538 1.4874,0.11325 2.25,0.15625 1.458,0.082 2.9444,0.11485 4.4375,0.15625 2.6898,0.0744 5.4452,0.0958 8.25,0.0312 0.3696,-0.008 0.7534,-0.0202 1.125,-0.0312 2.3727,-0.0703 4.7946,-0.16833 7.25,-0.34375 0.2873,-0.0205 0.55525,-0.0405 0.84375,-0.0625 0.033,-0.002 0.0608,0.002 0.0937,0 0.3585,-0.0275 0.73355,-0.0951 1.09375,-0.125 4.2552,-0.3526 8.6216,-0.84245 13.125,-1.53125 0.1551,-0.0211 0.28685,-0.0353 0.40625,-0.0312 0.239,0.008 0.40685,0.0557 0.53125,0.125 0.0626,0.0346 0.084,0.0533 0.125,0.0937 0.01,0.005 -0.01,0.0264 0,0.0312 0.0664,0.0741 0.1675,0.15885 0.1875,0.21875 l 0,0.0312 c 0.01,0.0421 0.0312,0.0937 0.0312,0.0937 0,0 -4.4838,7.03335 -6.9375,18.125 l 0,0.0312 c -0.1862,0.84351 -0.37155,1.70479 -0.53125,2.59375 l 0,0.0312 c -0.1596,0.88985 -0.34155,1.78608 -0.46875,2.71875 l 0,0.0312 c -0.127,0.93348 -0.2235,1.90134 -0.3125,2.875 -0.001,0.0109 0.001,0.0203 0,0.0312 -0.2672,2.94477 -0.3743,6.08047 -0.1875,9.34375 6e-4,0.0109 -7e-4,0.0203 0,0.0312 0.0624,1.08128 0.1887,2.17037 0.3125,3.28125 0,0.0109 -0.001,0.0203 0,0.0312 0.9419,8.40582 3.72005,17.61175 9.59375,27.0625 0.01,0.008 -0.01,0.0233 0,0.0312 2.742,4.40837 6.19285,8.85966 10.40625,13.3125 0.01,0.006 -0.01,0.0253 0,0.0312 0.5979,0.63154 1.21335,1.24388 1.84375,1.875 0.6414,0.64247 1.29285,1.29583 1.96875,1.9375 0.1873,0.20493 0.2045,0.3935 0.1875,0.53125 -7e-4,0.009 0,0.0233 0,0.0312 -0.026,0.11129 -0.0625,0.1875 -0.0625,0.1875 0,0 -1.59055,0.0534 -4.46875,0.15625 -1.4391,0.0514 -3.23025,0.11531 -5.28125,0.21875 -4.1019,0.20686 -9.3189,0.54201 -15.4375,1.0625 -1.6692,0.14198 -3.42665,0.26552 -5.21875,0.4375 -4.5751,0.43937 -9.54095,1.0196 -14.78125,1.6875 -0.2331,0.0297 -0.4532,0.0323 -0.6875,0.0625 -3.7707,0.48635 -7.69665,1.06199 -11.71875,1.6875 -4.0334,0.62726 -8.1605,1.30899 -12.375,2.09375 -4.2145,0.78475 -8.51995,1.66519 -12.84375,2.625 -4.3239,0.9598 -8.7012,2.00381 -13.0625,3.15625 -2.1807,0.5762 -4.35465,1.18483 -6.53125,1.8125 -4.3532,1.25532 -8.68575,2.61942 -12.96875,4.09375 -3.2123,1.10573 -6.39385,2.26243 -9.53125,3.5 -2.0917,0.82505 -4.17155,1.67611 -6.21875,2.5625 -3.0708,1.32957 -6.08575,2.74499 -9.03125,4.21875 -2.9455,1.47375 -5.80375,2.99964 -8.59375,4.625 -1.8599,1.08358 -3.6579,2.2213 -5.4375,3.375 -0.013,0.008 -0.0183,0.0233 -0.0312,0.0312 -0.8768,0.56888 -1.80055,1.16368 -2.65625,1.75 -0.5686,0.39494 -0.98245,0.65383 -1.28125,0.84375 -0.0467,0.0294 -0.1465,0.1001 -0.1875,0.125 -0.039,0.0233 -0.0608,0.0434 -0.0937,0.0625 -0.1839,0.10689 -0.34925,0.20065 -0.40625,0.21875 -0.004,10e-4 -0.0312,-9.5e-4 -0.0312,0 -0.005,-1.7e-4 -0.0312,10e-4 -0.0312,0 l 0,45.50005 0.0625,0 0,43.0937 c -0.0178,-0.014 -0.0447,-0.0173 -0.0625,-0.0313 0.003,0.3131 0.0243,0.6256 0.0312,0.9376 0.0165,0.738 0.0215,1.4872 0.0625,2.2187 0.0543,0.966 0.12246,1.9211 0.21875,2.875 0.007,0.073 0.0236,0.1458 0.0312,0.2187 0.10481,1.0039 0.22468,2.0108 0.375,3 0.15681,1.0318 0.35736,2.048 0.5625,3.0626 0.13137,0.6497 0.28671,1.2952 0.4375,1.9374 0.08,0.3409 0.13332,0.6926 0.21875,1.0313 0.0185,0.0734 0.0437,0.1455 0.0625,0.2187 0.23093,0.902 0.48136,1.8016 0.75,2.6876 0.0378,0.1247 0.0865,0.2506 0.125,0.375 0.30339,0.9784 0.62044,1.9488 0.96875,2.9062 0.0929,0.2556 0.21642,0.4959 0.3125,0.75 0.2208,0.5835 0.41905,1.1749 0.65625,1.75 0.29573,0.7171 0.61678,1.4215 0.9375,2.125 0.085,0.1866 0.16322,0.3769 0.25,0.5625 0.34311,0.7337 0.6927,1.4695 1.0625,2.1875 0.0876,0.17 0.19221,0.3309 0.28125,0.5 0.33969,0.6452 0.67039,1.2745 1.03125,1.9062 0.1327,0.2324 0.27073,0.4571 0.40625,0.6876 0.45906,0.7806 0.94666,1.5537 1.4375,2.3124 0.33027,0.5112 0.65567,1.0304 1,1.5313 0.47461,0.6904 0.96805,1.3609 1.46875,2.0313 0.4312,0.57719 0.86244,1.1568 1.3125,1.7187 0.47595,0.5933 0.97227,1.1744 1.46875,1.75 0.63647,0.7379 1.29955,1.4485 1.96875,2.1563 0.65906,0.697 1.3103,1.3958 2,2.0624 0.0212,0.0205 0.0413,0.0421 0.0625,0.0626 0.69064,0.6657 1.40484,1.30319 2.125,1.9374 0.70346,0.6196 1.42565,1.2553 2.15625,1.8438 0.0987,0.0795 0.2133,0.1398 0.3125,0.2188 0.69291,0.5513 1.37767,1.1022 2.09375,1.625 2.36599,1.7271 4.86995,3.2932 7.46875,4.6874 4.33134,2.3237 8.94873,4.1524 13.8125,5.4376 1.94551,0.514 3.9228,0.9492 5.9375,1.2812 2.0147,0.332 4.0815,0.5467 6.15625,0.6875 -0.0998,-0.1087 -0.20892,-0.2088 -0.3125,-0.3125 2.20068,0.2492 4.42728,0.4068 6.6875,0.4375 -30.51839,-13.4354 -51.59375,-42.7661 -51.59375,-75.625 0,-10.8969 2.32965,-21.308 6.53125,-30.8437 0.566,-1.2835 1.1791,-2.5615 1.8125,-3.8126 0.3167,-0.6255 0.63555,-1.2266 0.96875,-1.8437 0.9993,-1.8512 2.07585,-3.698 3.21875,-5.4687 0.762,-1.1806 1.5518,-2.3263 2.375,-3.4688 0.8231,-1.14239 1.6801,-2.27258 2.5625,-3.375 0.0149,-0.0187 0.0163,-0.0439 0.0312,-0.0625 0.3625,-0.45154 0.7529,-0.89918 1.125,-1.34375 0.1097,-0.13109 0.202,-0.27579 0.3125,-0.40625 0.2805,-0.33098 0.5892,-0.64177 0.875,-0.96875 0.4824,-0.55236 0.97125,-1.11545 1.46875,-1.65625 0.1214,-0.13184 0.2527,-0.24388 0.375,-0.375 2.4186,-2.59716 5.0024,-5.06638 7.75,-7.375 0.8485,-0.71298 1.71575,-1.37891 2.59375,-2.0625 0.3765,-0.29318 0.7432,-0.6186 1.125,-0.90625 0.0435,-0.033 0.081,-0.0609 0.125,-0.0937 0.9919,-0.74454 2.00465,-1.44972 3.03125,-2.15625 0.9556,-0.65775 1.92175,-1.28243 2.90625,-1.90625 0.5703,-0.36095 1.13905,-0.74441 1.71875,-1.09375 0.5825,-0.35109 1.18945,-0.69209 1.78125,-1.03125 0.3848,-0.22063 0.76755,-0.44075 1.15625,-0.65625 1.0393,-0.57618 2.09005,-1.11726 3.15625,-1.65625 0.6943,-0.35104 1.38845,-0.69634 2.09375,-1.03125 0.8075,-0.38338 1.6161,-0.76314 2.4375,-1.125 0.058,-0.0254 0.0982,-0.0683 0.15625,-0.0937 0.6465,-0.28333 1.31385,-0.54273 1.96875,-0.8125 0.7131,-0.29373 1.43345,-0.59758 2.15625,-0.875 l 0.8125,-0.34375 c 1.5983,-0.71292 3.3228,-1.4543 5.125,-2.15625 2.7201,-1.05899 5.6739,-2.10875 8.8125,-3.125 3.1387,-1.01624 6.46675,-1.9863 9.96875,-2.9375 3.5001,-0.94992 7.1915,-1.8872 11,-2.75 2.54,-0.57591 5.12475,-1.09613 7.78125,-1.625 3.9836,-0.79251 8.1116,-1.5499 12.3125,-2.21875 1.8302,-0.29051 3.60515,-0.55731 5.40625,-0.8125 0.3509,-0.0496 0.7128,-0.0766 1.0625,-0.125 1.7459,-0.24157 3.4746,-0.479 5.1875,-0.6875 0.346,-0.0421 0.68665,-0.11554 1.03125,-0.15625 1.5524,-0.18353 3.07285,-0.31237 4.59375,-0.46875 1.8584,-0.19108 3.72535,-0.38034 5.53125,-0.53125 1.8059,-0.15092 3.5653,-0.29507 5.3125,-0.40625 0.157,-0.01 0.31225,-0.0223 0.46875,-0.0312 1.5856,-0.0983 3.15589,-0.15305 4.6875,-0.21875 0.93096,-0.0397 1.8091,-0.0659 2.71875,-0.0937 0.49158,-0.015 0.95236,-0.0196 1.4375,-0.0312 0.24888,-0.006 0.5341,-0.0263 0.78125,-0.0312 0.0657,-9.9e-4 0.1219,10e-4 0.1875,0 1.5412,-0.0302 3.06105,-0.0362 4.53125,-0.0312 1.39465,0.005 2.76822,0.025 4.09375,0.0625 1.32552,0.0375 2.62266,0.0871 3.875,0.15625 2.50468,0.13832 4.8436,0.33475 7.03125,0.59375 l 0.1875,0.0625 c 0,0 0.13291,0.003 0.3125,0.0312 0.31049,0.0496 0.84107,0.21016 1.40625,0.40625 0.0799,0.0288 0.13795,0.03 0.21875,0.0625 0.0103,0.004 0.0208,-0.004 0.0312,0 0.15638,0.0637 0.31486,0.13986 0.46875,0.21875 0.009,0.004 0.0233,-0.004 0.0312,0 0.15401,0.08 0.32495,0.1533 0.46875,0.25 4.21863,2.84481 8.39445,5.74487 12.53125,8.65625 0.007,0.005 0.0243,-0.005 0.0312,0 6.19755,4.36211 12.26317,8.7905 18.09375,13.3125 0.007,0.005 0.0254,-0.005 0.0312,0 1.93882,1.50389 3.83672,3.07126 5.71875,4.59375 0.007,0.005 0.0254,-0.005 0.0312,0 8.49134,6.87027 16.36858,13.91269 23.25,21.1875 1.53039,1.6179 3.00915,3.26711 4.4375,4.9062 2.85669,3.2783 5.47534,6.60261 7.875,9.9688 0.96551,1.3546 1.89708,2.69331 2.78125,4.0625 0.21436,0.3321 0.44673,0.6671 0.65625,1 l 0,0.0313 c 2.14023,3.40381 4.03725,6.84681 5.625,10.3437 0.79577,1.75251 1.51149,3.5359 2.15625,5.3125 0.64476,1.77661 1.20184,3.5427 1.6875,5.3438 0.48554,1.8011 0.90052,3.64251 1.21875,5.4687 0.30496,1.7497 0.5123,3.4769 0.65625,5.25 0.006,0.077 0.0208,0.1726 0.0312,0.25 l 0,0.1563 c 0.13395,1.79791 0.19625,3.6151 0.15625,5.4374 -2.1e-4,0.011 1e-4,0.0203 0,0.0313 -0.0207,0.928 -0.0576,1.8469 -0.125,2.7813 -8.4e-4,0.0109 7.4e-4,0.0202 0,0.0312 -0.88879,12.2794 -5.80899,25.10681 -15.90625,38.5625 -0.005,0.01 0.005,0.0243 0,0.0313 -5.43944,7.2452 -12.42353,14.6979 -21.03125,22.3124 -0.0234,0.02 -0.0367,0.0416 -0.0625,0.0626 -0.007,0.01 -0.0242,-0.01 -0.0312,0 -0.005,0 0.005,0.0272 0,0.0312 l 44.4375,0 0,-0.0312 21.09375,-26.4063 c 1.80938,-2.19629 3.55692,-4.5022 5.1875,-6.9063 4.0782,-6.01009 7.55991,-12.62409 10.375,-19.75 1.12452,-2.8504 2.13287,-5.78139 3.03125,-8.7812 0.89985,-2.99959 1.68384,-6.08659 2.34375,-9.2188 0.61067,-2.8979 1.10601,-5.87729 1.5,-8.875 0.0305,-0.2313 0.0643,-0.4555 0.0937,-0.6874 l 0,-0.0313 c 0.0189,-0.152 0.0124,-0.3165 0.0312,-0.4687 0.3639,-3.00419 0.6455,-6.03639 0.78125,-9.125 0.003,-0.088 0.0312,-0.1929 0.0312,-0.2813 4.3e-4,-0.011 -5.2e-4,-0.0203 0,-0.0313 0.0694,-1.67349 0.0937,-3.3359 0.0937,-5.0312 0,-0.9728 -0.008,-1.97159 -0.0312,-2.9375 -2.1e-4,-0.011 3.2e-4,-0.0203 0,-0.0313 -0.0241,-0.97659 -0.0475,-1.9057 -0.0937,-2.875 -0.0935,-1.9383 -0.25313,-3.87509 -0.4375,-5.7812 -0.27645,-2.8591 -0.65177,-5.69169 -1.125,-8.4688 -0.3156,-1.85119 -0.69408,-3.658 -1.09375,-5.4687 -1.39644,-6.32721 -3.30651,-12.41629 -5.65625,-18.15625 l 0,-0.0312 c -1.00551,-2.4543 -2.08517,-4.85913 -3.25,-7.1875 l 0,-0.0312 c -0.38999,-0.77888 -0.8116,-1.5173 -1.21875,-2.28125 -0.80976,-1.51955 -1.6555,-3.04196 -2.53125,-4.5 l 0,-0.0312 c -4.40421,-7.32851 -9.5998,-13.81906 -15.46875,-19.34375 0,0 -6.43177,-6.21575 -14.625,-13.71875 -4.91595,-4.5018 -10.47805,-9.47914 -15.6875,-13.84375 -1.73561,-1.45433 -3.54278,-2.94159 -5.4375,-4.46875 -9.47371,-7.63582 -20.2635,-15.74958 -25.65625,-19.75 -2.1571,-1.60016 -3.46875,-2.5625 -3.46875,-2.5625 -0.77997,-0.58342 -1.53228,-1.13883 -2.28125,-1.75 -1.48588,-1.21249 -2.93125,-2.49952 -4.28125,-3.8125 -0.0109,-0.0108 -0.0203,-0.0517 -0.0312,-0.0625 -0.67423,-0.65669 -1.33198,-1.28916 -1.96875,-1.96875 -0.005,-0.006 0.005,-0.0253 0,-0.0312 -0.63123,-0.6742 -1.25164,-1.3672 -1.84375,-2.0625 -0.01,-0.0117 -0.0208,-0.0194 -0.0312,-0.0312 -0.59125,-0.69542 -1.16888,-1.37869 -1.71875,-2.09375 -0.009,-0.012 -0.0222,-0.0192 -0.0312,-0.0312 -1.10636,-1.44424 -2.13866,-2.98467 -3.0625,-4.5 -0.46078,-0.75557 -0.90059,-1.51015 -1.3125,-2.28125 -0.004,-0.009 0.004,-0.0233 0,-0.0312 -0.82485,-1.54644 -1.54179,-3.14994 -2.15625,-4.75 -0.005,-0.0129 -0.0575,-0.0182 -0.0625,-0.0312 -0.20006,-0.52261 -0.32369,-1.03499 -0.5,-1.5625 -0.0953,-0.28613 -0.2243,-0.58754 -0.3125,-0.875 -0.0675,-0.21932 -0.1241,-0.43619 -0.1875,-0.65625 -0.36105,-1.25979 -0.62554,-2.53146 -0.84375,-3.8125 -0.0281,-0.16504 -0.0993,-0.33466 -0.125,-0.5 -0.26129,-1.67294 -0.375,-3.36488 -0.375,-5.0625 0.005,-5.05566 1.05831,-9.95998 3.03125,-14.59375 0.98861,-2.32191 2.1946,-4.54058 3.625,-6.71875 0.9536,-1.4521 1.98803,-2.87113 3.125,-4.25 2.84374,-3.44464 6.24951,-6.65485 10.125,-9.5625 0,0 0.9028,-0.75581 2.40625,-2 2.25291,-1.85963 5.87446,-4.88066 9.84375,-8.3125 0.006,-0.005 0.0254,0.005 0.0312,0 2.65136,-2.29259 5.4488,-4.76689 8.125,-7.21875 1.3381,-1.22592 2.64166,-2.44045 3.875,-3.625 2.47425,-2.36693 4.88526,-4.75594 7.125,-7 2.2341,-2.23738 4.31563,-4.35185 6.0625,-6.15625 0.0105,-0.007 -0.0105,-0.0243 0,-0.0312 1.74307,-1.8006 3.18474,-3.2845 4.1875,-4.34375 0.0105,-0.0108 -0.0105,-0.0204 0,-0.0312 0.99266,-1.04886 1.5509,-1.6125 1.5625,-1.625 l 0,-0.0625 2.40625,-2.46875 0.59375,-0.5 -0.0937,0.0312 c 2.35627,-3.53272 4.677,-7.26542 6.84375,-11.15625 l 0,-0.0312 c 1.44716,-2.59992 2.8057,-5.27661 4.125,-8.03125 1.32005,-2.75392 2.56108,-5.56431 3.71875,-8.46875 1.15714,-2.90526 2.22715,-5.8857 3.1875,-8.9375 1.44127,-4.57645 2.66108,-9.32381 3.5625,-14.21875 0.29824,-1.62143 0.55058,-3.28217 0.78125,-4.9375 l 0,-0.0312 c 0.23162,-1.66629 0.43506,-3.33114 0.59375,-5.03125 0.1589,-1.69992 0.2929,-3.39168 0.375,-5.125 5.3e-4,-0.0106 -5.2e-4,-0.0205 0,-0.0312 0.081,-1.72271 0.12448,-3.46365 0.125,-5.218745 l 0,-0.0312 c 0,-2.46605 -0.07,-4.91992 -0.21875,-7.34375 -6.3e-4,-0.0108 7.4e-4,-0.0205 0,-0.0312 -0.004,-0.0778 -0.0625,-0.14095 -0.0625,-0.21875 -0.29444,-4.60691 -0.81439,-9.14851 -1.625,-13.59375 -0.0325,-0.17576 -0.0611,-0.35576 -0.0937,-0.53125 -0.0357,-0.18901 -0.12045,-0.37381 -0.15625,-0.5625 -0.41178,-2.14259 -0.8481,-4.27252 -1.375,-6.375 -0.28508,-1.13787 -0.58813,-2.28047 -0.90625,-3.40625 l 0,-0.0312 c -0.31833,-1.12567 -0.6804,-2.26163 -1.03125,-3.375 l 0,-0.0312 c -0.35022,-1.11005 -0.71175,-2.21489 -1.09375,-3.3125 -0.004,-0.0132 -0.0312,-0.018 -0.0312,-0.0312 -0.66107,-1.89515 -1.37122,-3.76778 -2.125,-5.625 -0.12828,-0.31596 -0.24409,-0.62266 -0.375,-0.9375 -0.13375,-0.32202 -0.26976,-0.64791 -0.40625,-0.96875 -0.7803,-1.83275 -1.60026,-3.67493 -2.46875,-5.46875 -1.0196,-2.10615 -2.11253,-4.19917 -3.25,-6.25 l 0,-0.0312 c -1.7094,-3.08056 -3.56771,-6.08045 -5.53125,-9.03125 l 0,-0.0312 c -4.59489,-6.90222 -9.86138,-13.42414 -15.71875,-19.5625 -0.84228,-0.88271 -1.69622,-1.72775 -2.5625,-2.59375 -3.44172,-3.44177 -7.0441,-6.76798 -10.84375,-9.9375 l -85,0 c 3.66102,2.20205 7.33559,4.82035 10.9375,7.8125 0.0238,0.0198 0.0387,0.074 0.0625,0.0937 1.06562,0.88664 2.1336,1.80107 3.1875,2.75 0.0989,0.0891 0.18245,0.1604 0.28125,0.25 0.85297,0.77362 1.68784,1.56255 2.53125,2.375 0.32126,0.30939 0.64904,0.62264 0.96875,0.9375 0.37392,0.36818 0.72205,0.71823 1.09375,1.09375 0.542,0.5476 1.08812,1.12464 1.625,1.6875 0.13963,0.14638 0.29823,0.29011 0.4375,0.4375 0.0964,0.102 0.18505,0.17877 0.28125,0.28125 0.57851,0.61622 1.14697,1.24171 1.71875,1.875 0.55229,0.61165 1.11074,1.2167 1.65625,1.84375 0.12164,0.13975 0.22246,0.29701 0.34375,0.4375 0.98163,1.1377 1.94926,2.28361 2.90625,3.46875 0.31982,0.39587 0.62064,0.78655 0.9375,1.1875 0.75263,0.95254 1.5151,1.92618 2.25,2.90625 0.87153,1.16227 1.71808,2.3326 2.5625,3.53125 0.16357,0.23219 0.3375,0.454 0.5,0.6875 0.20271,0.29108 0.39274,0.61316 0.59375,0.90625 0.79272,1.15651 1.54743,2.31372 2.3125,3.5 0.95839,1.48605 1.9324,3.00236 2.84375,4.53125 0.78344,1.31431 1.53533,2.62575 2.28125,3.96875 0.12177,0.21925 0.25427,0.43627 0.375,0.65625 0.55895,1.01769 1.12026,2.06133 1.65625,3.09375 0.28842,0.55599 0.56223,1.1275 0.84375,1.6875 1.90554,3.79039 3.62876,7.65263 5.1875,11.59375 0.0878,0.22203 0.19465,0.43383 0.28125,0.65625 0.0803,0.20597 0.13945,0.41871 0.21875,0.625 0.24177,0.62978 0.48671,1.27365 0.71875,1.90625 0.13233,0.36069 0.27714,0.7322 0.40625,1.09375 0.17106,0.47916 0.33466,0.95691 0.5,1.4375 0.29021,0.84359 0.57161,1.6837 0.84375,2.53125 0.27215,0.84754 0.52768,1.6803 0.78125,2.53125 0.25307,0.84933 0.48471,1.7103 0.71875,2.5625 1.09458,3.99183 2.14245,7.94123 3.09375,11.84375 0.95123,3.90247 1.80996,7.72882 2.59375,11.531245 0.002,0.0103 -0.002,0.0207 0,0.0312 0.78167,3.7917 1.50245,7.53704 2.09375,11.21875 0.002,0.0105 -0.002,0.0207 0,0.0312 0.8868,5.52656 1.54727,10.93873 1.9375,16.1875 8e-4,0.0106 -8e-4,0.0207 0,0.0312 0.25818,3.49431 0.367,6.92343 0.375,10.28125 0.006,2.52646 -0.0402,5.02478 -0.1875,7.46875 -0.0982,1.62931 -0.2048,3.25277 -0.375,4.84375 -0.25551,2.38627 -0.60531,4.70372 -1.03125,7 -0.002,0.0104 0.002,0.0208 0,0.0312 -0.4248,2.28534 -0.95873,4.52706 -1.5625,6.71875 -0.003,0.0101 0.003,0.0208 0,0.0312 -0.40216,1.45751 -0.8587,2.89807 -1.34375,4.3125 -0.003,0.01 0.003,0.0213 0,0.0312 -0.48564,1.41414 -0.99099,2.78649 -1.5625,4.15625 -0.005,0.0129 -0.0264,0.0183 -0.0312,0.0312 -0.85892,2.05492 -1.81432,4.07999 -2.875,6.03125 -0.15757,0.29041 -0.33785,0.55568 -0.5,0.84375 -0.20474,0.3631 -0.4129,0.73441 -0.625,1.09375 -0.005,0.008 0.005,0.0233 0,0.0312 -0.37486,0.63445 -0.75814,1.25241 -1.15625,1.875 -0.005,0.008 0.005,0.0243 0,0.0312 -0.39845,0.6225 -0.79669,1.23327 -1.21875,1.84375 -0.12398,0.17965 -0.2802,0.35265 -0.40625,0.53125 -0.30922,0.43745 -0.64705,0.8814 -0.96875,1.3125 -0.005,0.007 0.005,0.0243 0,0.0312 -0.8992,1.20395 -1.84508,2.34645 -2.84375,3.5 -0.005,0.006 0.005,0.0253 0,0.0312 -2.50713,2.8937 -5.33391,5.62572 -8.5,8.1875 -0.0119,0.01 -0.0192,0.0525 -0.0312,0.0625 -1.89342,1.53005 -3.92038,3.00066 -6.0625,4.40625 -0.71849,0.47145 -1.44029,0.91789 -2.1875,1.375 -0.0129,0.008 -0.0183,0.0233 -0.0312,0.0312 -6.71668,4.10414 -14.6254,7.58844 -23.8125,10.46875 -0.73313,0.23027 -1.45482,0.4548 -2.1875,0.65625 -0.53684,0.14762 -1.0885,0.30522 -1.625,0.4375 -0.19523,0.0481 -0.39857,0.0789 -0.59375,0.125 -0.73201,0.17293 -1.42511,0.35528 -2.15625,0.5 -0.34434,0.0682 -0.68713,0.1254 -1.03125,0.1875 -0.39175,0.0706 -0.79607,0.15615 -1.1875,0.21875 -0.73005,0.11682 -1.4275,0.19205 -2.15625,0.28125 -0.15271,0.0188 -0.3161,0.0449 -0.46875,0.0625 -2.76098,0.3165 -5.5158,0.4436 -8.25,0.375 -0.7214,-0.018 -1.43715,-0.0496 -2.15625,-0.0937 -0.719,-0.0442 -1.43985,-0.0863 -2.15625,-0.15625 -2.8658,-0.27967 -5.71535,-0.78915 -8.53125,-1.46875 -0.704,-0.1699 -1.4247,-0.36837 -2.125,-0.5625 -0.7004,-0.19413 -1.3661,-0.40694 -2.0625,-0.625 -0.2268,-0.071 -0.4612,-0.114 -0.6875,-0.1875 -0.3009,-0.0978 -0.60615,-0.17908 -0.90625,-0.28125 -0.2516,-0.0856 -0.4989,-0.19255 -0.75,-0.28125 -0.0435,-0.0152 -0.082,-0.0159 -0.125,-0.0312 -1.1979,-0.42563 -2.3779,-0.91118 -3.5625,-1.40625 -0.2187,-0.0914 -0.43815,-0.18755 -0.65625,-0.28125 -0.4725,-0.20305 -0.93605,-0.41109 -1.40625,-0.625 -0.3496,-0.15899 -0.7142,-0.3038 -1.0625,-0.46875 -0.3847,-0.18223 -0.742,-0.37305 -1.125,-0.5625 -0.6739,-0.3331 -1.36255,-0.67607 -2.03125,-1.03125 -0.836,-0.444 -1.6725,-0.89704 -2.5,-1.375 -0.4947,-0.28589 -0.97725,-0.57713 -1.46875,-0.875 -0.2641,-0.15998 -0.51805,-0.3366 -0.78125,-0.5 -0.3938,-0.24461 -0.7958,-0.46651 -1.1875,-0.71875 -0.2326,-0.14975 -0.4555,-0.31634 -0.6875,-0.46875 -0.4156,-0.27326 -0.8369,-0.53072 -1.25,-0.8125 -0.3492,-0.23808 -0.7152,-0.50589 -1.0625,-0.75 -0.1477,-0.10385 -0.2902,-0.20759 -0.4375,-0.3125 -0.1485,-0.10564 -0.2894,-0.20576 -0.4375,-0.3125 -0.9235,-0.66585 -1.8401,-1.35458 -2.75,-2.0625 -0.951,-0.73983 -1.8771,-1.52774 -2.8125,-2.3125 -0.031,-0.0254 -0.0638,-0.037 -0.0937,-0.0625 -0.1065,-0.0895 -0.23745,-0.1599 -0.34375,-0.25 -0.1352,-0.11461 -0.27145,-0.25946 -0.40625,-0.375 -0.7809,-0.66922 -1.5431,-1.3313 -2.3125,-2.03125 -0.2074,-0.18866 -0.4185,-0.37163 -0.625,-0.5625 -0.0792,-0.0731 -0.171,-0.14535 -0.25,-0.21875 -0.9109,-0.84694 -1.7938,-1.70453 -2.6875,-2.59375 -0.2173,-0.21618 -0.44005,-0.4376 -0.65625,-0.65625 -0.8057,-0.81471 -1.61535,-1.65164 -2.40625,-2.5 -2.0063,-2.15209 -3.93925,-4.42144 -5.84375,-6.78125 -0.9523,-1.17991 -1.91865,-2.39555 -2.84375,-3.625 -0.9108,-1.21022 -1.8041,-2.4308 -2.6875,-3.6875 -0.023,-0.0322 -0.0395,-0.0615 -0.0625,-0.0937 -0.736,-1.04882 -1.43995,-2.13861 -2.15625,-3.21875 -0.3259,-0.49135 -0.6783,-0.97104 -1,-1.46875 -0.5267,-0.81496 -1.0471,-1.63706 -1.5625,-2.46875 -0.3705,-0.59792 -0.72925,-1.2061 -1.09375,-1.8125 -0.6181,-1.0283 -1.212,-2.04158 -1.8125,-3.09375 -2.4172,-4.23511 -4.6989,-8.68619 -6.8125,-13.28125 -0.6596,-1.43401 -1.3094,-2.87743 -1.9375,-4.34375 -0.0425,-0.0995 -0.083,-0.18165 -0.125,-0.28125 C 65.6228,137.50623 62.7241,129.31512 60.375,120.75022 47.2986,73.033145 53.1866,21.642145 92.1875,2.25e-4 l -28.1875,0 z m 184.40625,0 1.125,0.0937 84.875,0 0,-0.0937 -86,0 z M 65.9375,511.93772 c 0.0129,0.01 0.0182,0.0253 0.0312,0.0313 l 0.90625,0 c -0.3095,0 -0.629,-0.0273 -0.9375,-0.0313 z" id="rect4439" style="fill:#ffffff;fill-opacity:1;fill-rule:nonzero;stroke:none"/></g></svg>