<?xml version="1.0" encoding="utf-8"?>
<!-- Svg Vector Icons : http://www.onlinewebfonts.com/icon -->
<!DOCTYPE svg PUBLIC "-//W3C//DTD SVG 1.1//EN" "http://www.w3.org/Graphics/SVG/1.1/DTD/svg11.dtd">
<svg version="1.1" xmlns="http://www.w3.org/2000/svg" xmlns:xlink="http://www.w3.org/1999/xlink" x="0px" y="0px" viewBox="0 0 1000 1000" enable-background="new 0 0 1000 1000" xml:space="preserve">
<metadata> Svg Vector Icons : http://www.onlinewebfonts.com/icon </metadata>
<g><g><path d="M929.8,10H70.2C36.9,10,10,37,10,70.2v859.6c0,33.3,26.9,60.2,60.2,60.2h859.6c33.3,0,60.2-26.9,60.2-60.2V70.2C990,37,963.1,10,929.8,10z M657.2,103.5c-15.4-1.6-32.6,0.8-51.6,7.2c-19,6.4-30.2,15.7-33.6,28c-3.5,12.2-5.2,41.3-5.2,87.1v542.9c0,49,2,79,6,89.9c4,10.9,11.7,20,23.2,27.1c11.5,7.2,31.8,10.8,61.2,10.8v12H342.9v-12c39.5,0,64-7.6,73.6-22.8c9.6-15.1,14.4-49.7,14.4-103.5V236.2c0-56-5.3-92.6-16-109.9c-10.6-17.3-34.7-24.9-72-22.8v-12h314.3L657.2,103.5L657.2,103.5z"/></g><g></g><g></g><g></g><g></g><g></g><g></g><g></g><g></g><g></g><g></g><g></g><g></g><g></g><g></g><g></g></g>
</svg>