<?xml version="1.0" encoding="UTF-8"?><svg xmlns="http://www.w3.org/2000/svg" xmlns:xlink="http://www.w3.org/1999/xlink" viewBox="0 0 48 48" version="1.1"><g id="surface1"><path d="M6 10c0-2.21 1.79-4 4-4h28c2.21 0 4 1.79 4 4v28c0 2.21-1.79 4-4 4H10c-2.21 0-4-1.79-4-4z" fill="#CFD8DC"/><path d="M10 11h28v2H10z" fill="#B0BEC5"/><path d="M10 15h28v2H10z" fill="#B0BEC5"/><path d="M10 19h28v2H10z" fill="#B0BEC5"/><path d="M10 23h28v2H10z" fill="#B0BEC5"/><path d="M10 27h28v2H10z" fill="#B0BEC5"/><path d="M10 31h28v2H10z" fill="#B0BEC5"/><path d="M10 35h28v2H10z" fill="#B0BEC5"/><path d="M31 12.594a.35.35 0 0 1-.309.344c-1.199.14-4.347.738-4.691 1.683v18.656c.348 1.735 4.629 1.72 4.66 1.723a.344.344 0 0 1 .336.348v1.246a.342.342 0 0 1-.344.343H17.348a.348.348 0 0 1-.348-.343v-1.246c0-.192.152-.344.344-.348.035 0 4.656.074 4.656-1.723v-18.66c0-.793-3.172-1.46-4.703-1.683a.341.341 0 0 1-.297-.34v-1.246c0-.196.156-.348.348-.348h13.304c.196 0 .348.152.348.348z" fill="#37474F"/></g><metadata><rdf:RDF xmlns:rdf="http://www.w3.org/1999/02/22-rdf-syntax-ns#" xmlns:rdfs="http://www.w3.org/2000/01/rdf-schema#" xmlns:dc="http://purl.org/dc/elements/1.1/"><rdf:Description about="https://iconscout.com/legal#licenses" dc:title="instapaper" dc:description="instapaper" dc:publisher="Iconscout" dc:date="2017-12-15" dc:format="image/svg+xml" dc:language="en"><dc:creator><rdf:Bag><rdf:li>Icons8</rdf:li></rdf:Bag></dc:creator></rdf:Description></rdf:RDF></metadata></svg>