<svg width="288" height="288" xmlns="http://www.w3.org/2000/svg" xmlns:xlink="http://www.w3.org/1999/xlink" xmlns:svgjs="http://svgjs.com/svgjs"><svg xmlns="http://www.w3.org/2000/svg" viewBox="0 0 100 100" width="288" height="288" transform="translate(11.878 11.523) scale(.9167)"><g fill="#fee500" class="color000 svgShape"><path d="M61.6 20h-24c-1.6 0-2.9 1.3-2.9 2.9v23.8c0 1.6 1.3 2.9 2.9 2.9h11c-.1 2.8-1.3 5.9-3 8.6-1.9 3.1-6 6.5-6.1 6.5-.3.3-.6.7-.6 1.2 0 .4.2.7.4 1l7.7 8.6s.4.4.7.5c.3.1.7.1 1-.1C62 65.6 64 52.8 64.3 45.8V23c.2-1.7-1.1-3-2.7-3" class="color000 svgShape"/></g></svg></svg>