<svg id="SvgjsSvg1001" width="288" height="288" xmlns="http://www.w3.org/2000/svg" version="1.1" xmlns:xlink="http://www.w3.org/1999/xlink" xmlns:svgjs="http://svgjs.com/svgjs"><defs id="SvgjsDefs1002"></defs><g id="SvgjsG1008" transform="matrix(0.9167,0,0,0.9167,11.877691403961194,11.523269834136968)"><svg xmlns="http://www.w3.org/2000/svg" enable-background="new 0 0 100 100" viewBox="0 0 100 100" width="288" height="288"><g id="Layer_1" fill="#fee500" class="color000 svgShape"><path id="kakao_talk" d="M61.6,20h-24c-1.6,0-2.9,1.3-2.9,2.9v23.8c0,1.6,1.3,2.9,2.9,2.9h11c-0.1,2.8-1.3,5.9-3,8.6   c-1.9,3.1-6,6.5-6.1,6.5c-0.3,0.3-0.6,0.7-0.6,1.2c0,0.4,0.2,0.7,0.4,1l7.7,8.6c0,0,0.4,0.4,0.7,0.5c0.3,0.1,0.7,0.1,1-0.1   c13.3-10.3,15.3-23.1,15.6-30.1c0,0,0-22.8,0-22.8C64.5,21.3,63.2,20,61.6,20" fill="#fee500" class="color000 svgShape"></path></g></svg></g></svg>