<svg xmlns="http://www.w3.org/2000/svg" height="300.008" width="300"><defs><clipPath id="a" clipPathUnits="userSpaceOnUse"><path d="M0 595.28h841.89V0H0v595.28z"/></clipPath></defs><g clip-path="url(#a)" transform="matrix(1.25 0 0 -1.25 -424.52 605.652)"><path d="M535.697 483.721H383.869c-23.84.032-43.418-19.273-43.452-43.12V288.775c-.03-23.848 19.276-43.428 43.119-43.46h151.83c23.844-.03 43.414 19.274 43.45 43.125v151.83c.034 23.848-19.27 43.419-43.119 43.452" fill="#00b900"/><path d="M546.028 375c0 38.84-38.936 70.439-86.8 70.439-47.856 0-86.798-31.599-86.798-70.438 0-34.82 30.88-63.98 72.592-69.495 2.827-.609 6.674-1.864 7.647-4.28.875-2.194.573-5.632.28-7.848 0 0-1.019-6.125-1.238-7.43-.378-2.195-1.744-8.583 7.517-4.679 9.265 3.904 49.989 29.434 68.199 50.394h-.003c12.579 13.794 18.604 27.793 18.604 43.338" fill="#fff"/><path d="M441.593 393.77h-6.088a1.692 1.692 0 01-1.692-1.688v-37.821a1.69 1.69 0 011.692-1.688h6.088c.934 0 1.69.756 1.69 1.688v37.821a1.69 1.69 0 01-1.69 1.687M483.5 393.77h-6.089a1.69 1.69 0 01-1.69-1.688v-22.47l-17.332 23.407a1.87 1.87 0 01-.131.171l-.012.01a1.521 1.521 0 01-.102.105l-.031.028a.974.974 0 01-.09.075c-.013.014-.028.024-.043.035-.03.02-.059.042-.089.06a.32.32 0 01-.051.03c-.03.018-.06.037-.09.052-.018.008-.035.018-.053.025a.992.992 0 01-.097.041l-.055.02c-.033.012-.066.023-.101.032l-.058.016-.097.022a1.047 1.047 0 01-.071.008c-.03.007-.06.009-.09.012-.029.003-.057.003-.087.005-.021 0-.038.003-.06.003h-6.086a1.692 1.692 0 01-1.693-1.687v-37.821a1.69 1.69 0 011.693-1.688h6.086a1.69 1.69 0 011.693 1.688v22.463l17.353-23.437a1.675 1.675 0 01.446-.43c.035-.022.07-.044.105-.064.016-.01.031-.017.048-.025a.715.715 0 01.08-.04l.083-.035c.017-.006.033-.013.05-.018.04-.015.076-.027.115-.038.008 0 .016-.004.025-.005.138-.037.282-.059.432-.059h6.089c.935 0 1.69.756 1.69 1.688v37.821a1.69 1.69 0 01-1.69 1.687M426.917 362.044h-16.543v30.036a1.69 1.69 0 01-1.689 1.69h-6.09a1.69 1.69 0 01-1.69-1.69v-37.818a1.68 1.68 0 01.496-1.193l.025-.024a1.676 1.676 0 011.168-.472h24.323a1.69 1.69 0 011.687 1.692v6.088c0 .934-.753 1.69-1.687 1.69M517.122 384.3c.933 0 1.687.755 1.687 1.69v6.088a1.69 1.69 0 01-1.687 1.692h-24.325c-.456 0-.867-.183-1.172-.477-.007-.007-.015-.012-.02-.019-.01-.01-.018-.02-.026-.03a1.68 1.68 0 01-.47-1.164v-37.818a1.68 1.68 0 01.521-1.217 1.68 1.68 0 011.167-.472h24.325a1.69 1.69 0 011.687 1.69v6.09a1.69 1.69 0 01-1.687 1.69H500.58v6.394h16.542c.933 0 1.687.757 1.687 1.69v6.089a1.69 1.69 0 01-1.687 1.692H500.58v6.391h16.542z" fill="#00b900"/></g></svg>