<svg xmlns="http://www.w3.org/2000/svg" height="200" width="200" version="1.0"><defs><linearGradient id="a" y2="425.4" gradientUnits="userSpaceOnUse" x2="-395.85" gradientTransform="matrix(-.50335 0 0 .50335 -148.18 -158.802)" y1="274.71" x1="-344.15"><stop stop-color="#FFF" offset="0"/><stop stop-color="#FFF" stop-opacity="0" offset="1"/></linearGradient></defs><rect transform="scale(-1 1)" rx="30.201" ry="30.201" height="199.98" width="200" y=".011" x="-200" fill="#069"/><path opacity=".781" d="M147.16 8.561H52.84c-24.967 0-45.066 20.263-45.066 45.433v92.02c.808 19.647 3.917 7.227 9.834-14.53 6.877-25.288 29.273-47.389 56.547-63.953 20.817-12.642 44.119-20.715 86.533-21.483 24.054-.435 21.93-31.218-13.527-37.487z" fill="url(#a)"/><path d="M63.992 167.85V76.966H33.784v90.884h30.208zm-15.1-103.3c10.534 0 17.091-6.979 17.091-15.7-.196-8.918-6.557-15.703-16.891-15.703-10.333 0-17.09 6.785-17.09 15.703 0 8.722 6.555 15.7 16.693 15.7h.196zM80.712 167.85h30.208v-50.754c0-2.716.196-5.43.994-7.372 2.184-5.427 7.154-11.047 15.499-11.047 10.931 0 15.304 8.334 15.304 20.551v48.622h30.206v-52.112c0-27.916-14.903-40.905-34.778-40.905-16.296 0-23.451 9.108-27.426 15.313h.202V76.965H80.713c.396 8.528 0 90.884 0 90.884z" fill="#FFF"/></svg>