<svg xmlns="http://www.w3.org/2000/svg" viewBox="0 0 32 32">
    <path fill="#00B0EA" d="M15.861,1.919c-1.972,0-3.846,0.411-5.547,1.146L7.245,0H7.238 C3.998,1.419,1.401,4.029,0,7.28l3.074,3.071l-0.002,0.003c-0.742,1.704-1.184,3.56-1.184,5.538 c0,7.72,6.255,13.974,13.973,13.974c7.715,0,13.972-6.256,13.972-13.974C29.833,8.176,23.577,1.919,15.861,1.919"/>
    <path fill="#15374C" d="M14.437,21.696c1.4-3.251,3.999-5.861,7.238-7.281h0.002L10.316,3.071 L10.311,3.07c-3.242,1.42-5.839,4.029-7.239,7.282L14.437,21.696z"/>
    <path fill="#15374C" d="M22.489,18.29c-1.882,0.824-3.39,2.343-4.205,4.229l5.306,1.097L22.489,18.29z"/>
    <path fill="#FFFFFF" d="M22.489,18.292c-0.427-2.037-0.812-3.876-0.812-3.876l-0.004,0.001 c-3.238,1.42-5.836,4.029-7.237,7.28l3.848,0.822C19.101,20.639,20.612,19.114,22.489,18.292"/>
</svg>
