<?xml version="1.0" encoding="UTF-8"?><svg xmlns="http://www.w3.org/2000/svg" xmlns:xlink="http://www.w3.org/1999/xlink" width="72px" height="72px" viewBox="0 0 72 72" version="1.1"><title>livejournal</title><g id="providers-list" stroke="none" stroke-width="1" fill="none" fill-rule="evenodd"><g id="livejournal"><rect id="Rectangle-9" fill="#2EA5D1" x="0" y="0" width="72" height="72" rx="4"/><g transform="translate(15.000000, 15.000000)"><path d="M21.252 2.75c-2.614 0-5.098.545-7.352 1.52L9.832.206h-.01A18.583 18.583 0 0 0 .23 9.857l4.074 4.07-.002.004c-.984 2.258-1.57 4.718-1.57 7.34 0 10.231 8.291 18.522 18.52 18.522 10.227 0 18.52-8.293 18.52-18.522 0-10.228-8.292-18.52-18.52-18.52" id="Fill-1" fill="#FFF"/><path d="M19.269 28.87L4.205 13.835A18.571 18.571 0 0 1 13.8 4.183l.007.002L28.865 19.22h-.002a18.592 18.592 0 0 0-9.594 9.649zm10.673-4.513l1.459 7.06-7.033-1.455a10.808 10.808 0 0 1 5.574-5.605z" id="Fill-4" fill="#1A2E3B"/></g></g></g><metadata><rdf:RDF xmlns:rdf="http://www.w3.org/1999/02/22-rdf-syntax-ns#" xmlns:rdfs="http://www.w3.org/2000/01/rdf-schema#" xmlns:dc="http://purl.org/dc/elements/1.1/"><rdf:Description about="https://iconscout.com/legal#licenses" dc:title="livejournal" dc:description="livejournal" dc:publisher="Iconscout" dc:date="2017-09-26" dc:format="image/svg+xml" dc:language="en"><dc:creator><rdf:Bag><rdf:li>Luc Chaffard</rdf:li></rdf:Bag></dc:creator></rdf:Description></rdf:RDF></metadata></svg>