<svg height="512" width="512" xmlns="http://www.w3.org/2000/svg"><path d="M511.994 256c0 141.387-114.607 255.996-255.996 255.996C114.613 511.988.006 397.387.006 256 .006 114.619 114.613.004 255.998.004 397.387.012 511.994 114.619 511.994 256z" fill="#00659B"/><path d="M136.828 181.656l121.787 193.561 110.436 110.467c51.953-25.609 93.944-68.32 118.646-120.795L236.795 113.986l-66.279 13.688-33.688 53.982z" opacity=".15"/><path d="M370.082 290.811l-.039.016L240.1 117.502l-.016.016c-7.188-8.875-18.616-13.227-31.796-13.227-16.023 0-34.593 6.43-51.202 19.023-30.32 22.951-42.832 57.834-28.43 78.592l-.016.016L258.584 375.24l.031-.023 111.709 32.482-.242-116.888zm-37.483 66.554c-4.297 3.258-7.148 7.727-8.461 12.57l-47.702-13.875c11.461-17.547 15.234-39.141 10.57-59.484 18.164 10.117 39.851 12.438 59.819 6.172l.125 49.914c-5-.07-10.054 1.438-14.351 4.703zm-99.687-210.592l12.227 16.32c-14.281 1.547-29.983 7.813-44.241 18.609-14.296 10.828-24.632 24.297-30.054 37.68l-12.203-16.305c.445-2.063 1.016-3.914 1.531-5.453 2.094-6 5.391-11.961 9.781-17.773 4.664-6.188 10.391-11.836 16.945-16.82 6.554-4.961 13.538-8.906 20.741-11.719 6.758-2.648 13.391-4.188 19.702-4.539a45.845 45.845 0 015.571 0zm40.703 120.959l-59.421-79.264c4.945-3.219 10.093-5.875 15.366-7.938 6.742-2.641 13.391-4.164 19.703-4.555a55.56 55.56 0 015.563.023l86.054 114.764a63.103 63.103 0 01-25.577 1.641c-16.719-2.374-31.516-11.132-41.688-24.671zm-93.068-35.419c.445-2.063 1.016-3.906 1.539-5.445 2.109-5.992 5.383-11.984 9.797-17.789 3.405-4.531 7.382-8.766 11.812-12.656l59.405 79.264-.016.016c10.164 13.531 14.477 30.25 12.125 47.047a63.83 63.83 0 01-8.625 24.297l-86.037-114.734zm-9.461-90.336c6.273-4.742 12.922-8.43 19.758-10.93 6.069-2.203 12.108-3.365 17.444-3.365 6.367 0 11.383 1.662 13.742 4.592l1.203 1.57c-14.281 1.578-29.984 7.836-44.241 18.633-14.297 10.82-24.633 24.297-30.039 37.688l-1.219-1.633c-5.351-7.704 1.071-29.688 23.352-46.555z" fill="#F4F6F9"/></svg>