<?xml version="1.0" ?><!DOCTYPE svg  PUBLIC '-//W3C//DTD SVG 1.1//EN'  'http://www.w3.org/Graphics/SVG/1.1/DTD/svg11.dtd'><svg enable-background="new 0 0 512 512" height="512px" id="Слой_1" version="1.1" viewBox="0 0 512 512" width="512px" xml:space="preserve" xmlns="http://www.w3.org/2000/svg" xmlns:xlink="http://www.w3.org/1999/xlink"><g id="livejournal"><g><path d="M511.994,256c0,141.387-114.607,255.996-255.996,255.996C114.613,511.988,0.006,397.387,0.006,256    c0-141.381,114.607-255.996,255.992-255.996C397.387,0.012,511.994,114.619,511.994,256z" fill="#00659B"/><path d="M136.828,181.656l121.787,193.561l110.436,110.467c51.953-25.609,93.944-68.32,118.646-120.795    L236.795,113.986l-66.279,13.688L136.828,181.656z" opacity="0.15"/></g><path d="M370.082,290.811l-0.039,0.016L240.1,117.502l-0.016,0.016   c-7.188-8.875-18.616-13.227-31.796-13.227c-16.023,0-34.593,6.43-51.202,19.023c-30.32,22.951-42.832,57.834-28.43,78.592   l-0.016,0.016L258.584,375.24l0.031-0.023l111.709,32.482L370.082,290.811z M332.599,357.365c-4.297,3.258-7.148,7.727-8.461,12.57   l-47.702-13.875c11.461-17.547,15.234-39.141,10.57-59.484c18.164,10.117,39.851,12.438,59.819,6.172l0.125,49.914   C341.95,352.592,336.896,354.1,332.599,357.365z M232.912,146.773l12.227,16.32c-14.281,1.547-29.983,7.813-44.241,18.609   c-14.296,10.828-24.632,24.297-30.054,37.68l-12.203-16.305c0.445-2.063,1.016-3.914,1.531-5.453   c2.094-6,5.391-11.961,9.781-17.773c4.664-6.188,10.391-11.836,16.945-16.82c6.554-4.961,13.538-8.906,20.741-11.719   c6.758-2.648,13.391-4.188,19.702-4.539C228.951,146.68,230.842,146.641,232.912,146.773z M273.615,267.732l-59.421-79.264   c4.945-3.219,10.093-5.875,15.366-7.938c6.742-2.641,13.391-4.164,19.703-4.555c1.594-0.07,3.484-0.094,5.563,0.023l86.054,114.764   c-8.227,2.266-16.891,2.859-25.577,1.641C298.584,290.029,283.787,281.271,273.615,267.732z M180.547,232.313   c0.445-2.063,1.016-3.906,1.539-5.445c2.109-5.992,5.383-11.984,9.797-17.789c3.405-4.531,7.382-8.766,11.812-12.656l59.405,79.264   l-0.016,0.016c10.164,13.531,14.477,30.25,12.125,47.047c-1.219,8.766-4.203,16.992-8.625,24.297L180.547,232.313z    M171.086,141.977c6.273-4.742,12.922-8.43,19.758-10.93c6.069-2.203,12.108-3.365,17.444-3.365c6.367,0,11.383,1.662,13.742,4.592   l1.203,1.57c-14.281,1.578-29.984,7.836-44.241,18.633c-14.297,10.82-24.633,24.297-30.039,37.688l-1.219-1.633   C142.383,180.828,148.805,158.844,171.086,141.977z" fill="#F4F6F9" id="Livejournal_1_"/></g></svg>