<svg width="48" height="48" fill="none" xmlns="http://www.w3.org/2000/svg"><path d="M0 24C0 10.745 10.745 0 24 0s24 10.745 24 24-10.745 24-24 24S0 37.255 0 24z" fill="#005FF9"/><path fill-rule="evenodd" clip-rule="evenodd" d="M10 23.96C10 16.262 16.28 10 24 10s14 6.262 14 13.96c0 1.09-.091 1.974-.295 2.86l-.003.014c0 .003-.102.412-.158.59-.346 1.103-.972 2.022-1.811 2.657a4.736 4.736 0 01-3.219.941 4.554 4.554 0 01-3.497-2.085A7.035 7.035 0 0124 31.022c-3.905 0-7.082-3.168-7.082-7.062 0-3.893 3.177-7.061 7.082-7.061 3.904 0 7.081 3.168 7.081 7.061v2.277c.006 1.328.9 1.87 1.663 1.932.76.059 1.771-.383 2.123-1.823.174-.79.262-1.593.262-2.386 0-6.12-4.992-11.098-11.13-11.098-6.136 0-11.129 4.979-11.129 11.098 0 6.12 4.993 11.099 11.13 11.099 2.136 0 4.214-.609 6.008-1.76l.032-.02 1.886 2.186-.04.028A13.946 13.946 0 0124 37.92c-7.72 0-14-6.263-14-13.96zm14 4.2a4.21 4.21 0 004.21-4.2A4.21 4.21 0 0024 19.761a4.21 4.21 0 00-4.211 4.2 4.21 4.21 0 004.21 4.199z" fill="#FF9E00"/></svg>