<svg viewBox="0 0 24 24" xmlns="http://www.w3.org/2000/svg"><path d="M18.848 1H5.152A4.157 4.157 0 001 5.152V12c0 6.065 4.935 11 11 11s11-4.935 11-11V5.152A4.157 4.157 0 0018.848 1z" fill="#EC1D46"/><path d="M12 22.75c-6.065 0-11-4.935-11-11V12c0 6.065 4.935 11 11 11s11-4.935 11-11v-.25c0 6.065-4.935 11-11 11z" fill="#010101" opacity=".1"/><path d="M18.848 1H5.152A4.157 4.157 0 001 5.152v.25A4.157 4.157 0 015.152 1.25h13.696A4.157 4.157 0 0123 5.402v-.25A4.157 4.157 0 0018.848 1z" fill="#FFF" opacity=".2"/><path d="M19.414 7.586a2.001 2.001 0 00-2.828 0L12 12.172 7.414 7.586A2.001 2.001 0 004 9c0 .534.208 1.037.586 1.414l5.164 5.164c.602.602 1.4.933 2.25.933s1.648-.331 2.25-.933l5.164-5.164c.378-.377.586-.88.586-1.414s-.208-1.037-.586-1.414z" fill="#FFF"/><path d="M19.414 10.164l-5.164 5.164c-.602.602-1.4.933-2.25.933s-1.648-.331-2.25-.933l-5.164-5.164a1.978 1.978 0 01-.574-1.289C4.01 8.917 4 8.958 4 9c0 .534.208 1.037.586 1.414l5.164 5.164c.602.602 1.4.933 2.25.933s1.648-.331 2.25-.933l5.164-5.164c.378-.377.586-.88.586-1.414 0-.042-.01-.083-.012-.125-.03.487-.226.942-.574 1.29z" fill="#010101" opacity=".1"/><linearGradient gradientUnits="userSpaceOnUse" id="a" x1="14.164" x2="21.274" y1="11.164" y2="18.274"><stop offset="0" stop-color="#010101" stop-opacity=".1"/><stop offset="1" stop-color="#010101" stop-opacity="0"/></linearGradient><path d="M19.414 7.586c.378.377.586.88.586 1.414s-.208 1.037-.586 1.414l-5.164 5.164c-.602.602-1.4.933-2.25.933s-1.648-.331-2.25-.933l6.547 6.547C20.233 20.448 23 16.542 23 12v-.828l-3.586-3.586z" fill="url(#a)"/><linearGradient gradientUnits="userSpaceOnUse" id="b" x1=".466" x2="22.445" y1="5.379" y2="15.628"><stop offset="0" stop-color="#fff" stop-opacity=".2"/><stop offset="1" stop-color="#fff" stop-opacity="0"/></linearGradient><path d="M18.848 1H5.152A4.157 4.157 0 001 5.152V12c0 6.065 4.935 11 11 11s11-4.935 11-11V5.152A4.157 4.157 0 0018.848 1z" fill="url(#b)"/></svg>