<?xml version="1.0" ?><svg enable-background="new 0 0 24 24" id="Layer_1" version="1.1" viewBox="0 0 24 24" xml:space="preserve" xmlns="http://www.w3.org/2000/svg" xmlns:xlink="http://www.w3.org/1999/xlink"><g><path d="M18.8476563,1H5.1523438C2.862793,1,1,2.862793,1,5.1523438V12c0,6.0654297,4.9345703,11,11,11   s11-4.9345703,11-11V5.1523438C23,2.862793,21.137207,1,18.8476563,1z" fill="#EC1D46"/><path d="M12,22.75c-6.0654297,0-11-4.9345703-11-11V12c0,6.0654297,4.9345703,11,11,11   s11-4.9345703,11-11v-0.25C23,17.8154297,18.0654297,22.75,12,22.75z" fill="#010101" opacity="0.1"/><path d="M18.8476563,1H5.1523438C2.862793,1,1,2.862793,1,5.1523438v0.25   C1,3.112793,2.862793,1.25,5.1523438,1.25h13.6953125C21.137207,1.25,23,3.112793,23,5.4023438v-0.25   C23,2.862793,21.137207,1,18.8476563,1z" fill="#FFFFFF" opacity="0.2"/><path d="M19.4140625,7.5859375c-0.7792969-0.7802734-2.0488281-0.7802734-2.828125,0L12,12.171875   L7.4140625,7.5859375c-0.7792969-0.7802734-2.0488281-0.7802734-2.828125,0C4.2080078,7.9633789,4,8.4658203,4,9   s0.2080078,1.0366211,0.5859375,1.4140625L9.75,15.578125c0.6015625,0.6015625,1.4003906,0.9326172,2.25,0.9326172   s1.6484375-0.3310547,2.25-0.9326172l5.1640625-5.1640625C19.7919922,10.0366211,20,9.5341797,20,9   S19.7919922,7.9633789,19.4140625,7.5859375z" fill="#FFFFFF"/><path d="M19.4140625,10.1640625L14.25,15.328125   c-0.6015625,0.6015625-1.4003906,0.9326172-2.25,0.9326172s-1.6484375-0.3310547-2.25-0.9326172l-5.1640625-5.1640625   C4.2380371,9.8165894,4.0423584,9.3615723,4.012207,8.875C4.0095825,8.9169922,4,8.9575806,4,9   c0,0.5341797,0.2080078,1.0366211,0.5859375,1.4140625L9.75,15.578125c0.6015625,0.6015625,1.4003906,0.9326172,2.25,0.9326172   s1.6484375-0.3310547,2.25-0.9326172l5.1640625-5.1640625C19.7919922,10.0366211,20,9.5341797,20,9   c0-0.0424194-0.0095825-0.0830078-0.012207-0.125C19.9576416,9.3615723,19.7619629,9.8165894,19.4140625,10.1640625z" fill="#010101" opacity="0.1"/><linearGradient gradientUnits="userSpaceOnUse" id="SVGID_1_" x1="14.1640625" x2="21.2740211" y1="11.1640625" y2="18.2740211"><stop offset="0" style="stop-color:#010101;stop-opacity:0.1"/><stop offset="1" style="stop-color:#010101;stop-opacity:0"/></linearGradient><path d="M19.4140625,7.5859375C19.7919922,7.9633789,20,8.4658203,20,9   s-0.2080078,1.0366211-0.5859375,1.4140625L14.25,15.578125c-0.6015625,0.6015625-1.4003906,0.9326172-2.25,0.9326172   s-1.6484375-0.3310547-2.25-0.9326172l6.546814,6.546814C20.2330322,20.4481201,23,16.5415039,23,12v-0.828125   L19.4140625,7.5859375z" fill="url(#SVGID_1_)"/><linearGradient gradientUnits="userSpaceOnUse" id="SVGID_2_" x1="0.4655069" x2="22.4448795" y1="5.378581" y2="15.6277313"><stop offset="0" style="stop-color:#FFFFFF;stop-opacity:0.2"/><stop offset="1" style="stop-color:#FFFFFF;stop-opacity:0"/></linearGradient><path d="M18.8476563,1H5.1523438C2.862793,1,1,2.862793,1,5.1523438V12c0,6.0654297,4.9345703,11,11,11   s11-4.9345703,11-11V5.1523438C23,2.862793,21.137207,1,18.8476563,1z" fill="url(#SVGID_2_)"/></g><g/><g/><g/><g/><g/><g/><g/><g/><g/><g/><g/><g/><g/><g/><g/></svg>