<?xml version="1.0" encoding="utf-8"?>
<!-- Generator: Adobe Illustrator 19.0.1, SVG Export Plug-In . SVG Version: 6.00 Build 0)  -->
<svg version="1.1" id="Layer_1" xmlns="http://www.w3.org/2000/svg" xmlns:xlink="http://www.w3.org/1999/xlink" x="0px" y="0px"
	 viewBox="0 0 700 700" style="enable-background:new 0 0 700 700;" xml:space="preserve">
<style type="text/css">
	.st0{fill:#FFFFFF;}
	.st1{fill:#0985DD;}
</style>
<g>
	<g id="XMLID_1_">
		<g>
			<path class="st0" d="M518.3,305.5c4.2,0.4,6.3,2.9,6.3,7.3c0,2-0.6,3.6-1.7,5l-81.7,75.7l2.6,15.6c-6.2,0.9-13.2,1.3-20.9,1.3
				c-13.1,0-29.5-0.8-49.5-2.3l-47.1-3.7l112.2-78.7c-21.5-5.8-45-8.6-70.7-8.6c-1.8,0-10.2,0.1-25.2,0.3c-15.1,0.2-33.2,1.6-54.5,4
				c-22.4,3.1-34.4,4.8-36.2,5h0.7c2.9,0,12.3,0.3,28.2,1c15.9,0.7,33.7,1.8,53.3,3.3c19.6,1.6,36.1,3.3,49.6,5.3l-111.9,82h3
				c10.6,1.3,33.2,2.6,67.7,4c7.3,0.7,14.6,1,21.9,1c27.2,0,53.7-2.2,79.4-6.6c8.4-1.8,16.2-4.2,23.3-7.3c-2.9,3.3-6.3,6.2-10.3,8.6
				l-10.6,5.6c9.7,56.9,14.6,85.7,14.6,86.3c0,2.2-0.9,4.1-2.7,5.6c-1.8,0.9-3.4,1.3-5,1.3c-1.3,0-2.4-0.2-3.3-0.7l-98.6-58.1
				l-100.3,57.8c-1.3,0.7-2.5,1-3.7,1c-1.8,0-3.2-0.4-4.3-1.3c-2.2-1.8-3.3-3.8-3.3-6c0-0.5,7-39.1,20.9-115.9L178,317.8
				c-1.8-1.3-2.7-3.1-2.7-5.3c0-0.4,0.2-1.1,0.7-2c0.9-2.9,3-4.5,6.3-5l111.2-12.6L343.7,188c1.8-3.1,4-4.6,6.6-4.6
				c3.1,0,5.3,1.5,6.6,4.6l49.1,107.2L518.3,305.5z"/>
			<path class="st1" d="M280.9,327.4c-15.9-0.7-25.4-1-28.2-1h-0.7c1.8-0.2,13.8-1.9,36.2-5c21.3-2.4,39.4-3.8,54.5-4
				c15-0.2,23.4-0.3,25.2-0.3c25.7,0,49.3,2.9,70.7,8.6l-112.2,78.7l47.1,3.7c19.9,1.6,36.4,2.3,49.5,2.3c7.7,0,14.7-0.4,20.9-1.3
				l-2.6-15.6l81.7-75.7c1.1-1.3,1.7-3,1.7-5c0-4.4-2.1-6.9-6.3-7.3l-112.2-10.3L357,188c-1.3-3.1-3.5-4.6-6.6-4.6
				c-2.6,0-4.9,1.5-6.6,4.6l-50.1,104.9l-111.2,12.6c-3.3,0.4-5.4,2.1-6.3,5c-0.4,0.9-0.7,1.6-0.7,2c0,2.2,0.9,4,2.7,5.3l82.7,75.7
				c-13.9,76.8-20.9,115.4-20.9,115.9c0,2.2,1.1,4.2,3.3,6c1.1,0.9,2.5,1.3,4.3,1.3c1.1,0,2.3-0.3,3.7-1l100.3-57.8l98.6,58.1
				c0.9,0.4,2,0.7,3.3,0.7c1.5,0,3.2-0.4,5-1.3c1.8-1.5,2.7-3.4,2.7-5.6c0-0.7-4.9-29.4-14.6-86.3l10.6-5.6c4-2.4,7.4-5.3,10.3-8.6
				c-7.1,3.1-14.8,5.5-23.3,7.3c-25.7,4.4-52.1,6.6-79.4,6.6c-7.3,0-14.6-0.3-21.9-1c-34.5-1.3-57.1-2.7-67.7-4h-3l111.9-82
				c-13.5-2-30-3.8-49.6-5.3C314.6,329.2,296.9,328.1,280.9,327.4z M653.6,224.5c16.5,39.8,24.7,81.7,24.7,125.5
				s-8.3,85.7-24.7,125.5c-16.5,39.8-40.3,75.4-71.5,106.6c-31.2,31.2-66.7,55.1-106.6,71.5c-39.9,16.5-81.7,24.7-125.5,24.7
				s-85.7-8.3-125.5-24.7c-39.8-16.5-75.4-40.3-106.6-71.5c-31.2-31.2-55.1-66.7-71.6-106.6C29.9,435.7,21.6,393.8,21.6,350
				s8.2-85.7,24.7-125.5c16.5-39.8,40.3-75.4,71.6-106.6s66.7-55.1,106.6-71.6c39.8-16.5,81.7-24.7,125.5-24.7s85.7,8.3,125.5,24.7
				c39.8,16.5,75.4,40.3,106.6,71.6C613.3,149.1,637.2,184.6,653.6,224.5z"/>
		</g>
		<g>
		</g>
	</g>
</g>
</svg>
