<svg xmlns="http://www.w3.org/2000/svg" viewBox="0 0 224.235 224.235"><path d="M170.012 148.208c-18.196-1.054-36.668-1.925-54.818-3.575-2.613-.229-3.804-3.942-1.604-5.179a2.13 2.13 0 01.642-1.329c7.929-7.746 19.205-12.559 27.868-19.846 4.904-4.079 9.763-8.204 14.621-12.329 1.008-.825 7.013-6.096 10.954-8.525-34.88-8.342-67.01-8.525-102.349-5.225 1.375.55 2.704 1.054 4.125 1.421 5.958 1.558 12.284 2.338 18.38 3.392a517.661 517.661 0 0022.413 3.483c3.896.504 8.709.229 12.146 2.383 3.346 2.154 2.888 6.784 0 8.617-5.592 10.313-16.913 17.417-26.126 24.247-8.525 6.279-16.913 12.467-24.98 19.159 28.601 11.917 68.11-.138 99.049-.138 1.65 0 3.254 0 4.813.092 2.613.137 4.217 2.521 4.217 4.813 0 .871-.229 1.742-.779 2.429.367 18.288 3.071 35.934 8.113 53.489.825 2.888-1.008 5.638-3.713 6.554-11.55 3.896-27.226-12.971-36.118-19.021-11.871-8.021-24.017-15.905-35.247-24.934-7.884 8.525-17.784 15.721-26.768 22.596-11.367 8.663-23.788 18.517-37.768 22.138-1.513.413-2.704-.458-3.208-1.65-1.238-.412-2.246-1.421-2.2-3.025.917-25.988 4.4-54.818 10.771-80.486-19.067-11.873-35.338-28.786-50.922-44.69-2.796-2.888-1.604-8.067 2.429-9.121 24.613-6.417 49.456-10.496 74.711-12.375 6.188-23.467 17.692-46.156 28.463-67.698 1.742-3.438 7.746-3.667 9.396 0 10.496 23.101 23.101 45.056 34.101 67.835 7.838.321 15.538 2.704 23.376 4.217a464.09 464.09 0 0045.01 6.325c6.096.596 6.875 9.075 2.246 10.725 0 .046 0 .092-.046.138-8.204 10.542-18.609 19.846-28.005 29.334-5.546 5.638-11.55 14.209-19.067 17.738.183 1.604.367 3.208.367 4.813 0 1.329-.963 2.292-2.108 2.613-.596.321-1.283.596-2.154.596l-.231-.001z" fill="#fcee21"/></svg>