<?xml version="1.0" ?><svg viewBox="0 0 64 64" xmlns="http://www.w3.org/2000/svg"><defs><style>.cls-1{fill:#fff;}.cls-2{fill:#808285;}.cls-3{fill:#ffcf36;}.cls-4{fill:#f9a42e;}</style></defs><title/><g data-name="11-qzone" id="_11-qzone"><rect class="cls-1" height="64" rx="11.2" ry="11.2" width="64"/><path class="cls-2" d="M52.8,1.07A10.14,10.14,0,0,1,62.93,11.2V52.8A10.14,10.14,0,0,1,52.8,62.93H11.2A10.14,10.14,0,0,1,1.07,52.8V11.2A10.14,10.14,0,0,1,11.2,1.07H52.8M52.8,0H11.2A11.19,11.19,0,0,0,0,11.2V52.8A11.19,11.19,0,0,0,11.2,64H52.8A11.19,11.19,0,0,0,64,52.8V11.2A11.19,11.19,0,0,0,52.8,0Z"/><path class="cls-3" d="M32,49.34,46.7,55.4a.8.8,0,0,0,1.1-.85L45.5,38.84,56.34,27a.8.8,0,0,0-.43-1.33l-15.31-3L32.69,8.94a.79.79,0,0,0-1.38,0L23.4,22.64l-15.31,3A.8.8,0,0,0,7.66,27L18.5,38.84,16.2,54.55a.8.8,0,0,0,1.1.85Z"/><path class="cls-4" d="M30.49,33.82c-.92-2.42-12-4.94-12-4.94s18.9-2.46,25.1,0c1.2.56-10.8,10.76-10.8,10.76H49.9l-3.74,3.74.41,2.78S23.35,48,20.35,42.79Z"/><path class="cls-1" d="M18.5,28.88a.2.2,0,0,1-.13-.37A30.92,30.92,0,0,1,33.6,25.34c5.27,0,8.3,1.87,9.09,2.44a.2.2,0,0,1,0,.32L31.55,36.84a.2.2,0,0,0,0,.34c1.2.57,6.32,2.61,17.09,2.12a.2.2,0,0,1,.09.38C45.5,41,35.7,44.84,20.35,42.79a.2.2,0,0,1-.11-.35c1.89-1.66,11.21-9.77,14.3-11.56a.19.19,0,0,0,0-.33C33.69,29.93,29.32,28.1,18.5,28.88Z"/></g></svg>