<?xml version="1.0" ?><!DOCTYPE svg  PUBLIC '-//W3C//DTD SVG 1.1//EN'  'http://www.w3.org/Graphics/SVG/1.1/DTD/svg11.dtd'><svg height="512px" style="enable-background:new 0 0 512 512;" version="1.1" viewBox="0 0 512 512" width="512px" xml:space="preserve" xmlns="http://www.w3.org/2000/svg" xmlns:xlink="http://www.w3.org/1999/xlink"><g id="_x32_78-renren"><g><g><path d="M217.049,173.321c0,102.387-56.573,190.492-136.888,229.444     c-33.758-40.156-54.16-91.63-54.16-148.296c0-113.793,82.632-208.112,191.048-226.383V173.321z M255.073,483.913     c-39.787,0-77.253-10.2-109.899-28.194c53.049-33.479,95.894-84.115,109.899-143.378     c14.375,59.263,57.222,109.899,110.177,143.472C332.698,473.713,295.229,483.913,255.073,483.913z M431.838,402.766     c-80.313-38.952-136.886-126.967-136.886-229.444V28.087c108.414,18.271,191.047,112.59,191.047,226.383     C485.999,311.136,465.597,362.609,431.838,402.766z" style="fill:#01579B;"/></g></g></g><g id="Layer_1"/></svg>