<?xml version="1.0" encoding="UTF-8" standalone="no" ?>
<!DOCTYPE svg PUBLIC "-//W3C//DTD SVG 1.1//EN" "http://www.w3.org/Graphics/SVG/1.1/DTD/svg11.dtd">
<svg xmlns="http://www.w3.org/2000/svg" xmlns:xlink="http://www.w3.org/1999/xlink" version="1.1" width="350" height="350" viewBox="0 0 350 350" xml:space="preserve">
<desc>Created with Fabric.js 1.7.22</desc>
<defs>
</defs>
<g id="icon" style="stroke: none; stroke-width: 1; stroke-dasharray: none; stroke-linecap: butt; stroke-linejoin: miter; stroke-miterlimit: 10; fill: none; fill-rule: nonzero; opacity: 1;" transform="translate(-1.9444444444444287 -1.9444444444444287) scale(3.89 3.89)" >
	<circle cx="25.472" cy="45.002" r="25.472" style="stroke: none; stroke-width: 1; stroke-dasharray: none; stroke-linecap: butt; stroke-linejoin: miter; stroke-miterlimit: 10; fill: rgb(255,255,255); fill-rule: nonzero; opacity: 1;" transform="  matrix(1 0 0 1 0 0) "/>
	<circle cx="64.53200000000001" cy="45.002" r="25.472" style="stroke: none; stroke-width: 1; stroke-dasharray: none; stroke-linecap: butt; stroke-linejoin: miter; stroke-miterlimit: 10; fill: rgb(255,255,255); fill-rule: nonzero; opacity: 1;" transform="  matrix(1 0 0 1 0 0) "/>
	<path d="M 21.228 36.003 V 19.887 C 9.181 21.908 0 32.379 0 45 c 0 6.273 2.272 12.012 6.032 16.451 C 14.95 57.134 21.184 47.37 21.228 36.003 L 21.228 36.003 z M 25.474 51.431 C 23.888 58 19.148 63.616 13.243 67.347 c 3.63 1.991 7.797 3.125 12.229 3.125 c 4.433 0 8.601 -1.135 12.231 -3.126 C 31.799 63.615 27.06 57.999 25.474 51.431 L 25.474 51.431 z M 44.912 28.548 c -3.805 -4.489 -9.136 -7.644 -15.194 -8.661 v 15.995 h 0.001 c 0 11.416 6.244 21.23 15.19 25.565 C 41.151 57.009 38.881 51.271 38.881 45 C 38.881 38.727 41.15 32.986 44.912 28.548 L 44.912 28.548 z M 44.912 28.548 c 3.761 4.437 6.207 10.178 6.207 16.452 c 0 6.272 -2.447 12.01 -6.206 16.449 c -0.001 -0.001 -0.002 -0.001 -0.003 -0.001 c 0.001 0.001 0.002 0.002 0.003 0.004 c 8.918 -4.317 15.327 -14.081 15.371 -25.448 V 19.887 C 54.226 20.904 48.717 24.058 44.912 28.548 L 44.912 28.548 z" style="stroke: none; stroke-width: 1; stroke-dasharray: none; stroke-linecap: butt; stroke-linejoin: miter; stroke-miterlimit: 10; fill: rgb(0,94,172); fill-rule: nonzero; opacity: 1;" transform=" matrix(1 0 0 1 0 0) " stroke-linecap="round" />
	<path d="M 38.881 45 c 0 6.271 2.271 12.009 6.029 16.447 c 0.001 0 0.002 0.001 0.003 0.001 c 3.759 -4.438 6.206 -10.177 6.206 -16.449 c 0 -6.274 -2.446 -12.015 -6.207 -16.452 C 41.15 32.986 38.881 38.727 38.881 45 z" style="stroke: none; stroke-width: 1; stroke-dasharray: none; stroke-linecap: butt; stroke-linejoin: miter; stroke-miterlimit: 10; fill: rgb(255,51,51); fill-rule: nonzero; opacity: 1;" transform=" matrix(1 0 0 1 0 0) " stroke-linecap="round" />
	<path d="M 68.775 35.883 h 0.001 c 0 11.417 6.246 21.233 15.193 25.566 C 87.729 57.011 90 51.272 90 45 c 0 -12.62 -9.18 -23.09 -21.225 -25.113 L 68.775 35.883 L 68.775 35.883 z M 64.53 51.431 C 62.945 58 58.205 63.616 52.299 67.347 c 3.63 1.991 7.796 3.125 12.229 3.125 c 4.433 0 8.601 -1.135 12.232 -3.126 C 70.855 63.615 66.116 57.999 64.53 51.431 L 64.53 51.431 z" style="stroke: none; stroke-width: 1; stroke-dasharray: none; stroke-linecap: butt; stroke-linejoin: miter; stroke-miterlimit: 10; fill: rgb(0,94,172); fill-rule: nonzero; opacity: 1;" transform=" matrix(1 0 0 1 0 0) " stroke-linecap="round" />
</g>
</svg>