<svg id="SvgjsSvg1001" width="288" height="288" xmlns="http://www.w3.org/2000/svg" version="1.1" xmlns:xlink="http://www.w3.org/1999/xlink" xmlns:svgjs="http://svgjs.com/svgjs"><defs id="SvgjsDefs1002"></defs><g id="SvgjsG1008" transform="matrix(0.9167,0,0,0.9167,11.996399480724335,11.996398845195785)"><svg xmlns="http://www.w3.org/2000/svg" enable-background="new 0 0 1000 1000" viewBox="0 0 1000 1000" width="288" height="288"><path d="M834.1,512.7c-7.5,11.6-18.3,20.7-32.4,27.1c-14.1,6.5-30,9.7-47.6,9.7c-22.3,0-41.1-3.3-56.2-9.8c-15.1-6.5-26.9-16.3-35.5-29.4c-8.6-13.1-13.1-27.9-13.6-44.4l30.8-2.7c1.5,12.4,4.9,22.5,10.2,30.4c5.3,7.9,13.6,14.3,24.8,19.2c11.2,4.9,23.9,7.3,37.9,7.3c12.5,0,23.5-1.9,33-5.6c9.5-3.7,16.6-8.8,21.3-15.2c4.7-6.5,7-13.5,7-21.1c0-7.7-2.2-14.5-6.7-20.3c-4.5-5.8-11.9-10.6-22.2-14.6c-6.6-2.6-21.3-6.6-44-12c-22.7-5.4-38.6-10.6-47.7-15.4c-11.8-6.2-20.6-13.8-26.4-23c-5.8-9.2-8.7-19.4-8.7-30.7c0-12.5,3.5-24.1,10.6-34.9c7.1-10.8,17.4-19.1,31-24.7c13.6-5.6,28.7-8.4,45.3-8.4c18.3,0,34.4,2.9,48.4,8.8c14,5.9,24.7,14.6,32.3,26c7.5,11.4,11.6,24.4,12.1,38.9l-31.3,2.4c-1.7-15.6-7.4-27.4-17.1-35.4c-9.7-8-24.1-12-43-12c-19.8,0-34.2,3.6-43.2,10.9c-9,7.2-13.6,16-13.6,26.2c0,8.9,3.2,16.2,9.6,21.9c6.3,5.7,22.7,11.6,49.3,17.6c26.6,6,44.8,11.3,54.7,15.7c14.4,6.6,25,15,31.8,25.2c6.8,10.2,10.3,21.9,10.3,35.1C845.4,488.7,841.6,501,834.1,512.7 M607.2,545.2h-31.5V338.6L504,545.2h-29.5l-71.4-210.2v210.2h-31.5V298.3h49.2l58.4,174.8c5.4,16.3,9.3,28.5,11.8,36.5c2.8-9,7.2-22.2,13.1-39.6l59.1-171.8h44V545.2L607.2,545.2z M316.7,512.7c-7.5,11.6-18.3,20.7-32.4,27.1c-14.1,6.5-30,9.7-47.6,9.7c-22.3,0-41.1-3.3-56.2-9.8c-15.1-6.5-26.9-16.3-35.5-29.4c-8.6-13.1-13.1-27.9-13.6-44.4l30.8-2.7c1.5,12.4,4.9,22.5,10.2,30.4c5.3,7.9,13.6,14.3,24.8,19.2c11.2,4.9,23.9,7.3,37.9,7.3c12.5,0,23.5-1.9,33-5.6c9.5-3.7,16.6-8.8,21.3-15.2c4.7-6.5,7-13.5,7-21.1c0-7.7-2.2-14.5-6.7-20.3c-4.5-5.8-11.9-10.6-22.2-14.6c-6.6-2.6-21.3-6.6-44-12c-22.7-5.4-38.6-10.6-47.7-15.4c-11.8-6.2-20.6-13.8-26.4-23c-5.8-9.2-8.7-19.4-8.7-30.7c0-12.5,3.5-24.1,10.6-34.9c7.1-10.8,17.4-19.1,31-24.7c13.6-5.6,28.7-8.4,45.3-8.4c18.3,0,34.4,2.9,48.4,8.8c14,5.9,24.7,14.6,32.3,26c7.5,11.4,11.6,24.4,12.1,38.9l-31.3,2.4c-1.7-15.6-7.4-27.4-17.1-35.4c-9.7-8-24.1-12-43-12c-19.8,0-34.2,3.6-43.2,10.9c-9,7.2-13.6,16-13.6,26.2c0,8.9,3.2,16.2,9.6,21.9c6.3,5.7,22.7,11.6,49.3,17.6c26.6,6,44.8,11.3,54.7,15.7c14.4,6.6,25,15,31.8,25.2c6.8,10.2,10.3,21.9,10.3,35.1C328,488.7,324.2,501,316.7,512.7 M499.9,35.3C229.5,35.3,10,208.1,10,421.1C10,538.9,76.7,644.2,182,715c35.5,23.9,28.3,120.7-81.2,249.8c208.9-28.3,283.6-166.5,329.1-161.4c23,2.5,46.3,3.8,70.1,3.8c270.6,0,490.1-172.6,490.1-386.1C990,208.1,770.5,35.3,499.9,35.3" fill="#107a8b" class="color000 svgShape"></path></svg></g></svg>