<svg xmlns="http://www.w3.org/2000/svg" viewBox="0 0 48 48"><defs><linearGradient id="0" x1="342.01" y1="550.66" x2="341.08" y2="511.1" gradientUnits="userSpaceOnUse"><stop stop-color="#197cf1"/><stop offset="1" stop-color="#20bcfa"/></linearGradient></defs><g transform="translate(-384.57-499.8)"><path d="m358.77 517c-4.823-3.925-11.228-6.087-18.03-6.087-6.806 0-13.21 2.162-18.03 6.087-4.865 3.96-7.545 9.236-7.545 14.859 0 5.366 2.442 10.417 6.895 14.309-.08.181-.144.371-.185.57l-1.463 7.196c-.174.855.06 1.365.286 1.643.262.32.65.497 1.093.497.335 0 .694-.099 1.069-.293l8.509-4.421c2.946.948 6.113 1.446 9.373 1.446 6.806 0 13.21-2.162 18.03-6.087 4.865-3.959 7.545-9.236 7.545-14.859 0-5.623-2.679-10.9-7.545-14.859" fill="url(#0)" transform="matrix(.9383 0 0 .9383 89.12 23.531)"/><g transform="matrix(.47006 0 0 .47006 242.45 283.32)" fill="#fff" fill-opacity=".853"><path d="m328.35 519.9q-3.28 0-5.44-1.6-2.12-1.6-3.12-4l3.28-1.36q1.56 3.68 5.32 3.68 1.72 0 2.8-.76 1.12-.76 1.12-2 0-1.92-2.68-2.6l-3.96-.96q-1.88-.48-3.56-1.8-1.68-1.36-1.68-3.64 0-2.6 2.28-4.2 2.32-1.64 5.48-1.64 2.6 0 4.64 1.2 2.04 1.16 2.92 3.36l-3.2 1.32q-1.08-2.6-4.48-2.6-1.64 0-2.76.68-1.12.68-1.12 1.84 0 1.68 2.6 2.28l3.88.92q2.76.64 4.08 2.2 1.32 1.56 1.32 3.52 0 2.64-2.16 4.4-2.16 1.76-5.56 1.76"/><path d="m339.04 519.26v-19.6h3.52v2.72h.16q.84-1.4 2.56-2.36 1.76-1 3.48-1 4.56 0 6.2 3.76 2.4-3.76 6.84-3.76 3.48 0 5.24 2.24 1.76 2.2 1.76 6v12h-3.68v-11.44q0-2.96-1.08-4.2-1.08-1.24-3.28-1.24-2.16 0-3.6 1.84-1.4 1.84-1.4 4.2v10.84h-3.68v-11.44q0-2.96-1.08-4.2-1.08-1.24-3.28-1.24-2.16 0-3.6 1.84-1.4 1.84-1.4 4.2v10.84h-3.68"/><path d="m380.14 519.9q-3.28 0-5.44-1.6-2.12-1.6-3.12-4l3.28-1.36q1.56 3.68 5.32 3.68 1.72 0 2.8-.76 1.12-.76 1.12-2 0-1.92-2.68-2.6l-3.96-.96q-1.88-.48-3.56-1.8-1.68-1.36-1.68-3.64 0-2.6 2.28-4.2 2.32-1.64 5.48-1.64 2.6 0 4.64 1.2 2.04 1.16 2.92 3.36l-3.2 1.32q-1.08-2.6-4.48-2.6-1.64 0-2.76.68-1.12.68-1.12 1.84 0 1.68 2.6 2.28l3.88.92q2.76.64 4.08 2.2 1.32 1.56 1.32 3.52 0 2.64-2.16 4.4-2.16 1.76-5.56 1.76"/></g></g></svg>