<svg id="SvgjsSvg1001" width="288" height="288" xmlns="http://www.w3.org/2000/svg" version="1.1" xmlns:xlink="http://www.w3.org/1999/xlink" xmlns:svgjs="http://svgjs.com/svgjs"><defs id="SvgjsDefs1002"></defs><g id="SvgjsG1008" transform="matrix(0.9167,0,0,0.9167,11.995200635528562,11.995880015563984)"><svg xmlns="http://www.w3.org/2000/svg" viewBox="0 0 24 24" width="288" height="288"><path d="M13.755 22.243a1.756 1.756 0 11-3.512.002 1.756 1.756 0 013.512-.002zm-6.335 0a1.756 1.756 0 11-3.513.002 1.756 1.756 0 013.513-.002zm12.671 0a1.756 1.756 0 11-3.512.002 1.756 1.756 0 013.512-.002zM7.477 17.248l-5.171 1.293 1.105-4.42c-1.094-1.442-1.733-3.175-1.733-5.039C1.678 4.066 6.3 0 12 0c5.7 0 10.322 4.066 10.322 9.082 0 5.016-4.622 9.083-10.322 9.083a11.45 11.45 0 01-4.523-.917zm1.595-8.92h-.115a.47.47 0 00-.47.471v4.126c0 .26.21.471.47.471h6.086c.26 0 .47-.21.47-.47V8.798a.47.47 0 00-.47-.47h-.115v-1.17a2.927 2.927 0 00-2.93-2.924A2.926 2.926 0 009.073 7.16zm4.685 0h-3.514V7.16a1.756 1.756 0 013.514 0v1.17Z" fill="#004a7f" class="color000 svgShape"></path></svg></g></svg>