<?xml version="1.0" ?><svg data-name="Layer 1" id="Layer_1" viewBox="0 0 508.33 508.36" xmlns="http://www.w3.org/2000/svg"><defs><style>.cls-1{fill:#e6162e;fill-rule:evenodd;}.cls-2{fill:#fff;}</style></defs><title/><path class="cls-1" d="M485,29.72c11.45,15.13,16.61,40.21,19.15,70.7,3.36,45.5,4.71,100.1,6,156.52-1.67,57.47-2.35,115.43-6,156.52-2.88,31.54-9,52.66-19.22,65.47-13,12.79-37.94,23.59-73.5,26.15-43.25,3.69-96.61,3.65-155.48,5.1-65.44-1.12-109.82-.64-156.38-5.08-36.32-2.52-60.08-13.19-74.7-26.07-10.83-14.54-14-30-17-66.24-3.75-41.85-4.58-98.56-6-155.54C4,200.57,4.13,143.44,7.9,100.74,10.43,67.05,14.42,44.4,24.65,30,39,17.77,63.48,11.69,100,8.69c50-5.85,102.06-7,155.88-6.87,55.39.09,108.56,1.67,156,6.34,32,2.56,58.48,8.07,73.07,21.56Z" transform="translate(-1.83 -1.82)"/><path class="cls-2" d="M213.07,313.72a13.87,13.87,0,0,0,1.84-11.51,12.48,12.48,0,0,0-7.51-8.34,17,17,0,0,0-12.18-.17,18.34,18.34,0,0,0-10,7.68A13.9,13.9,0,0,0,183,312.8a12.47,12.47,0,0,0,7.18,8.43,16.21,16.21,0,0,0,12.43.42A19.26,19.26,0,0,0,213.07,313.72Zm15.69-20.19a5,5,0,0,0,.58-4.42,4.75,4.75,0,0,0-2.92-3.09,6.68,6.68,0,0,0-4.76.08,6.57,6.57,0,0,0-3.59,3.09q-2.84,5.17,2.17,7.51a6.91,6.91,0,0,0,4.84-.08A6.56,6.56,0,0,0,228.76,293.53Zm29,17.86q-7.51,17-26.37,25t-37.38,2q-17.86-5.67-24.61-21.11T170.52,286q7.84-15.52,25.28-23.2a52.68,52.68,0,0,1,35.13-3.17q18.52,4.84,26.45,19.94T257.79,311.38Zm52.06-26.7q-1.5-16-14.85-28.37t-34.79-18.19a127,127,0,0,0-45.81-3.5q-37.21,3.84-61.66,23.61t-22.11,44.14q1.5,16,14.85,28.37t34.79,18.19a127,127,0,0,0,45.81,3.5q37.21-3.84,61.66-23.61T309.86,284.68Zm51.4.67q0,11.35-6.17,23.28t-18.19,22.86a140.74,140.74,0,0,1-28.12,19.61q-16.1,8.68-37.71,13.85a193.27,193.27,0,0,1-45.14,5.17A188.49,188.49,0,0,1,180,364.53,162.91,162.91,0,0,1,139.9,349a85.72,85.72,0,0,1-28.62-25.2,56.29,56.29,0,0,1-10.85-33.29q0-19.19,11.6-40.88t33-43.05q28.2-28.2,57-39.38t41.13,1.17q10.85,10.68,3.34,34.88a5,5,0,0,0-.17,3.34,2.08,2.08,0,0,0,1.67,1.17,7.13,7.13,0,0,0,2.42-.08,18.84,18.84,0,0,0,2.25-.58l1-.33q23.2-9.85,41.05-9.85t25.53,10.18q7.51,10.51,0,29.7a19.09,19.09,0,0,1-.75,3.34,1.75,1.75,0,0,0,.75,2.09,8.66,8.66,0,0,0,2,1.25q.83.33,2.84,1a73.65,73.65,0,0,1,17.19,7.84,44,44,0,0,1,13.35,13.6A35,35,0,0,1,361.26,285.35ZM348.91,181.22A38.11,38.11,0,0,1,358,199.33a37,37,0,0,1-1.08,19.61,9.74,9.74,0,0,1-4.92,5.67,9.6,9.6,0,0,1-7.43.67,9.74,9.74,0,0,1-5.67-4.92,9.6,9.6,0,0,1-.67-7.43q3.34-10.51-4-18.52t-17.86-5.84a9.93,9.93,0,0,1-7.51-1.33,8.64,8.64,0,0,1-4.17-6.17,9.68,9.68,0,0,1,1.33-7.43,9.26,9.26,0,0,1,6.17-4.26,38.23,38.23,0,0,1,19.86.92A37.15,37.15,0,0,1,348.91,181.22Zm30.2-27.2a79.12,79.12,0,0,1,16.52,77.43,11.26,11.26,0,0,1-5.67,6.67,10.74,10.74,0,0,1-8.68.67,11.63,11.63,0,0,1-7.51-14.35,56.23,56.23,0,0,0-36.38-71A57.19,57.19,0,0,0,308.52,152a11.51,11.51,0,0,1-13.68-8.84,10.88,10.88,0,0,1,1.59-8.59,11.17,11.17,0,0,1,7.26-4.92,79.7,79.7,0,0,1,40.72,1.92A76.24,76.24,0,0,1,379.11,154Z" transform="translate(-1.83 -1.82)"/></svg>