<svg data-name="Layer 1" viewBox="0 0 508.33 508.36" xmlns="http://www.w3.org/2000/svg"><path d="M483.17 27.9c11.45 15.13 16.61 40.21 19.15 70.7 3.36 45.5 4.71 100.1 6 156.52-1.67 57.47-2.35 115.43-6 156.52-2.88 31.54-9 52.66-19.22 65.47-13 12.79-37.94 23.59-73.5 26.15-43.25 3.69-96.61 3.65-155.48 5.1-65.44-1.12-109.82-.64-156.38-5.08-36.32-2.52-60.08-13.19-74.7-26.07-10.83-14.54-14-30-17-66.24-3.75-41.85-4.58-98.56-6-155.54C2.17 198.75 2.3 141.62 6.07 98.92c2.53-33.69 6.52-56.34 16.75-70.74C37.17 15.95 61.65 9.87 98.17 6.87c50-5.85 102.06-7 155.88-6.87 55.39.09 108.56 1.67 156 6.34 32 2.56 58.48 8.07 73.07 21.56z" fill="#e6162e" fill-rule="evenodd"/><path d="M211.24 311.9a13.87 13.87 0 001.84-11.51 12.48 12.48 0 00-7.51-8.34 17 17 0 00-12.18-.17 18.34 18.34 0 00-10 7.68 13.9 13.9 0 00-2.22 11.42 12.47 12.47 0 007.18 8.43 16.21 16.21 0 0012.43.42 19.26 19.26 0 0010.46-7.93zm15.69-20.19a5 5 0 00.58-4.42 4.75 4.75 0 00-2.92-3.09 6.68 6.68 0 00-4.76.08 6.57 6.57 0 00-3.59 3.09q-2.84 5.17 2.17 7.51a6.91 6.91 0 004.84-.08 6.56 6.56 0 003.68-3.09zm29 17.86q-7.51 17-26.37 25t-37.38 2q-17.86-5.67-24.61-21.11t1.12-31.28q7.84-15.52 25.28-23.2a52.68 52.68 0 0135.13-3.17q18.52 4.84 26.45 19.94t.41 31.81zm52.06-26.7q-1.5-16-14.85-28.37t-34.79-18.19a127 127 0 00-45.81-3.5q-37.21 3.84-61.66 23.61t-22.11 44.14q1.5 16 14.85 28.37t34.79 18.19a127 127 0 0045.81 3.5q37.21-3.84 61.66-23.61t22.15-44.15zm51.4.67q0 11.35-6.17 23.28t-18.19 22.86a140.74 140.74 0 01-28.12 19.61q-16.1 8.68-37.71 13.85a193.27 193.27 0 01-45.14 5.17 188.49 188.49 0 01-45.89-5.6 162.91 162.91 0 01-40.1-15.53 85.72 85.72 0 01-28.62-25.2 56.29 56.29 0 01-10.85-33.29q0-19.19 11.6-40.88t33-43.05q28.2-28.2 57-39.38t41.13 1.17q10.85 10.68 3.34 34.88a5 5 0 00-.17 3.34 2.08 2.08 0 001.67 1.17 7.13 7.13 0 002.42-.08 18.84 18.84 0 002.25-.58l1-.33q23.2-9.85 41.05-9.85t25.53 10.18q7.51 10.51 0 29.7a19.09 19.09 0 01-.75 3.34 1.75 1.75 0 00.75 2.09 8.66 8.66 0 002 1.25q.83.33 2.84 1a73.65 73.65 0 0117.19 7.84 44 44 0 0113.35 13.6 35 35 0 015.63 19.43zM347.08 179.4a38.11 38.11 0 019.09 18.11 37 37 0 01-1.08 19.61 9.74 9.74 0 01-4.92 5.67 9.6 9.6 0 01-7.43.67 9.74 9.74 0 01-5.67-4.92 9.6 9.6 0 01-.67-7.43q3.34-10.51-4-18.52t-17.86-5.84a9.93 9.93 0 01-7.51-1.33 8.64 8.64 0 01-4.17-6.17 9.68 9.68 0 011.33-7.43 9.26 9.26 0 016.17-4.26 38.23 38.23 0 0119.86.92 37.15 37.15 0 0116.86 10.92zm30.2-27.2a79.12 79.12 0 0116.52 77.43 11.26 11.26 0 01-5.67 6.67 10.74 10.74 0 01-8.68.67 11.63 11.63 0 01-7.51-14.35 56.23 56.23 0 00-36.38-71 57.19 57.19 0 00-28.87-1.44 11.51 11.51 0 01-13.68-8.84 10.88 10.88 0 011.59-8.59 11.17 11.17 0 017.26-4.92 79.7 79.7 0 0140.72 1.92 76.24 76.24 0 0134.7 22.43z" fill="#fff"/></svg>