<svg version="1.1" id="Layer_1" xmlns="http://www.w3.org/2000/svg" x="0" y="0" viewBox="0 0 792 792" xml:space="preserve"><style>.st0{fill:#fff}.st1{fill:#12af0a}</style><g id="XMLID_1_"><path class="st0" d="M496.6 431.4c.2 1.8.4 3.4.4 4.9 0 15.3-7 26.6-21.1 33.9-9 4.5-17.5 6.8-25.3 6.8h-4.5c-14.1-2.3-30.5-7.9-49.4-17-24.6-11.5-47.5-32-68.6-61.4-15.1-21.6-22.6-39.6-22.6-53.9 0-25.1 8.2-40 24.5-44.5 3.5-.5 6.9-.8 10.2-.8 3.3 0 6.2.5 8.7 1.5 2 1 6 8.2 12.1 21.5 6.3 15.3 9.4 23.5 9.4 24.5 0 3.8-2.4 8.2-7.2 13.2l-8.7 11.3c0 3 4.3 10.2 12.8 21.5 10.8 13.8 22.5 24.1 35.1 30.9 11.3 6.3 18.9 9.4 22.6 9.4h.8c2-.3 6.1-4.4 12.4-12.4 6.3-7.8 10.4-11.7 12.4-11.7 2.8 0 11 3.4 24.9 10.2 11.3 5.5 17 8.3 17 8.3s1.4 1.3 4.1 3.8z"/><path class="st0" d="M592.8 375.3V399c-6.5 67.1-37.5 117.7-92.7 151.9-27.9 17.1-59.6 26.4-95 27.9h-6c-29.9 0-60.8-8.2-92.7-24.5-6.8 2.3-24.4 7.9-52.8 17-21.9 6.8-39.4 12.6-52.8 17.3-.5 0-.9-.5-1.1-1.5l-1.5 2.3c0-.5 10.4-30.8 31.3-90.9 1.3-3.8 1.9-7.8 1.9-12.1 0-3.5-.8-7.3-2.3-11.3-15.1-29.9-22.6-59.8-22.6-89.7.8-49 19.1-92.9 55-131.6 31.1-33.4 73.4-52.8 126.6-58.1h23.4c50.8 4.5 92.2 23 124.4 55.4 33.1 33.3 52.1 74.7 56.9 124.2zm-36.6 57.3c4.3-16.8 6.4-32.9 6.4-48.3 0-36.4-13.3-70-40-100.6-31.9-38.5-72.9-57.7-122.9-57.7-4.3 0-8.7.1-13.2.4-29.4 1.8-56.4 11.4-81 29-45.5 33.2-68.2 76.1-68.2 128.9 0 6.3.4 12.4 1.1 18.5 2.3 21.9 8.7 42.6 19.2 62.2 7 11.3 10.7 17 10.9 17l-6 15.1c-8.8 26.6-13.6 41.2-14.3 43.7l61.8-19.6c25.1 14.8 48.8 23.5 70.9 26 5.8.8 11.6 1.1 17.3 1.1 23.1 0 45-4.6 65.6-13.9 47-20.9 77.8-54.8 92.4-101.8z"/><path class="st1" d="M740.7 253.5c18.7 45.2 28.1 92.7 28.1 142.5s-9.4 97.3-28.1 142.5c-18.7 45.2-45.8 85.6-81.2 121s-75.8 62.5-121 81.2c-45.2 18.7-92.7 28.1-142.5 28.1s-97.3-9.4-142.5-28.1c-45.2-18.7-85.6-45.8-121-81.2s-62.5-75.8-81.2-121C32.5 493.3 23.2 445.8 23.2 396s9.4-97.3 28.1-142.5c18.7-45.2 45.8-85.6 81.2-121s75.8-62.5 121-81.2c45.2-18.7 92.7-28.1 142.5-28.1s97.3 9.4 142.5 28.1c45.2 18.7 85.6 45.8 121 81.2s62.5 75.8 81.2 121zM592.8 399v-23.8c-4.8-49.5-23.8-90.8-56.9-124-32.2-32.4-73.6-50.9-124.4-55.4h-23.4c-53.3 5.3-95.5 24.6-126.6 58.1-35.9 38.7-54.3 82.6-55 131.6 0 29.9 7.5 59.8 22.6 89.7 1.5 4 2.3 7.8 2.3 11.3 0 4.3-.6 8.3-1.9 12.1-20.9 60.1-31.3 90.4-31.3 90.9l1.5-2.3c.2 1 .6 1.5 1.1 1.5 13.3-4.8 30.9-10.5 52.8-17.3 28.4-9 46-14.7 52.8-17 31.9 16.3 62.8 24.5 92.7 24.5h6c35.4-1.5 67.1-10.8 95-27.9 55.2-34.2 86.1-84.9 92.7-152z"/><path class="st1" d="M562.6 384.3c0 15.3-2.1 31.4-6.4 48.3-14.6 47-45.4 80.9-92.4 101.8-20.6 9.3-42.5 13.9-65.6 13.9-5.8 0-11.6-.4-17.3-1.1-22.1-2.5-45.7-11.2-70.9-26l-61.8 19.6c.8-2.5 5.5-17.1 14.3-43.7l6-15.1c-.3 0-3.9-5.7-10.9-17-10.6-19.6-17-40.3-19.2-62.2-.8-6-1.1-12.2-1.1-18.5 0-52.8 22.7-95.7 68.2-128.9 24.6-17.6 51.6-27.3 81-29 4.5-.3 8.9-.4 13.2-.4 50 0 91 19.2 122.9 57.7 26.7 30.6 40 64.2 40 100.6zm-65.6 52c0-1.5-.1-3.1-.4-4.9-2.8-2.5-4.1-3.8-4.1-3.8s-5.6-2.8-17-8.3c-13.8-6.8-22.1-10.2-24.9-10.2-2 0-6.2 3.9-12.4 11.7-6.3 8-10.4 12.2-12.4 12.4h-.8c-3.8 0-11.3-3.1-22.6-9.4-12.6-6.8-24.3-17.1-35.1-30.9-8.5-11.3-12.8-18.5-12.8-21.5l8.7-11.3c4.8-5 7.2-9.4 7.2-13.2 0-1-3.1-9.2-9.4-24.5-6-13.3-10-20.5-12.1-21.5-2.5-1-5.4-1.5-8.7-1.5-3.3 0-6.7.3-10.2.8-16.3 4.5-24.5 19.4-24.5 44.5 0 14.3 7.5 32.3 22.6 53.9 21.1 29.4 44 49.9 68.6 61.4 18.9 9.1 35.3 14.7 49.4 17h4.5c7.8 0 16.2-2.3 25.3-6.8C490 463 497 451.7 497 436.3z"/></g></svg>