<svg width="288" height="288" xmlns="http://www.w3.org/2000/svg" xmlns:xlink="http://www.w3.org/1999/xlink" xmlns:svgjs="http://svgjs.com/svgjs"><svg xmlns="http://www.w3.org/2000/svg" width="288" height="288" fill-rule="evenodd" version="1.0" viewBox="0 0 5.556 5.556" transform="translate(11.994 11.995) scale(.9167)"><path fill="#21759a" d="M2.778.39c.623 0 1.19.238 1.616.63-.209-.006-.417.118-.426.401-.017.574.686.696.307 1.85l-.313.954-.854-2.515c-.013-.04.002-.061.05-.061h.241c.013 0 .023-.011.023-.024v-.143c0-.013-.01-.024-.023-.024-.457.02-.911.02-1.363 0-.012 0-.023.01-.023.024v.143c0 .013.01.024.023.024h.243c.054 0 .069.018.082.053l.35.959-.527 1.594-.868-2.556c-.01-.032.002-.05.033-.05h.277c.012 0 .023-.011.023-.024v-.143c0-.013-.01-.025-.023-.024-.29.016-.582.019-.853.021A2.386 2.386 0 012.778.39zm2.1 1.25a2.388 2.388 0 01-.954 3.233l.745-2.11c.116-.326.223-.767.21-1.122zm-1.3 3.389a2.381 2.381 0 01-1.495.035l.736-2.109.759 2.074zm-1.822-.092a2.389 2.389 0 01-1.152-3.15l1.152 3.15zM2.778.165a2.613 2.613 0 110 5.226 2.613 2.613 0 010-5.226zm0-.165a2.778 2.778 0 11-.001 5.556 2.778 2.778 0 010-5.556z" class="color464342 svgShape"/></svg></svg>