<?xml version="1.0" encoding="utf-8"?>
<!-- Generator: Adobe Illustrator 19.0.1, SVG Export Plug-In . SVG Version: 6.00 Build 0)  -->
<svg version="1.1" id="svg2268" xmlns:svg="http://www.w3.org/2000/svg"
	 xmlns="http://www.w3.org/2000/svg" xmlns:xlink="http://www.w3.org/1999/xlink" x="0px" y="0px" viewBox="512.5 -11 383 383"
	 style="enable-background:new 512.5 -11 383 383;" xml:space="preserve">
<style type="text/css">
	.st0{fill:#005A5F;}
	.st1{fill:#FFFFFF;}
</style>
<path class="st0" d="M828.3,363H579.8c-32,0-58.3-26.2-58.3-58.3V56.3c0-32,26.2-58.3,58.3-58.3h248.5c32,0,58.3,26.2,58.3,58.3
	v248.5C886.5,336.8,860.3,363,828.3,363z"/>
<g id="layer1" transform="translate(-194.8708,-324.33481)">
	<path id="path19359" class="st1" d="M817.1,433.7c-2,0-3.8,0.7-4.6,2.1c-0.9,1.4-0.8,3.3,0.2,5.2l22.9,39.7c0,0.1,0,0.1,0,0.2
		l-36,63.5c-0.9,1.9-0.9,3.8,0,5.2c0.9,1.4,2.4,2.3,4.4,2.3h33.9c5.1,0,7.5-3.4,9.2-6.5c0,0,35.2-62.3,36.6-64.7
		c-0.1-0.2-23.3-40.6-23.3-40.6c-1.7-3-4.2-6.4-9.4-6.4H817.1z"/>
	<path id="path19375" class="st1" d="M959.5,387.3c-5.1,0-7.3,3.2-9.1,6.5c0,0-73,129.5-75.4,133.7c0.1,0.2,48.2,88.4,48.2,88.4
		c1.7,3,4.3,6.5,9.5,6.5h33.9c2,0,3.6-0.8,4.5-2.2c0.9-1.4,0.9-3.4-0.1-5.2l-47.8-87.3c0-0.1,0-0.2,0-0.2l75-132.7
		c0.9-1.9,1-3.8,0.1-5.2c-0.9-1.4-2.5-2.2-4.5-2.2H959.5z"/>
</g>
</svg>
