<svg version="1.1" id="svg2268" xmlns="http://www.w3.org/2000/svg" x="0" y="0" viewBox="512.5 -11 383 383" xml:space="preserve"><style>.st1{fill:#fff}</style><path d="M828.3 363H579.8c-32 0-58.3-26.2-58.3-58.3V56.3c0-32 26.2-58.3 58.3-58.3h248.5c32 0 58.3 26.2 58.3 58.3v248.5c-.1 32-26.3 58.2-58.3 58.2z" fill="#005a5f"/><g id="layer1" transform="translate(-194.87 -324.335)"><path id="path19359" class="st1" d="M817.1 433.7c-2 0-3.8.7-4.6 2.1-.9 1.4-.8 3.3.2 5.2l22.9 39.7v.2l-36 63.5c-.9 1.9-.9 3.8 0 5.2.9 1.4 2.4 2.3 4.4 2.3h33.9c5.1 0 7.5-3.4 9.2-6.5 0 0 35.2-62.3 36.6-64.7-.1-.2-23.3-40.6-23.3-40.6-1.7-3-4.2-6.4-9.4-6.4h-33.9z"/><path id="path19375" class="st1" d="M959.5 387.3c-5.1 0-7.3 3.2-9.1 6.5 0 0-73 129.5-75.4 133.7.1.2 48.2 88.4 48.2 88.4 1.7 3 4.3 6.5 9.5 6.5h33.9c2 0 3.6-.8 4.5-2.2.9-1.4.9-3.4-.1-5.2l-47.8-87.3v-.2l75-132.7c.9-1.9 1-3.8.1-5.2-.9-1.4-2.5-2.2-4.5-2.2h-34.3z"/></g></svg>