<?xml version="1.0" encoding="utf-8"?>
<!-- www.vectorico.com -->
<svg version="1.1" id="Yahoo" xmlns="http://www.w3.org/2000/svg" xmlns:xlink="http://www.w3.org/1999/xlink" x="0px" y="0px"
	 viewBox="0 0 64 64" style="enable-background:new 0 0 64 64;" xml:space="preserve">
<style type="text/css">
	.st0{fill:#83358B;}
	.st1{fill:#FFFFFF;}
</style>
<title>yahoo icon</title>
<circle class="st0" cx="32" cy="32" r="31"/>
<path class="st1" d="M44.1,25.3c-0.1,0-0.5,0.3-0.9,0.7l-1.7,1.7l-2.1,2.3c-0.7,0.8-1.4,1.6-2,2.4c-0.6,0.8-1.1,1.5-1.6,2.1
	c-0.5,0.6-0.8,1.1-0.9,1.4c0,0.2,0,0.7,0,1.5s0,1.7,0,2.6c0,0.9,0,1.8,0,2.7c0,0.9,0,1.4,0.1,1.7c0.1,0,0.4,0.1,0.9,0.1h1.5
	c0.5,0,1,0,1.5,0c0.5,0,0.8,0.1,1,0.1l0,2.3c-0.2,0-0.6,0-1.2,0c-0.6,0-1.3,0-2.1,0h-4.8c-0.3,0-0.8,0-1.4,0l-2,0.1
	c-0.7,0-1.4,0-2.1,0h-1.5l0.3-2.1H26c0.4,0,0.9,0,1.3,0c0.4,0,0.9-0.1,1.3-0.2c0.4-0.1,0.7-0.3,0.9-0.6c0.1-0.1,0.1-0.6,0.2-1.3
	c0-0.8,0-1.6,0-2.6s0-1.9,0-2.7c0-0.9,0-1.5,0-1.7c0-0.2-0.1-0.6-0.5-1.3l-1.4-2.5L26,28.6l-1.9-3.4l-1.8-2.7
	c-0.5-0.8-1-1.3-1.3-1.6h-4.6v-2.9h15.2v0.2h0l0,0.5v2.1H27l1.7,3.3l1.8,3.3l1.6,3l1.2,2.3l6.2-7.8h-3.8l-0.5-2.8h13.4l-0.1,0.2h0.1
	l-1,1.9h0L47.2,25h-2.3c-0.1,0.1-0.3,0.1-0.4,0.2C44.3,25.2,44.2,25.2,44.1,25.3L44.1,25.3z"/>
</svg>
