<svg xmlns="http://www.w3.org/2000/svg" viewBox="0 0 64 64"><circle cx="32" cy="32" r="31" fill="#83358b"/><path d="M44.1 25.3c-.1 0-.5.3-.9.7l-1.7 1.7-2.1 2.3c-.7.8-1.4 1.6-2 2.4-.6.8-1.1 1.5-1.6 2.1-.5.6-.8 1.1-.9 1.4v6.8c0 .9 0 1.4.1 1.7.1 0 .4.1.9.1h3c.5 0 .8.1 1 .1v2.3h-9.5l-2 .1h-3.6l.3-2.1h2.2c.4 0 .9-.1 1.3-.2s.7-.3.9-.6c.1-.1.1-.6.2-1.3v-2.6-2.7-1.7c0-.2-.1-.6-.5-1.3L27.8 32 26 28.6l-1.9-3.4-1.8-2.7c-.5-.8-1-1.3-1.3-1.6h-4.6V18h15.2v2.8H27l1.7 3.3 1.8 3.3 1.6 3 1.2 2.3 6.2-7.8h-3.8l-.5-2.8h13.4l-.1.2h.1l-1 1.9-.4.8h-2.3c-.1.1-.3.1-.4.2-.2 0-.3 0-.4.1z" fill="#fff"/></svg>